<svg fill="none" height="540" viewBox="0 0 387 540" width="387" xmlns="http://www.w3.org/2000/svg" xmlns:xlink="http://www.w3.org/1999/xlink"><clipPath id="a"><path d="m0 0h387v540h-387z"/></clipPath><g clip-path="url(#a)"><path d="m-67.36 504.16s-15.12-55.34 5.18-93.09 44.07-41.84 49.05-25.07c4.98001 16.77-9.28 30.81-9.28 30.81s15.37001-15.62 25.00001-7.15c9.62999 8.47-25.00001 64.95-25.00001 64.95s21.410015-12.61 23.100018.39c1.690002 13-6.889998 29.16-6.889998 29.16z" fill="#388c77"/><path d="m-39.8399 503.32s-4.7-30.26 17.79-48.21c22.489971-17.95 27.73997-21 27.73997-21s-30.52997 22.11-34.10997 37.69c-2.0958 9.398-.6539 19.238 4.05 27.64 0 0-4.16-3 0-17.08s16.80997-25.75 16.80997-25.75-17.94997 17.71-11.79997 30.27 13.15997 17.28 13.15997 17.28z" fill="#3c6448"/><path d="m-49.0699 475s3.21-34.3 24.7-51.38c21.48995-17.08 43.33-17 40.84 2.3s-65.54 49.08-65.54 49.08z" fill="#54b162"/><path d="m96.35 160.84c15.48 21.31 35.81 41.33 61.68 46.31 23.06 4.44 47.13-4 66.14-17.82s33.83-32.47 48.18-51.07c16.66-21.59 33.44-43.75 55.83-59.32 17.12-11.94 38.36-19.43 58.82-18.04v-60.9h-387v72.66c18.17 1.74 36.05 11.74 49.44 24.76 18.89 18.37 31.43 42.11 46.91 63.42z" fill="#ff6b6b"/><path d="m187.09 419.49c-27.85-26.94-49.47-62.06-84.36-78.91-12.028-5.73-25.0774-9.006-38.3856-9.636-13.3083-.63-26.6088 1.398-39.1244 5.966-9.0472 3.384-17.54541 8.085-25.22 13.95v189.14h387v-65.31c-70.16 16.13-148.09-5.08-199.91-55.2z" fill="#fff8fa"/><path d="m328.18 78.95c-22.39 15.57-39.17 37.74-55.83 59.32-14.35 18.59-29.16 37.29-48.18 51.07s-43.08 22.25-66.17 17.81c-25.87-5-46.2-25-61.68-46.31s-28-45.06-46.91-63.42c-13.36-13.02-31.24-23.02-49.41-24.76v278.2c7.67459-5.865 16.1728-10.566 25.22-13.95 12.5156-4.568 25.8161-6.596 39.1244-5.966 13.3082.63 26.3576 3.906 38.3856 9.636 34.89 16.85 56.51 52 84.36 78.91 51.82 50.11 129.75 71.32 199.91 55.2v-413.79c-20.46-1.39-41.7 6.1-58.82 18.05z" fill="#ffd7e2"/><path d="m387 484.55h-387v55.45h387z" fill="#ff6b6b"/><path d="m304.87 362.78h-173.09v121.4h173.09z" fill="#a3785a"/><path d="m208.86 362.78h-77.08v121.4h77.08z" fill="#f7bf74"/><path d="m270.09 362.78h-16.92v13.8h16.92z" fill="#fff1d9"/><path d="m267.6 470.38h-16.92v13.8h16.92z" fill="#fff1d9"/><path d="m201.97 410.47h-143.95v73.56h143.95z" fill="#a3785a"/><path d="m122.12 410.47h-64.1v73.56h64.1z" fill="#f7bf74"/><path d="m174.14 410.47h-18.2v13.26h18.2z" fill="#fff1d9"/><path d="m174.14 470.77h-18.2v13.26h18.2z" fill="#fff1d9"/><path d="m154.18 335.09h-21.08v44.74h28.91z" fill="#54b162"/><path d="m310.34 459.1s2.3-39.57 9.14-53.42c3.985-8.195 9.91-15.294 17.26-20.68-6.757 10.216-11.257 21.756-13.2 33.85-3.41 20.48 0 43.48 0 43.48z" fill="#388c77"/><path d="m315.35 471s-.16-10.3 4.12-31.85 29.19-29.67 29.19-29.67-18.53 17.73-19.8 31.33 1.7 21.48 1.7 21.48z" fill="#54b162"/><path d="m308.42 471.76s-6.61-33.39-3.84-58 30.42-43.12 30.42-43.12-21.16 25.7-22.4 50.6c-.647 15.408 1.672 30.797 6.83 45.33z" fill="#54b162"/><path d="m305.65 463.42s-1.85-25.55-12.65-39.82-12.28-15.76-12.28-15.76 16 9.3 24.92 24.67c5.526 9.827 9.159 20.603 10.71 31.77z" fill="#7dc581"/><path d="m300.14 484.12-7.07-28.94c-.08-.329-.085-.672-.013-1.003s.217-.642.426-.908c.209-.267.476-.483.78-.631.304-.149.638-.227.977-.228h42.53c.335.001.666.077.968.223s.567.357.777.619c.209.262.357.568.432.895.075.326.076.666.003.993l-6.45 28.68c-.11.492-.384.933-.776 1.251-.392.317-.879.493-1.384.499l-29 .26c-.506.005-.999-.161-1.398-.471-.4-.311-.682-.747-.802-1.239z" fill="#fff"/><path d="m238.38 401.28h-4.56v76.16h4.56z" fill="#fff"/><path d="m248.16 477.44h-23.01c-1.011 0-1.83.819-1.83 1.83v4.51c0 1.011.819 1.83 1.83 1.83h23.01c1.011 0 1.83-.819 1.83-1.83v-4.51c0-1.011-.819-1.83-1.83-1.83z" fill="#fff"/><path d="m269.08 405.39c-1.783 1.169-3.692 2.135-5.69 2.88-.56.22-1.16.437-1.8.65l-.31.1c-3.637 1.159-7.372 1.979-11.16 2.45l-.54.07-1.38.16c-3.744.397-7.506.594-11.27.59h-.24-2c-3.13 0-6-.22-8.58-.47l-2-.22h-.15c-4.039-.461-8.025-1.311-11.9-2.54-.85-.28-1.62-.56-2.34-.84-1.919-.729-3.753-1.665-5.47-2.79-.345-.233-.632-.541-.84-.902-.208-.36-.331-.763-.36-1.178-.03-.405.031-.812.18-1.19.84-2.16 2.58-6.38 5.94-13.83 4.49-9.95 8.07-28.23 9.23-34.59.115-.635.449-1.209.945-1.622.495-.413 1.12-.639 1.765-.638h31.14c.643.001 1.266.228 1.759.641s.826.986.941 1.619c1.16 6.36 4.73 24.65 9.23 34.59 3.37 7.46 5.1 11.68 5.94 13.83.215.577.229 1.209.04 1.795-.188.586-.569 1.092-1.08 1.435z" fill="#ffb942"/><g fill="#f4a025"><path d="m224.13 412.06c.07.877-.043 1.76-.331 2.592s-.745 1.595-1.343 2.242c-.597.647-1.322 1.163-2.128 1.516-.807.352-1.678.535-2.558.535s-1.751-.183-2.558-.535c-.806-.353-1.531-.869-2.128-1.516-.598-.647-1.055-1.41-1.343-2.242s-.401-1.715-.331-2.592c.121-1.019.339-2.023.65-3-.85 2.08-3.57 7.6-7.4 5.44-4.88-2.75-1.63-11.13-1.63-11.13.029.415.152.818.36 1.178.208.361.495.669.84.902 2.425 1.562 5.053 2.783 7.81 3.63 3.927 1.244 7.966 2.102 12.06 2.56.03.1.03.26.03.42z"/><path d="m236.85 412.29c.042.871-.095 1.741-.404 2.557-.308.816-.78 1.56-1.387 2.185-.608.626-1.337 1.121-2.143 1.453-.806.333-1.672.496-2.544.48s-1.731-.21-2.525-.572c-.793-.361-1.504-.882-2.089-1.529-.584-.647-1.029-1.408-1.307-2.234-.279-.826-.384-1.701-.311-2.57 0-.16 0-.32 0-.48 4.155.488 8.336.725 12.52.71z"/><path d="m249.57 412.06c.073.869-.032 1.744-.311 2.57-.278.826-.723 1.587-1.307 2.234-.585.648-1.296 1.168-2.089 1.53-.794.361-1.653.556-2.525.571-.872.016-1.738-.147-2.544-.48-.806-.332-1.535-.827-2.143-1.452-.607-.626-1.079-1.37-1.387-2.186-.309-.816-.446-1.686-.404-2.557 4.241.011 8.479-.24 12.69-.75.01.17.02.35.02.52z"/><path d="m271.41 412.06c-1.49 3.33-5.94 5.25-9.74-3 .413.946.624 1.968.62 3 .07.878-.043 1.76-.331 2.592s-.745 1.595-1.343 2.242c-.597.647-1.322 1.163-2.128 1.516-.807.352-1.678.535-2.558.535s-1.751-.183-2.558-.535c-.806-.353-1.531-.869-2.128-1.516-.598-.647-1.055-1.41-1.343-2.242s-.401-1.714-.331-2.592c0-.18 0-.35 0-.53 4.077-.475 8.096-1.352 12-2.62 2.643-.837 5.162-2.025 7.49-3.53.504-.349.876-.857 1.058-1.442.181-.586.161-1.215-.058-1.788.31.6 2.78 6.73 1.35 9.91z"/><path d="m218.79 387.59c-4 12.54-6.73 21.43-6.73 21.43-.85-.28-1.62-.56-2.34-.84.859-.936 1.642-1.939 2.34-3 4.81-7.41 10.52-43.76 10.86-45.6s-.17 15.42-4.13 28.01z"/><path d="m229.75 365.71c-.25 2.57-3.19 30.1-3.61 46.09l-2-.22h-.15c2.01-15.58 6.01-48.76 5.76-45.87z"/><path d="m236.91 412.29h-.24-2c.78-17 1.77-46.38 1.93-51.5-.08 5.21-.6 34.84.31 51.5z"/><path d="m245.08 369.21c.58 1.5 1.56 26 5 42.25l-.54.07-1.38.16c-1.51-17.3-3.65-43.95-3.08-42.48z"/><path d="m263.39 408.26c-.56.22-1.16.437-1.8.65l-.31.1c-5.41-21-12.8-50.46-10.7-46.63 1.76 3.21 6.6 30.17 12.81 45.88z"/></g><path d="m342.83 480.55c0 .18-1.08 11.92-1.08 11.92s0 1.51-5 1.51-4.4-.66-6.44-.66-6.5 1.69-12 1.51-9.7-1.15-9.58-3.4.48-3.28 6.26-5.15 12-3.73 12.66-5.48l.64-1.75z" fill="#3d2c56"/><path d="m308.84 478.14c0 .18-1.08 11.92-1.08 11.92s0 1.51-5 1.51-4.4-.66-6.44-.66-6.5 1.69-12 1.51-9.7-1.15-9.58-3.4.48-3.28 6.26-5.15 12-3.73 12.66-5.48l.64-1.75z" fill="#3d2c56"/><path d="m312.16 319.58s-16.09 66.48-17.54 80.69-4.09 77.81-4.09 77.81l19.75 1.92s5.56-50.77 9.15-63.35 10.12-42.42 10.12-42.42l-15-51.52z" fill="#0078fa"/><path d="m363.9 245.69s2.54 5.74 0 31.5-5.44 39-5.44 47.57 1.45 26.85 0 38.89-8.43 51.55-9.15 56.13-5.63 63-5.63 63l-18.94-1.78s-2.9-114-5.74-123.37-4.92-14.45-6.74-21.2 3-56.37 4.1-64.32l1.08-7.95 13.43-29.37 15.2-9.48 11.47 6.07 5 7.38z" fill="#1c8ff7"/><path d="m329.61 254.41-2.35 6.59 1.72 9.39-2.26 17.76s1.87 20.3 11.62 20.3 15.06-5.78 16.74-17.59c1.428-8.817 3.348-17.547 5.75-26.15l-25.74-15z" fill="#d65050"/><path d="m352.65 227.4c2.522 1.806 4.839 3.881 6.91 6.19 2.3 2.89 4.16 7.77 4.25 9.94l.09 2.17s-2.08-10.58-7.27-12.45c-3.263-1.05-6.723-1.337-10.114-.84-3.391.498-6.623 1.767-9.446 3.71-6.87 4.52-11.49 10.58-13.05 16.25s-2.29 10.48-3.73 11.8c-.394.363-.909.565-1.445.565s-1.052-.202-1.445-.565c0 0 5.87-20.14 9.33-24.93s4.11-6 4.11-6l16.9-7z" fill="#ff6b6b"/><path d="m349.85 225.62c.926.366 1.805.839 2.62 1.41l.18.36s-7.68 0-15.9 6.14-10 7.32-10 7.32l6.25-11.55z" fill="#d65050"/><path d="m357.07 196.56.83 1.52c.316 2.446.316 4.923 0 7.37-.55 3.43-5.07 12.37-6.06 13.23-.265.248-.602.404-.962.445-.36.042-.724-.034-1.038-.215l-11.19-7.91s-6.5-6.32-6.68-7.23-3-6.75-3-7.17 28.1-.04 28.1-.04z" fill="#3d2c56"/><path d="m329.61 219.72 2.33 2.57.92 2.94s8.58.45 8.67-.72 2.35-7.23 2.35-8-3.16-4.52-3.43-4.43-10.84 7.64-10.84 7.64z" fill="#c66f7e"/><path d="m321.57 199.3s.09 2.71 0 3.88-3.07 4.25-2.8 5.06 2.84 2.08 2.84 2.08 2.31 10.12 4.48 12.38 12.44-3.25 13.95-4.52l1.5-1.26c-1.129 1.962-2.634 3.682-4.43 5.06-1.476 1.004-2.895 2.089-4.25 3.25l.09 4.07-2.81 7.23s11.66-8.13 14.64-9.21 5.06-1.68 5.06-1.68v-6.72s-5.15-8.4-5.33-10l-.18-1.63c.736-.484 1.282-1.207 1.547-2.047.264-.84.23-1.745-.097-2.563-1.08-3.07-4.34-1.63-5.33 0s-.54 2.89-1.17 3.25-1.36.81-1.9 0-.09-2.53-.9-3.34-3.48-1.09-3.61-3.25l-.13-2.17z" fill="#fb919f"/><path d="m358.34 198s-13 1.26-19 1.26-18.37-4-18.37-4-1.45-22.22 18.67-22.22c25.2.07 18.7 24.96 18.7 24.96z" fill="#1c8ff7"/><path d="m337.86 199.23s-15.3-6.23-16.81-7-12.58 2.88-12.58 4.08 4.22 4.34 6.74 4.58 22.65-1.66 22.65-1.66z" fill="#ff6b6b"/><path d="m325.46 215.2 6.14-.81s-1.26 3-3.07 3.43-3.07-2.62-3.07-2.62z" fill="#fff"/><path d="m322.33 273.2-6-1.09-2.44 23.89c.809.3 1.681.386 2.533.25.851-.137 1.653-.492 2.327-1.03 2.13-1.91 3.58-22.02 3.58-22.02z" fill="#0078fa"/><path d="m297.69 349.32 8.47-2.55c.268-.08.517-.212.733-.389.217-.177.396-.395.528-.641s.214-.516.241-.794c.028-.278 0-.559-.082-.826l-4.72-15.67c-.08-.268-.212-.517-.389-.733-.177-.217-.394-.396-.641-.528-.246-.132-.516-.214-.794-.241-.278-.028-.559 0-.826.082l-12.93 3.9c-.316.093-.605.259-.845.484-.241.225-.425.502-.54.811-.114.308-.156.639-.12.967.036.327.147.641.325.918l9.18 14.33c.25.39.622.687 1.057.846s.91.171 1.353.034z" fill="#533a71"/><path d="m273.48 224.06c2.372-.719 4.863-.963 7.33-.719 2.467.245 4.861.974 7.046 2.145 2.184 1.172 4.117 2.762 5.686 4.681s2.744 4.129 3.458 6.503v.15l23.79 79c.364 1.224.229 2.542-.377 3.667-.605 1.124-1.631 1.963-2.853 2.333l-25.91 7.81-.93.28c-1.224.364-2.542.229-3.667-.377-1.124-.605-1.963-1.631-2.333-2.853l-23.84-79.12c-.716-2.37-.959-4.859-.713-7.323.245-2.464.974-4.855 2.144-7.037 1.17-2.183 2.759-4.113 4.675-5.681 1.917-1.569 4.123-2.744 6.494-3.459z" fill="#5ecccd"/><path d="m276.84 226.25c8.6-2.59 17.93 3.16 20.85 12.83v.15l23.11 76.69c.403 1.106.352 2.327-.143 3.395-.494 1.069-1.392 1.897-2.497 2.305l-22.35 6.73-.8.24c-1.146.271-2.352.077-3.354-.54-1.003-.617-1.721-1.605-1.996-2.75l-23.15-76.84c-2.88-9.68 1.73-19.62 10.33-22.21z" fill="#46b2af"/><path d="m269.027 284.63-116.314 35.051c-.725.213-1.505.132-2.171-.227-.665-.359-1.162-.966-1.383-1.689l-27.959-92.779c-.574-1.904-.367-3.959.573-5.711.941-1.753 2.54-3.06 4.444-3.634l107.438-32.376c1.905-.574 3.959-.368 5.712.573 1.752.941 3.059 2.54 3.633 4.444l27.959 92.779c.219.729.141 1.515-.219 2.186-.361.67-.972 1.171-1.701 1.39z" fill="#46b2af"/><path d="m146.22 373.446 150.658-45.4-14.314-47.5-150.658 45.4z" fill="#46b2af"/><path d="m271.772 283.795-121.809 36.707-3.786-12.562c-.105-.348-.067-.723.105-1.043s.464-.559.812-.664l119.185-35.916c.348-.105.724-.067 1.044.104.32.172.559.464.664.812z" fill="#5ecccd"/><path d="m115.57 271.64c4.786-1.44 9.948-.921 14.351 1.444 4.403 2.364 7.687 6.381 9.129 11.166v.15l23.79 79c.364 1.224.229 2.542-.377 3.667-.605 1.124-1.631 1.963-2.853 2.333l-25.91 7.81-.93.28c-1.224.364-2.542.229-3.667-.377-1.124-.605-1.963-1.631-2.333-2.853l-23.77-79.14c-1.442-4.78-.928-9.938 1.429-14.34 2.356-4.402 6.363-7.689 11.141-9.14z" fill="#5ecccd"/><path d="m118.93 273.82c8.6-2.59 17.93 3.16 20.85 12.83v.15l23.11 76.69c.404 1.106.352 2.327-.143 3.395-.494 1.069-1.392 1.897-2.497 2.305l-22.35 6.73-.8.24c-1.146.271-2.352.076-3.354-.54-1.003-.617-1.721-1.606-1.996-2.75l-23.11-76.87c-2.91-9.64 1.69-19.59 10.29-22.18z" fill="#46b2af"/><path d="m315.616 328.118-178.223 53.707-1.581-5.247 178.721-53.857 1.443 4.788c.028.128.007.262-.06.375s-.174.197-.3.234z" fill="#533a71"/><path d="m163.5 389.75-8.5 2.56c-.267.081-.548.109-.826.082s-.548-.109-.794-.241c-.247-.132-.464-.311-.641-.528-.177-.216-.309-.465-.389-.733l-4.72-15.67c-.082-.267-.109-.548-.082-.826s.109-.548.241-.794c.132-.247.311-.464.528-.641.216-.177.465-.309.733-.389l12.93-3.9c.315-.096.648-.118.972-.063.325.054.632.184.898.378s.483.447.634.74c.151.292.232.616.236.945l.26 17c.013.46-.125.912-.392 1.288-.267.375-.649.653-1.088.792z" fill="#533a71"/><path d="m137.2 476.09s4 5.24 8.67 6.32 15.54-1.26 17.34 1.26 0 5.6-1.63 6.32-25.66 5.6-31.44 5.42l-5.78-.18-1.81-14.58z" fill="#3d2c56"/><path d="m50.66 474.28s-1.26 2.17 1.26 7 11.05 6.87 11.31 9.94-2.46 3.81-7.51 4.16-12.65 0-16.62-3.62-7-3.5-8.85-6.9-1.63-5.75-1.08-5.93 8.67-12.47 8.67-12.47z" fill="#3d2c56"/><path d="m91.79 379.93s-3.37 23.68-8.19 35.15-28.18 62-28.18 62-9.42 1.47-15.42-2.44-5.3-6.1-5.3-6.1 21.88-63.22 24.19-73.48-1.55-38.61 0-48.33c.8172-4.633 1.3914-9.307 1.72-14z" fill="#0078fa"/><path d="m83.36 256.14c2.4004 3.468 3.7684 7.546 3.9454 11.76.177 4.215-.8443 8.393-2.9454 12.05-2.77 4.65-7.13 8.07-11 11.89s-7.35 8.49-7.62 13.89c-.29 5.74 3.17 11.25 2.57 17-.2773 2.212-1.1399 4.309-2.4988 6.076s-3.1648 3.139-5.2312 3.974c0-1.25 0-2.57 0-4-.3652-14.384-2.0523-28.705-5.04-42.78-3.18-15.28.78-30.15 3.35-37.92.747-.254 1.5083-.465 2.28-.63 4.1419-.797 8.425-.404 12.3525 1.134s7.3385 4.158 9.8375 7.556z" fill="#0078fa"/><path d="m67.19 235.17 4.31-1.78 17.07 6.2 10.93 24.82s1.93 60.46 2.66 68.05 20.59 50.23 26.37 64.68 12.29 79.13 12.29 79.13l-19.51 6.14-20.56-78.77s-27.51-34.64-35.09-46.64c-6.63-10.43-5.26-15.6-5-24.29 2.0664-.835 3.8723-2.207 5.2312-3.974s2.2215-3.864 2.4988-6.076c.6-5.72-2.86-11.22-2.57-17 .27-5.4 3.79-10.08 7.62-13.89s8.19-7.24 11-11.89c2.1625-3.635 3.2201-7.821 3.0438-12.048-.1762-4.226-1.5788-8.31-4.0365-11.752-2.4577-3.443-5.8642-6.096-9.8041-7.635-3.9398-1.54-8.2426-1.899-12.3832-1.035-.7717.165-1.533.376-2.28.63.5-1.51 1-2.78 1.29-3.7 1.4559-3.614 3.8436-6.778 6.92-9.17z" fill="#1c8ff7"/><path d="m88.56 239.59c1.3649 2.773 2.8839 5.467 4.55 8.07 3.89 6.34 6.39 16.75 6.39 16.75s-.84.84-2.89-3.49-7.83-19.51-15.18-23c-4.4436-2.098-9.3451-3.041-14.25-2.74l4.95-4.31h4.49l7.94 4.31z" fill="#ff6b6b"/><path d="m94 186.63c-1.61 1.39-2.3 3.55-3.63 5.2-1.79 2.22-4.62 3.35-7.42 3.91-4.6684.914-9.4991.509-13.95-1.17l.36-.87c2.89-6.38 7.47-3.61 12.77-4.34s9.88-4.1 13.13-5.3c1.48-.55 2.28.06 2.93 1.23-.7522-.064-1.5097.022-2.2287.252-.7191.23-1.3856.6-1.9613 1.088z" fill="#533a71"/><path d="m82.93 195.74c2.8-.56 5.63-1.69 7.42-3.91 1.34-1.65 2-3.81 3.63-5.2.5814-.491 1.2549-.862 1.9811-1.091.7263-.228 1.4908-.309 2.2489-.239.78 1.41 1.32 3.65 2.52 5.75 2.2 3.85 6 2.53 5.51 8.91-.032 1.709-.67 3.351-1.8 4.633s-2.679 2.121-4.37 2.367c0 0-23.82 11.21-24.66 11.73s-3-2.63-6-6.67c-2.85-3.86-2.89-11.22-.36-17.44 4.4304 1.663 9.2351 2.064 13.88 1.16z" fill="#3d2c56"/><path d="m87.3 234.78v-6.84l-8.72-9.26h-3.17l-1.54 4.47.81 6.14s5 4.07 5.33 4.07 7.28 1.81 7.28 1.81z" fill="#c66f7e"/><path d="m100.72 202.36s-2.28 16.81-3.29 20.05-6.08 7.3-8.86 7.81-6.08-1.77-9.12-5.32l-3-3.55s1 5.71 4.05 8.93c1.9187 1.986 4.2552 3.519 6.84 4.49l1.27 4.81s-11.65-8.1-15.45-8.36l-1-.38s1.23-7.69 1-10.92l-.16-3.22s-3.42-3-2.28-7.22 4.08.76 4.08.76 1 .09 1.23-.19-.38-3.32.57-4.27 3.23-2.09 3.7-4.37.28-2.75 1.14-3.42 11.68.38 13.87 0 5.69 2.29 5.41 4.37z" fill="#fb919f"/><path d="m99.5 275.12h-9.27s.36 22 2.77 24 7.74 1.08 7.74 1.08v-25.08z" fill="#0078fa"/><path d="m57.88 282.51c-.5244-2.441-.9216-4.908-1.19-7.39l6.54 1.55c-.11 1 8.32 15.87 8.32 15.87-4.71-3.79-12.22-3.46-13.67-10.03z" fill="#d65050"/><path d="m81.85 310.6-.06-.07c-3.85-4.81-7.11-13.53-7.11-13.53l15.54-6.26 4 7.33c-3.1388 5.046-7.3651 9.327-12.37 12.53z" fill="#c66f7e"/><path d="m94.25 298.11 1.24 2.25 29.19 32.38s6.11-.82 7 .31 1.81 3.3 3.3 4.2 1.36 1.58 0 1.81-3-1.81-3.88-1.72-1.17.09-1.17.09 1.72 4.38 2.48 5.19 4.92 1.85 5.47 2.62.86 1.54.36 1.85-13.32 1.13-16.4-.45-4.38-8.9-4.38-8.9-31.54-22.2-35.61-27.14c5.0115-3.189 9.2478-7.456 12.4-12.49z" fill="#fb919f"/><path d="m56.69 275.13c-.9-8-.68-16.23.22-20.28 1.18-5.33 3-14.65 13.92-12.12 10.36 2.41 11.82 12 12.78 16.38s10 32.26 9.62 33-18.55 8.25-18.55 8.25-11.56-22.71-11.45-23.68z" fill="#ff6b6b"/><path d="m84.39 222.44s1.2 3.11 3.49 3.5 3.36-2.17 3.36-2.17l.05-.25z" fill="#fff"/><path d="m321.47 296 4.91-12.3 19.64 2.8s-6 13.38-10.8 21.62c-3.917-2.311-7.492-5.158-10.62-8.46-1.1-1.2-2.13-2.43-3.13-3.66z" fill="#c66f7e"/><path d="m270.68 333.46c1.06-1.6 5.86-3.48 8.79-4.74s7.92-1.49 7.92-1.49l32.15-26.39 1.94-4.87c1 1.25 2 2.49 3.13 3.65 3.128 3.302 6.703 6.149 10.62 8.46-1.66 2.85-3.17 5.08-4.25 5.94-4.18 3.33-30.88 16.24-30.88 16.24s-6.39 8.52-9.18 10.12-13.18 2-13.18 2c-.628.537-1.434.822-2.26.8-1.46 0-2.47-2.38-2.47-2.38s6.49-5.25 6.2-6.67-1.86 0-4.53.8-5.07.13-4-1.47z" fill="#fb919f"/><path d="m352.65 238.39c-11.48-4.75-22 4.18-23.67 12.39s-1.72 10.22-1.72 10.22l6.14-8.19-10.24 32.64c4.022 3.402 8.621 6.054 13.58 7.83 7.62 2.53 11 2.53 11 2.53s13-27.46 13.73-33.85-.66-20.2-8.82-23.57z" fill="#ff6b6b"/><path d="m321.39 323.22c-5.453 0-10.682 2.166-14.538 6.022s-6.022 9.085-6.022 14.538v90.13c0 1.398.555 2.738 1.544 3.726.988.989 2.328 1.544 3.726 1.544h30.57c1.398 0 2.738-.555 3.726-1.544.989-.988 1.544-2.328 1.544-3.726v-90.13c0-5.451-2.165-10.679-6.018-14.535-3.854-3.855-9.081-6.022-14.532-6.025z" fill="#a0e8e6"/><path d="m318.57 326.56c-9.79 0-17.73 8.94-17.73 20v87.54c-.071 1.281.367 2.539 1.22 3.498.852.959 2.049 1.542 3.33 1.622h26.37c1.281-.08 2.478-.663 3.33-1.622.853-.959 1.291-2.217 1.22-3.498v-87.57c-.01-11.03-7.95-19.97-17.74-19.97z" fill="#5ecccd"/><path d="m359.85 268.06h319.44c2.355-.001 4.687.462 6.862 1.364 2.176.901 4.152 2.223 5.816 3.889 1.664 1.667 2.982 3.645 3.88 5.822s1.357 4.51 1.352 6.865v85.83c0 3.522-1.399 6.9-3.89 9.39-2.49 2.491-5.868 3.89-9.39 3.89h-328.69c-3.522 0-6.9-1.399-9.39-3.89-2.491-2.49-3.89-5.868-3.89-9.39v-85.83c0-4.747 1.886-9.3 5.243-12.657s7.91-5.243 12.657-5.243z" fill="#1c8ff7"/><path d="m717.75 385.07h-388.1v54.11h388.1z" fill="#1c8ff7"/><path d="m343.32 369.26h352.5c.363 0 .712.144.969.401s.401.606.401.969v14.44h-355.24v-14.44c0-.363.144-.712.401-.969s.606-.401.969-.401z" fill="#58afff"/><path d="m309.53 439.18h420.08v6h-419.55c-.138 0-.27-.055-.368-.152-.097-.098-.152-.23-.152-.368v-5.45z" fill="#1c8ff7"/><path d="m334.15 461.67h-9.65c-.615 0-1.205-.244-1.641-.68-.435-.435-.679-1.025-.679-1.64v-17.85c0-.615.244-1.205.679-1.641.436-.435 1.026-.679 1.641-.679h14.73c.364-.002.723.082 1.049.244.325.163.608.4.825.692s.362.631.424.989c.062.359.039.727-.068 1.075l-5.08 17.82c-.141.482-.434.906-.836 1.207-.403.301-.892.464-1.394.463z" fill="#1c8ff7"/></g></svg>