<svg fill="none" height="540" viewBox="0 0 387 540" width="387" xmlns="http://www.w3.org/2000/svg" xmlns:xlink="http://www.w3.org/1999/xlink"><clipPath id="a"><path d="m0 0h387v540h-387z"/></clipPath><g clip-path="url(#a)"><path d="m321.42 269.14c-25.42 7.91-46.42 26.49-62.42 47.86s-27.5 45.6-39.7 69.29-25.39 47.31-44 66.44c-24.3 25-57.06 41.22-91.35 47.67-27.7 5.22-56.34 4.27-83.9999878-1.4v41h387.0499878v-262.79c-18.62-12.57-43.83-14.84-65.58-8.07z" fill="#fff8fa"/><path d="m53.66 109.7c17 18.82 30.55 41.32 51.48 55.64 26.06 17.83 62.06 19.9 90 5.17 40.76-21.51 58.86-71.35 97.07-97.16 27.41-18.53 64.12-21.8 94.79-9.75v-63.6h-387v78.81c20.36 1.36 39.53 15.19 53.66 30.89z" fill="#ff6b6b"/><path d="m292.21 73.35c-38.21 25.81-56.31 75.65-97.08 97.17-27.93 14.73-63.94 12.66-90-5.17-20.92-14.35-34.48-36.83-51.47-55.65-14.13-15.7-33.3-29.53-53.66-30.89v420.19c27.65 5.67 56.29 6.62 84 1.4 34.29-6.46 67.05-22.63 91.35-47.67 18.56-19.13 31.75-42.74 44-66.44s23.65-47.96 39.65-69.29 37-39.92 62.42-47.84c21.75-6.76 47-4.49 65.58 8.07v-213.63c-30.67-12.04-67.38-8.78-94.79 9.75z" fill="#fcbed2"/><path d="m230.83 326.16v12.84h-2.41v1.7h43.91c1.894 0 3.71-.752 5.049-2.091s2.091-3.155 2.091-5.049v-2c0-1.894-.752-3.71-2.091-5.049s-3.155-2.091-5.049-2.091h-43.91v1.7z" fill="#2c367c"/><path d="m230.83 326.16v12.84h40c1.942.032 3.822-.684 5.25-2 .334-.319.626-.678.87-1.07.494-.77.757-1.665.76-2.58v-1.56c-.003-.915-.266-1.81-.76-2.58-.244-.392-.536-.751-.87-1.07-1.428-1.316-3.308-2.032-5.25-2z" fill="#fff"/><g fill="#859dc5" opacity=".5"><path d="m230.83 328.15v1.07h46.09c-.244-.392-.536-.751-.87-1.07z" opacity=".5"/><path d="m277.69 332.05h-46.86v1.07h46.86z" opacity=".5"/><path d="m230.83 335.95v1.05h45.17c.334-.319.626-.678.87-1.07z" opacity=".5"/></g><path d="m232.17 314.65h49.27c.235 0 .468.046.685.136s.415.222.581.388.298.364.388.581.136.45.136.685v6.25c0 .235-.046.468-.136.685s-.222.414-.388.581c-.166.166-.364.298-.581.388s-.45.136-.685.136h-49.27c-.472 0-.925-.188-1.259-.521-.333-.334-.521-.787-.521-1.259v-6.25c0-.472.188-.925.521-1.259.334-.334.787-.521 1.259-.521z" fill="#ff6b6b"/><path d="m278.76 314.65h-5.18v9.82h5.18z" fill="#2c367c"/><path d="m271.38 314.65h-1.55v9.82h1.55z" fill="#2c367c"/><path d="m277.68 313.47v-4.27c0-.67-.8-1.22-1.79-1.22h-49.26c-1 0-1.79.55-1.79 1.22v4.27c0 .67.8 1.22 1.79 1.22h49.27c.98 0 1.78-.55 1.78-1.22z" fill="#2c367c"/><path d="m234.49 307.98h-5.18v6.71h5.18z" fill="#e6ebf6"/><path d="m238.24 307.98h-1.55v6.71h1.55z" fill="#e6ebf6"/><path d="m173.2 156.69h-146.35c-.8174 0-1.48.663-1.48 1.48v1.54c0 .817.6626 1.48 1.48 1.48h146.35c.817 0 1.48-.663 1.48-1.48v-1.54c0-.817-.663-1.48-1.48-1.48z" fill="#ff6b6b"/><path d="m173.2 309.83h-146.35c-.8174 0-1.48.662-1.48 1.48v1.54c0 .817.6626 1.48 1.48 1.48h146.35c.817 0 1.48-.663 1.48-1.48v-1.54c0-.818-.663-1.48-1.48-1.48z" fill="#ff6b6b"/><path d="m169.75 161.19h-139.96v148.64h139.96z" fill="#fff8fa"/><path d="m41.51 179.39s1.79 19.12 2.8 19.12 17.92-1 18.2-2-2-17.37-2.48-18.11-13.61-.48-18.52.99z" fill="#fcbed2"/><path d="m51.2 183.43c.7622 0 1.38-.618 1.38-1.38s-.6178-1.38-1.38-1.38c-.7621 0-1.38.618-1.38 1.38s.6179 1.38 1.38 1.38z" fill="#ff6b6b"/><path d="m46.84 279.94s1.79 19.12 2.8 19.12 17.92-1 18.2-2-2-17.37-2.48-18.11-13.6-.48-18.52.99z" fill="#ff6b6b"/><path d="m56.54 283.99c.7622 0 1.38-.618 1.38-1.38s-.6178-1.38-1.38-1.38c-.7621 0-1.38.618-1.38 1.38s.6179 1.38 1.38 1.38z" fill="#fff"/><path d="m83.49 184.81c.7622 0 1.38-.618 1.38-1.38s-.6178-1.38-1.38-1.38c-.7621 0-1.38.618-1.38 1.38s.6179 1.38 1.38 1.38z" fill="#fff"/><path d="m83.49 185c-.3164 0-.6258-.094-.8889-.27-.2631-.175-.4682-.425-.5893-.718-.1211-.292-.1528-.614-.091-.924.0617-.31.2141-.596.4378-.819.2238-.224.5089-.376.8193-.438.3103-.062.632-.03.9244.091s.5423.326.7181.589.2696.573.2696.889c0 .424-.1686.831-.4686 1.131-.3001.3-.707.469-1.1314.469zm0-2.76c-.2294 0-.4537.068-.6445.196-.1907.127-.3394.308-.4272.52s-.1108.445-.066.67.1552.432.3175.594c.1622.163.3689.273.5939.318s.4583.022.6702-.066c.212-.088.3932-.237.5206-.427.1275-.191.1955-.416.1955-.645-.0078-.302-.1335-.59-.3502-.801s-.5073-.329-.8098-.329z" fill="#000"/><path d="m75.1 178s-.92 9.31-.83 14.36-.64 5.15.83 5.61 13.88 2.21 14.34 1.56 2.67-18.66 1.75-19.4-16.03-2.73-16.09-2.13z" fill="#ff6b6b"/><path d="m141.75 207.79h-21.14s-2.88-15.93-2.44-25.74c0-1 .12-1.92.24-2.76h22.06s-.14 1-.27 2.76c-.476 5.478-.385 10.991.27 16.45z" fill="#fcbed2"/><path d="m140.46 179.3s-.14 1-.27 2.76h-22c0-1 .12-1.92.24-2.76z" fill="#ff6b6b"/><path d="m128.94 188.25c.95 0 1.72-.77 1.72-1.72s-.77-1.72-1.72-1.72-1.72.77-1.72 1.72.77 1.72 1.72 1.72z" fill="#ff6b6b"/><path d="m111.6 216v50.35c0 .379-.151.743-.419 1.011s-.632.419-1.011.419h-67.23c-.3792 0-.743-.151-1.0112-.419-.2681-.268-.4188-.632-.4188-1.011v-48.2c.0013-.916.3534-1.796.984-2.46.6305-.664 1.4916-1.062 2.406-1.11h65.39c.231.021.453.097.648.223.195.125.357.296.472.497.122.213.188.454.19.7z" fill="#fcbed2"/><path d="m111.6 216v10.2h-70.09v-7.11c0-2.42 1.5-4.4 3.39-4.52h65.39c.206.027.403.1.576.215.173.114.318.266.424.445l.14.06c.117.218.176.462.17.71z" fill="#ff6b6b"/><path d="m116.1 223.79h-66.92s.76-5.27-2.14-8.06c-.3792-.369-.8233-.664-1.31-.87h63.84c.577-.004 1.151.084 1.7.26 4.54 1.46 4.83 8.67 4.83 8.67z" fill="#fcbed2"/><g fill="#ff6b6b"><path d="m75.1 259.73h-23.8c-.7268 0-1.4243-.287-1.9411-.798-.5167-.511-.811-1.205-.8189-1.932v-25.12c0-.146.058-.286.1611-.389s.243-.161.3889-.161.2858.058.3889.161c.1032.103.1611.243.1611.389v25.12c.0026.437.1773.855.4862 1.164.3088.309.727.483 1.1638.486h23.81c.1459 0 .2858.058.3889.161.1032.103.1611.243.1611.389s-.0579.286-.1611.389c-.1031.103-.243.161-.3889.161z"/><path d="m59.75 257.66c-.1459 0-.2857-.058-.3889-.161-.1031-.104-.1611-.243-.1611-.389-.0026-1.999-.7979-3.915-2.2113-5.329-1.4135-1.413-3.3298-2.209-5.3287-2.211-.1459 0-.2857-.058-.3889-.161-.1031-.104-.1611-.243-.1611-.389s.058-.286.1611-.389c.1032-.103.243-.161.3889-.161 2.2907.002 4.4868.914 6.1065 2.533 1.6197 1.62 2.5309 3.816 2.5335 6.107 0 .146-.0579.285-.1611.389-.1031.103-.243.161-.3889.161z"/><path d="m54 247.32c-.1021 0-.2022-.029-.2891-.082-.0869-.054-.1571-.131-.2028-.222-.0457-.092-.065-.194-.0559-.296.0092-.101.0465-.198.1078-.28l10-13.6c.0427-.059.0965-.108.1583-.146.0618-.037.1304-.063.2019-.074s.1445-.008.2148.009.1366.048.195.091c.0585.042.1079.096.1456.158.0376.062.0627.13.0739.202.0111.071.0081.144-.009.215-.0171.07-.0478.136-.0905.195l-10 13.6c-.0511.071-.1187.13-.197.17s-.1651.06-.253.06z"/><path d="m59 251c-.1181.003-.234-.032-.3306-.1s-.1687-.165-.2057-.278c-.037-.112-.037-.233.0002-.345s.1094-.209.2061-.277l3.72-2.76c.118-.088.266-.125.4113-.103.1454.021.2762.1.3637.218s.1246.266.103.411c-.0216.146-.1.276-.218.364l-3.72 2.76c-.0952.071-.211.11-.33.11z"/><path d="m76.55 254.86h-14.45c-.1459 0-.2857-.058-.3889-.161-.1031-.103-.1611-.243-.1611-.389s.058-.286.1611-.389c.1032-.103.243-.161.3889-.161h14.45c.1459 0 .2858.058.3889.161.1032.103.1611.243.1611.389s-.0579.286-.1611.389c-.1031.103-.243.161-.3889.161z"/><path d="m103.27 228.75h-23.71c-.3811 0-.69.309-.69.69v.73c0 .381.3089.69.69.69h23.71c.381 0 .69-.309.69-.69v-.73c0-.381-.309-.69-.69-.69z"/><path d="m90.73 233.39h-11.17c-.3811 0-.69.309-.69.69v.73c0 .381.3089.69.69.69h11.17c.3811 0 .69-.309.69-.69v-.73c0-.381-.3089-.69-.69-.69z"/></g><path d="m105.53 264.14h-55.61c-.2201 0-.4312-.088-.5869-.243-.1556-.156-.2431-.367-.2431-.587s.0875-.432.2431-.587c.1557-.156.3668-.243.5869-.243h55.61c.22 0 .431.087.587.243.156.155.243.367.243.587s-.087.431-.243.587c-.156.155-.367.243-.587.243z" fill="#fff8fa"/><path d="m103.07 234.45h-3.58c-1.1045 0-2 .895-2 2v5.84c0 1.104.8955 2 2 2h3.58c1.105 0 2-.896 2-2v-5.84c0-1.105-.895-2-2-2z" fill="#fff8fa"/><path d="m157.39 221.49h-28.15c-2.077 0-3.76 1.683-3.76 3.76v36.77c0 2.077 1.683 3.76 3.76 3.76h28.15c2.077 0 3.76-1.683 3.76-3.76v-36.77c0-2.077-1.683-3.76-3.76-3.76z" fill="#ffd7e2"/><path d="m321 340.55v3.5c0 .547-.217 1.071-.603 1.457-.387.386-.911.603-1.457.603h-272.69c-.5463 0-1.0703-.217-1.4566-.603-.3864-.386-.6034-.91-.6034-1.457v-3.5c0-.546.217-1.07.6034-1.456.3863-.387.9103-.604 1.4566-.604h272.75c.546 0 1.07.217 1.457.604.386.386.603.91.603 1.456z" fill="#ff6b6b"/><path d="m321 340.55v.75h-276.82v-.75c-.0032-.453.1429-.894.4159-1.256s.6575-.623 1.0941-.744h273.81c.435.123.817.385 1.088.747.271.361.416.801.412 1.253z" fill="#fff"/><path d="m312.94 346.11-1.67 3.71h-258.69l-1.67-3.71z" fill="#533a71"/><path d="m70 347.73-13.19 116.15c-.0662.583-.3443 1.121-.7813 1.512-.437.39-1.0024.607-1.5887.608h-1c-.3287 0-.6539-.069-.955-.2-.3012-.132-.572-.325-.7953-.566-.2234-.241-.3946-.526-.503-.836-.1083-.311-.1514-.64-.1267-.968l8.94-115.7z" fill="#533a71"/><path d="m295.06 347.73 13.18 116.16c.066.583.344 1.121.781 1.512.437.39 1.003.607 1.589.608h1c.329 0 .654-.068.955-.2s.572-.325.795-.566c.224-.241.395-.526.503-.836.109-.311.152-.64.127-.968l-8.99-115.71z" fill="#3d2c56"/><path d="m123.13 338.49-12.7-69.83c-.085-.463-.067-.939.052-1.395.12-.455.338-.879.64-1.241.301-.361.679-.652 1.105-.852.427-.199.892-.302 1.363-.302h86.17c.737 0 1.45.254 2.022.718.572.465.967 1.111 1.118 1.832l15.1 71.07z" fill="#533a71"/><path d="m127.26 337.85-12.48-68.61c-.082-.455-.063-.923.055-1.37.119-.447.334-.862.631-1.217.296-.355.667-.64 1.086-.836s.876-.297 1.338-.297h84.67c.723 0 1.425.248 1.987.703.563.455.952 1.09 1.103 1.797l14.83 69.83z" fill="#fff"/><path d="m221.27 338.49h-94.54l-.1-.53-12.48-68.61c-.1-.548-.078-1.111.064-1.649s.401-1.039.758-1.466c.356-.428.803-.771 1.307-1.007s1.054-.358 1.611-.358h84.67c.869.003 1.711.301 2.387.847.676.545 1.147 1.305 1.333 2.153zm-93.48-1.28h91.89l-14.68-69.06c-.121-.564-.43-1.069-.878-1.433-.447-.364-1.005-.564-1.582-.567h-84.65c-.372-.001-.74.081-1.077.239s-.634.389-.871.676c-.237.286-.408.622-.5.983-.092.36-.103.737-.032 1.102z" fill="#533a71"/><path d="m262.7 332.87h-134.32c-2 0-3.57 1.26-3.57 2.81s1.6 2.81 3.57 2.81h134.32c2 0 3.57-1.26 3.57-2.81 0-1.56-1.6-2.81-3.57-2.81z" fill="#533a71"/><path d="m158.22 275.79 10.55 48.59c.078.359.276.681.561.912.286.231.642.357 1.009.358h39.26c.245.001.488-.054.709-.16.22-.107.414-.263.565-.456.152-.193.257-.418.308-.658.052-.24.047-.488-.012-.726l-11-48.59c-.081-.355-.281-.672-.566-.899-.286-.228-.639-.351-1.004-.351h-38.81c-.243 0-.483.054-.702.16-.219.105-.412.259-.563.45-.151.19-.257.413-.31.65-.052.237-.051.483.005.72z" fill="#b6d4ff"/><path d="m151.63 290h-25.89c-.369-.001-.726-.129-1.012-.362-.285-.233-.482-.557-.558-.918l-2.71-12.95c-.049-.234-.045-.476.011-.708s.163-.449.313-.635c.151-.185.34-.335.556-.439.215-.103.451-.157.69-.158h25.84c.368-.001.725.125 1.011.356s.483.554.559.914l2.76 12.95c.051.235.048.478-.007.711-.055.234-.162.452-.313.639-.15.187-.34.338-.557.441-.216.104-.453.159-.693.159z" fill="#5ecccd"/><path d="m154 301.14h-25.92c-.369-.001-.726-.129-1.011-.362-.286-.233-.483-.557-.559-.918l-.57-2.71c-.049-.234-.045-.475.011-.708.056-.232.163-.449.313-.635.151-.185.34-.335.556-.439.215-.103.451-.157.69-.158h25.92c.367.001.723.127 1.009.358.285.231.483.553.561.912l.58 2.71c.051.236.048.479-.008.714-.055.234-.163.453-.315.64-.151.187-.343.338-.561.441-.217.103-.455.156-.696.155z" fill="#ffd7e2"/><path d="m159.23 325.64h-26c-.369-.001-.726-.129-1.012-.362-.285-.233-.482-.557-.558-.918l-3.4-16.26c-.049-.234-.045-.476.011-.708s.163-.449.313-.635c.151-.185.34-.335.556-.439.215-.103.451-.157.69-.158h26c.367.001.723.127 1.009.358.285.231.483.553.561.912l3.47 16.26c.052.241.049.49-.011.729-.059.238-.172.461-.33.649-.159.188-.358.338-.583.437s-.47.145-.716.135z" fill="#ffd7e2"/><path d="m139.58 347.73 13.18 116.16c.066.583.344 1.121.781 1.512.437.39 1.003.607 1.589.608h1c.329 0 .654-.068.955-.2s.572-.325.795-.566c.224-.241.395-.526.503-.836.109-.311.152-.64.127-.968l-8.94-115.7z" fill="#533a71"/><path d="m225.47 347.73-13.18 116.15c-.066.583-.344 1.121-.781 1.512-.437.39-1.003.607-1.589.608h-1c-.329 0-.654-.069-.955-.2-.301-.132-.572-.325-.795-.566-.224-.241-.395-.526-.503-.836-.109-.311-.152-.64-.127-.968l8.94-115.7z" fill="#3d2c56"/><path d="m387 465.18h-387v74.82h387z" fill="#ff6b6b"/><path d="m109.25 324.89h-42.01l-9.54-28.15h42.01z" fill="#ff6b6b"/><path d="m97 313.3h31c2.48 0 4.858.985 6.611 2.739 1.754 1.753 2.739 4.131 2.739 6.611v12.57c0 .44-.087.876-.255 1.282s-.415.776-.726 1.087-.681.558-1.087.726-.842.255-1.282.255h-37c-.4399 0-.8755-.087-1.282-.255-.4064-.168-.7757-.415-1.0868-.726s-.5578-.681-.7262-1.087c-.1683-.406-.255-.842-.255-1.282v-18.57c0-.888.353-1.741.9812-2.369.6283-.628 1.4803-.981 2.3688-.981z" fill="#fcbed2"/><path d="m84.93 313.3h35.32c2.48 0 4.858.985 6.611 2.739 1.754 1.753 2.739 4.131 2.739 6.611v12.57c0 .44-.087.876-.255 1.282s-.415.776-.726 1.087-.681.558-1.087.726-.842.255-1.282.255h-41.32c-.4399 0-.8755-.087-1.282-.255-.4064-.168-.7757-.415-1.0868-.726s-.5578-.681-.7262-1.087c-.1683-.406-.255-.842-.255-1.282v-18.57c0-.888.353-1.741.9812-2.369.6283-.628 1.4803-.981 2.3688-.981z" fill="#533a71"/><path d="m56.7 313.3h31c2.4694.013 4.8333 1.003 6.5756 2.753 1.7424 1.75 2.7218 4.118 2.7244 6.587v12.57c0 .889-.3529 1.741-.9812 2.369-.6282.628-1.4803.981-2.3688.981h-37c-.8885 0-1.7405-.353-2.3688-.981-.6282-.628-.9812-1.48-.9812-2.369v-18.56c0-.888.353-1.741.9812-2.369.6283-.628 1.4803-.981 2.3688-.981z" fill="#fcbed2"/><path d="m55.69 313.3h24.25c2.4798 0 4.858.985 6.6115 2.739 1.7534 1.753 2.7385 4.131 2.7385 6.611v12.57c0 .44-.0866.876-.255 1.282-.1683.406-.4151.776-.7262 1.087-.311.311-.6803.558-1.0868.726-.4064.168-.842.255-1.282.255h-30.25c-.4399 0-.8755-.087-1.282-.255-.4064-.168-.7757-.415-1.0868-.726s-.5578-.681-.7262-1.087c-.1683-.406-.255-.842-.255-1.282v-18.57c0-.888.353-1.741.9812-2.369.6283-.628 1.4804-.981 2.3688-.981z" fill="#ff6b6b"/><path d="m102.16 313.3h-34.44l-5.47-15.12h34.43z" fill="#fff8fa"/><path d="m125.95 330.07h-25.94c-.6296 0-1.14.51-1.14 1.14v2.28c0 .63.5104 1.14 1.14 1.14h25.94c.63 0 1.14-.51 1.14-1.14v-2.28c0-.63-.51-1.14-1.14-1.14z" fill="#3d2c56"/><path d="m143.44 338.56h-28.16l-16.41-5.59h28.16z" fill="#fff"/><path d="m261.96 223.45c17.441 0 31.58-13.834 31.58-30.9s-14.139-30.9-31.58-30.9-31.58 13.834-31.58 30.9 14.139 30.9 31.58 30.9z" fill="#ff6b6b"/><path d="m261.96 217.54c14.105 0 25.54-11.189 25.54-24.99 0-13.802-11.435-24.99-25.54-24.99s-25.54 11.188-25.54 24.99c0 13.801 11.435 24.99 25.54 24.99z" fill="#fff8fa"/><path d="m276.48 206.43-12.69-12.69c.195-.297.314-.638.347-.992.034-.353-.02-.71-.156-1.038-.136-.329-.35-.619-.624-.845-.274-.227-.599-.383-.947-.455v-12.51c0-.121-.048-.237-.133-.322-.086-.085-.201-.133-.322-.133s-.236.048-.322.133c-.085.085-.133.201-.133.322v12.51c-.309.071-.599.209-.85.404-.25.195-.455.442-.601.724s-.228.592-.242.909.041.633.161.927c.121.294.303.558.536.774.232.216.509.379.811.477.301.099.621.13.936.093s.619-.142.889-.308l12.69 12.69c.085.085.2.132.32.132s.235-.047.32-.132.133-.2.133-.32-.048-.235-.133-.32z" fill="#ff6b6b"/><path d="m74.54 460.39s-2.44.87-2.6-2.11 0-3.9.61-5.5-1.3-2 2.44-2.6 6.26 1.45 7.26 1.91c.6194.248 1.1329.704 1.4523 1.29.3193.586.4246 1.265.2977 1.92-.4537 1.672-.4363 3.437.05 5.1.63 1.71 1.12 3.16 0 3.55s-3.8 1.76-4.64.92.15-1.37-1.76-2-2.29-.08-2.67-.92c-.2213-.496-.3695-1.022-.44-1.56z" fill="#fff"/><path d="m93.39 454.12s.56-2.53 3.16-1.09 3.3 2.06 4.34 3.43 2.37 0 .91 3.45-4.55 4.54-5.46 5.14c-.536.394-1.1919.589-1.8558.552-.6639-.036-1.2946-.302-1.7842-.752-1.1772-1.27-2.6826-2.191-4.35-2.66-1.79-.37-3.28-.72-3-1.88s.52-4.15 1.68-4.42 1.09.86 2.62-.44 1.28-1.9 2.19-1.78c.5356.075 1.0576.226 1.55.45z" fill="#fff"/><path d="m86 442.19s.68-3.11 3.89-1.33 4.06 2.54 5.33 4.22 2.91-.06 1.12 4.24-5.59 5.58-6.71 6.32c-.6584.484-1.4643.723-2.2799.677-.8155-.045-1.5897-.373-2.1901-.927-1.57-1.42-3.15-2.81-5.35-3.26s-4-.89-3.69-2.31.64-5.1 2.06-5.43 1.33 1.05 3.21-.54 1.57-2.34 2.69-2.19c.6622.083 1.309.262 1.92.53z" fill="#e6ebf6"/><path d="m88.53 433.34s2.18-.09 1.56 2.34c-.2481 1.555-.8883 3.021-1.86 4.26-.89 1.13.55 1.92-2.61 1.47s-4.66-2.72-5.34-3.34c-.4335-.352-.7313-.844-.8425-1.391-.1113-.547-.0291-1.116.2325-1.609.78-1.227 1.2056-2.646 1.23-4.1-.08-1.53-.11-2.82.88-2.84s3.48-.46 3.95.42-.46 1.06.91 2 1.82.63 1.92 1.4c.0587.462.0485.931-.03 1.39z" fill="#fff"/><path d="m98 433.84s-.41 2.78-3.34 1.42-3.73-2-5-3.38-2.56.23-1.24-3.66 4.58-5.22 5.58-5.99c.5532-.479 1.2575-.747 1.9891-.758s1.4436.236 2.0109.698c1.3714 1.283 3.071 2.162 4.91 2.54 2 .26 3.6.53 3.4 1.8s-.25 4.53-1.48 4.91-1.24-.85-2.8.67-1.24 2.16-2.24 2.09c-.6103-.023-1.2137-.138-1.79-.34z" fill="#fff"/><path d="m110.94 405h-48.75l6.76 61.79h35.23l1.7-15.53 2.75-25.26 1.64-15 .58-5.32zm-42 10.67 7.78 6.12-8.09 5.74-2.84-2.3-.79-6.87zm-4.06 1.25-.54-4.92 3.52 2.77zm17.46-10.65h8.66l3.8 2.66-8.14 5.78-8.14-5.78zm-4.93 1.86-2.62-1.86h5.27zm15.88-1.86h5.27l-2.62 1.86zm-7.74 9.24-7.73 5.49-7.82-6.16 7.35-5.15zm-6.8 43.18-5.19-4.2 6.3-5.1 5.73 4.24zm7.93-4.25 6.88 5.1-6.88 5.57-6.88-5.57zm-5.78-5.94 5.78-4.68 5.78 4.68-5.78 4.28zm-1.09-.81-8.3-6.15 6.27-4.93 7.85 6.39zm7.9-4.69 7.86-6.37 6.27 4.93-8.3 6.15zm-1-.84-7.84-6.36 7.84-6.17 7.84 6.17zm-8.89-7.2-8.11-6.58 8.1-5.75 7.84 6.17zm1.1-13.12 7.78-5.53 7.78 5.53-7.78 6.13zm-11.38 6.48-1.29.92-.25-2.24zm1.05.85 8.17 6.62-6.31 5-3.12-2.31-.06.07-.85-7.81zm.79 12.43-1.64 1.29-.3-2.72zm1.09.81 8.32 6.16-6.25 5.07-4-3.22-.66-6zm1 12.07-2.29 1.85-.44-4.06zm1 .84 5.14 4.16-7.48 5.52-.78-7.18zm6.19 5 6.37 5.16h-13.29zm15.94 0 7 5.16h-13.33zm1.05-.85 5.14-4.16 3 2.4-.79 7.19zm-1.09-.81-6.83-5.06 5.73-4.24 6.3 5.1zm0-10.11 8.32-6.16 2.36 1.86-.69 6.34-3.74 3zm9.41-7 1.7-1.26-.26 2.39zm1.89-3-3 2.19-6.31-5 8.17-6.62 2 1.41zm-10.33-3.61-7.83-6.16 7.84-6.17 8.1 5.75zm1.08-13.17 7.78-6.12 3.69 2.59-.78 7.17-2.6 2.11zm-1.09-.77-7.73-5.49 8.15-5.79 7.35 5.15zm1.55-12.07 3.74-2.66h8.61l-.45 4.15-4.6 3.62zm-24.55-2.66 3.74 2.66-7.26 5.07-4.84-3.81-.43-4zm31.48 49.87-2.09-1.69 2.49-2zm3-27.09-1.09-.77 1.29-1zm1.35-12.32-2.78-2 3.28-2.58z" fill="#533a71"/><path d="m110.74 400.5h-47.67c-1.5795 0-2.86 1.28-2.86 2.86v2.98c0 1.58 1.2805 2.86 2.86 2.86h47.67c1.58 0 2.86-1.28 2.86-2.86v-2.98c0-1.58-1.28-2.86-2.86-2.86z" fill="#533a71"/><path d="m55.38 465.67s-.38 2.79-3.38 1.42-3.73-2-5-3.38-2.56.23-1.24-3.66 4.58-5.26 5.52-6c.5532-.479 1.2575-.747 1.9891-.758s1.4436.236 2.0109.698c1.3714 1.283 3.0706 2.162 4.91 2.54 2 .26 3.6.53 3.4 1.8s-.25 4.53-1.48 4.91-1.24-.85-2.8.67-1.24 2.16-2.24 2.09c-.5761-.029-1.1451-.141-1.69-.33z" fill="#fff"/><path d="m113.32 458.24s-1.68-2.26 1.36-3.36 4-1.24 5.9-1.11 1.65-2 3.47 1.71.49 7 .33 8.13c-.058.72-.366 1.398-.87 1.916-.503.518-1.172.845-1.89.924-1.877.06-3.701.638-5.27 1.67-1.57 1.2-2.92 2.17-3.68 1.13s-3-3.38-2.42-4.52 1.47-.28 1.5-2.45-.65-2.4.1-3.06c.44-.396.935-.726 1.47-.98z" fill="#fff"/><path d="m199.43 450.21c-2.117.106-4.227.329-6.32.67 0 0-11.57 6.59-16 7.8s-12.1 2.56-13.72 5.51 0 3.74 0 3.74 42.77.91 43.17 0-1.42-14.25-1.42-14.25z" fill="#3d2c56"/><path d="m194.83 442-1.45 9s4.48 4.36 6.83 4.92c1.397.336 2.853.336 4.25 0l4.7-15.56z" fill="#fb919f"/><path d="m260.69 449.45-4.85 1.37c-3.39 2.436-6.968 4.599-10.7 6.47-4.85 2.24-12.32 3.86-13.19 6.22s-1.62 3.73 0 4.23 36.09 0 36.09 0 1.87 0 2.36-1.37-1.83-11-1.83-11z" fill="#3d2c56"/><path d="m252.81 442.48 3 8.34s4.6 4.6 7.59 4.6h5.14l-2.54-15.05z" fill="#c66f7e"/><path d="m231.24 385.86 17.26 59.4 20.07-1.16-8.46-55.42z" fill="#0078fa"/><path d="m314.37 376.73s-.66 13.61-14.27 15.6-72.84-3.15-72.84-3.15-1.16 11.61-4.65 20.91-11.45 34-11.45 34h-19.91s7-70.52 12.28-75.5 19.08-6.59 19.08-6.59l22.15-3.15 22.15 2.49z" fill="#1c8ff7"/><path d="m266.91 363.29c-2.998 1.912-6.447 3.002-10 3.16-5.64.16-9.46-1.5-16.09-3.16s-11.95-2.32-15.1-1.83l-3.15.5 34.43-9.12 10 5.14z" fill="#0078fa"/><path d="m274.31 283.15s-7.4 3.65-8.4 16.92.83 30-2 38.49c-1.681 5.05-4.036 9.85-7 14.27 0 0 5.68 7 10 10.45s12.82 3.15 12.82 3.15 11.73-18.58 12.06-19.25 7.63-27 7.63-27 .17-26.38-.17-27.21-10.88-8.46-12.16-8.63-12.78-1.19-12.78-1.19z" fill="#e28100"/><path d="m311.79 272 4.65.66s12.28 5.14 15.18 12.44.33 25.3-3.82 37.42-6.14 44.47-9 51.44-8.79 10.29-13.61 10.62-23.4-7.47-29.2-13.27c-2.789-2.944-5.845-5.622-9.13-8 4.539-2.662 8.003-6.83 9.79-11.78 3-8.3-.83-12.44-.5-20.24s6.47-16.92 6.47-16.92 6.67-30.86-8.36-31.19l10.85-6.39z" fill="#ffb942"/><path d="m310.74 246.31c-.06-1.09-.1-2.1-.16-3.19-.17.79-.37 1.51-.54 2.3-.08-1.11-.1-2.15-.18-3.26-.45 1.41-.92 2.7-1.36 4.11-5.339-.094-10.51-1.88-14.77-5.1.534-1.685.843-3.434.92-5.2l-2.67 4.6c-2.598-1.789-4.916-3.952-6.88-6.42-1.305-1.546-2.321-3.314-3-5.22-.353-1.094-.508-2.242-.46-3.39-1.71 2.41-4.87 9.44-4.87 9.44l1.34 1.86 1.62-3.09-.89 3.49 4.87 3.08-.63 6.35 1.41 4 1.93 2.45 4.09.15s2.9 7.06 3.12 7.35c.817.911 1.74 1.72 2.75 2.41l5.57.56 7.35-.56.63-1.82s8.81-7.9 9.26-16.74c-1.216.851-2.59 1.452-4.04 1.768-1.451.316-2.95.34-4.41.072z" fill="#3d2c56"/><path d="m319.16 242.37c-1.08-9.66-6.72-14-9.44-14.9-1.458-.432-2.866-1.019-4.2-1.75-2.708-2.899-6.438-4.631-10.4-4.83-6.83-.45-11.74 2.23-13.45 4.61-.048 1.148.107 2.296.46 3.39.679 1.906 1.695 3.674 3 5.22 1.964 2.468 4.282 4.631 6.88 6.42l2.67-4.6c-.077 1.766-.386 3.515-.92 5.2 4.26 3.22 9.431 5.006 14.77 5.1.45-1.41.92-2.7 1.36-4.11.08 1.11.1 2.15.18 3.26.17-.79.37-1.51.54-2.3.06 1.09.1 2.1.16 3.19 1.46.274 2.959.255 4.412-.056 1.452-.311 2.828-.907 4.048-1.754.032-.697.009-1.396-.07-2.09z" fill="#533a71"/><path d="m285.21 269.52.63 1.91c1.938-.382 3.899-.636 5.87-.76.85.15 1.26 3.19 1.26 3.19s11.55-4.12 14.41-4.35 3.6-.33 3.6-.33l-1-7.95s-5.5 2.23-9.84.59-6.87-6.79-6.87-6.79z" fill="#c66f7e"/><path d="m281 240.33s-.93 6.28-.48 7.87 1.45 3.64 1.52 4.61-1.23 4.12-1.08 6.39 2.41 11.37 4.09 12.18 5.79-3.83 7.17-6.46.89-8.36 1.45-9.36 3.31-4.27 2.12-6.5-3.49-2.56-4.53-1.41-1.3 4.94-2.38 5.13-2.3-1.15-2.53-3-2.12-2.79-2.38-4.49.22-4.31-.26-4.94c-.729-.668-1.539-1.242-2.41-1.71z" fill="#fb919f"/><path d="m286.51 276.77c2.118-2.088 4.518-3.868 7.13-5.29 4.16-2.21 15.9-4.74 17.35-4s3.53 5.57 3.53 5.57z" fill="#fff"/><path d="m337.33 397.25h-27.91c-1.537-.003-3.011-.614-4.098-1.702-1.087-1.087-1.699-2.56-1.702-4.098v-31.55c.003-1.537.615-3.011 1.702-4.098s2.561-1.699 4.098-1.702h23.43c1.036.002 2.053.281 2.944.808.892.528 1.626 1.285 2.126 2.192l11.21 20.08c1.149 2.057 1.741 4.378 1.716 6.734-.026 2.356-.666 4.664-1.859 6.696s-2.896 3.716-4.941 4.886-4.36 1.785-6.716 1.784zm-27.91-38.39c-.265 0-.52.105-.707.293-.188.188-.293.442-.293.707v31.54c0 .265.105.52.293.707.187.188.442.293.707.293h27.91c1.523-.001 3.019-.4 4.341-1.157 1.321-.758 2.422-1.846 3.194-3.16.772-1.313 1.187-2.804 1.206-4.327.018-1.523-.361-3.025-1.101-4.356l-11.21-20c-.087-.164-.219-.301-.38-.394-.16-.094-.344-.141-.53-.136z" fill="#3d2c56"/><path d="m334.94 397.25h-27.94c-1.537-.003-3.011-.614-4.098-1.702-1.087-1.087-1.699-2.56-1.702-4.098v-31.55c.003-1.537.615-3.011 1.702-4.098s2.561-1.699 4.098-1.702h23.43c1.036.002 2.053.281 2.944.808.892.528 1.626 1.285 2.126 2.192l11.21 20.08c1.149 2.057 1.741 4.378 1.716 6.734-.026 2.356-.666 4.664-1.859 6.696s-2.896 3.716-4.941 4.886-4.36 1.785-6.716 1.784zm-27.94-38.39c-.265 0-.52.105-.707.293-.188.188-.293.442-.293.707v31.54c0 .265.105.52.293.707.187.188.442.293.707.293h27.91c1.523-.001 3.019-.4 4.341-1.157 1.321-.758 2.423-1.846 3.194-3.16.772-1.313 1.187-2.804 1.206-4.327.018-1.523-.361-3.025-1.101-4.356l-11.17-20c-.087-.164-.219-.301-.38-.394-.16-.094-.344-.141-.53-.136z" fill="#533a71"/><path d="m290.31 389.51h-19.13c-1.262 0-2.473.501-3.366 1.394-.892.893-1.394 2.103-1.394 3.366 0 1.262.502 2.473 1.394 3.366.893.892 2.104 1.394 3.366 1.394h68.65c1.475 0 2.931-.329 4.262-.962 1.332-.634 2.505-1.558 3.434-2.703.93-1.145 1.592-2.482 1.939-3.916.346-1.433.369-2.926.065-4.369l-.46-1.15h-59.4c.24 1.22.46 2.42.64 3.58z" fill="#ff6b6b"/><path d="m343.42 369.23 13.64-57.68h-59.29c-3.83 16.31-12.91 55-12.91 55.95.193 1.015.45 2.017.77 3h57.57c.015-.432.089-.859.22-1.27z" fill="#ff6b6b"/><path d="m289.66 385.94h59.4l-5.77-14.32c-.076-.378-.107-.764-.09-1.15h-57.56c1.02 3.53 2.84 9.64 4.02 15.47z" fill="#fcbed2"/><path d="m357.33 310.37c.192-.599.263-1.231.209-1.858-.053-.627-.231-1.237-.522-1.795s-.69-1.053-1.173-1.456c-.484-.403-1.043-.706-1.644-.891-.921-.289-1.909-.289-2.83 0h-51.92l-1.68 7.14h59.28z" fill="#fcbed2"/><path d="m285.07 399h-56.75c-1.262 0-2.473-.501-3.366-1.394-.892-.893-1.394-2.104-1.394-3.366s.502-2.473 1.394-3.366c.893-.892 2.104-1.394 3.366-1.394h51.37c.708 0 1.408-.158 2.048-.462.639-.304 1.203-.748 1.649-1.298.447-.55.765-1.193.932-1.881.166-.689.177-1.406.031-2.099l-5.64-12.63c-.166-.797-.125-1.623.12-2.4l14.66-61.22c.186-.601.488-1.16.891-1.644.403-.483.898-.882 1.456-1.173s1.168-.469 1.795-.522c.627-.054 1.259.017 1.858.209.601.186 1.16.488 1.644.891.483.403.882.898 1.173 1.456s.469 1.168.522 1.795c.054.627-.017 1.259-.209 1.858l-13.92 58.86c-.245.777-.286 1.603-.12 2.4l6.23 15.47c.297 1.444.269 2.935-.083 4.367-.352 1.431-1.019 2.766-1.952 3.907s-2.109 2.059-3.442 2.688-2.789.953-4.263.948z" fill="#fcbed2"/><path d="m277.81 397.25h-27.91c-1.537-.003-3.011-.614-4.098-1.702-1.087-1.087-1.699-2.56-1.702-4.098v-31.55c.003-1.537.615-3.011 1.702-4.098s2.561-1.699 4.098-1.702h23.43c1.036.002 2.053.281 2.944.808.892.528 1.626 1.285 2.126 2.192l11.21 20.08c1.149 2.057 1.741 4.378 1.716 6.734-.026 2.356-.666 4.664-1.859 6.696s-2.896 3.716-4.941 4.886-4.36 1.785-6.716 1.784zm-27.91-38.39c-.265 0-.52.105-.707.293-.188.188-.293.442-.293.707v31.54c0 .265.105.52.293.707.187.188.442.293.707.293h27.91c1.523-.001 3.019-.4 4.341-1.157 1.321-.758 2.422-1.846 3.194-3.16.772-1.313 1.187-2.804 1.206-4.327.018-1.523-.361-3.025-1.101-4.356l-11.21-20c-.087-.164-.219-.301-.38-.394-.16-.094-.344-.141-.53-.136z" fill="#3d2c56"/><path d="m275.43 397.25h-27.91c-1.537-.003-3.011-.614-4.098-1.702-1.087-1.087-1.699-2.56-1.702-4.098v-31.55c.003-1.537.615-3.011 1.702-4.098s2.561-1.699 4.098-1.702h23.48c1.036.002 2.053.281 2.944.808.892.528 1.626 1.285 2.126 2.192l11.21 20.08c1.149 2.057 1.741 4.378 1.716 6.734-.026 2.356-.666 4.664-1.859 6.696s-2.896 3.716-4.941 4.886-4.36 1.785-6.716 1.784zm-27.91-38.39c-.265 0-.52.105-.707.293-.188.188-.293.442-.293.707v31.54c0 .265.105.52.293.707.187.188.442.293.707.293h27.91c1.523-.001 3.019-.4 4.341-1.157 1.321-.758 2.422-1.846 3.194-3.16.772-1.313 1.187-2.804 1.206-4.327.018-1.523-.361-3.025-1.101-4.356l-11.21-20c-.087-.164-.219-.301-.38-.394-.16-.094-.344-.141-.53-.136z" fill="#533a71"/><path d="m279.79 348.73h-43.41c-.668 0-1.21.542-1.21 1.21v3.34c0 .668.542 1.21 1.21 1.21h43.41c.668 0 1.21-.542 1.21-1.21v-3.34c0-.668-.542-1.21-1.21-1.21z" fill="#ff6b6b"/><path d="m302.79 399.04h-28.94v6.84h28.94z" fill="#533a71"/><path d="m302.8 399.04h-14.47v6.84h14.47z" fill="#3d2c56"/><path d="m294.12 404.39h-11.12v25.59h11.12z" fill="#533a71"/><path d="m294.12 404.39h-5.56v25.59h5.56z" fill="#3d2c56"/><path d="m295.72 429.99h-14.78v17.56h14.78z" fill="#533a71"/><path d="m295.72 429.99h-7.39v17.56h7.39z" fill="#3d2c56"/><path d="m248 447.54h81.15c.703 0 1.377.279 1.874.776s.776 1.171.776 1.874v6.28h-86.46v-6.28c0-.349.069-.694.203-1.016.133-.323.33-.615.577-.861.247-.247.54-.442.863-.574.322-.133.668-.2 1.017-.199z" fill="#3d2c56"/><path d="m247.77 466.29c3.231 0 5.85-2.619 5.85-5.85s-2.619-5.85-5.85-5.85-5.85 2.619-5.85 5.85 2.619 5.85 5.85 5.85z" fill="#3d2c56"/><path d="m247.77 463.37c1.618 0 2.93-1.312 2.93-2.93s-1.312-2.93-2.93-2.93-2.93 1.312-2.93 2.93 1.312 2.93 2.93 2.93z" fill="#fff"/><path d="m328.71 466.29c3.231 0 5.85-2.619 5.85-5.85s-2.619-5.85-5.85-5.85-5.85 2.619-5.85 5.85 2.619 5.85 5.85 5.85z" fill="#3d2c56"/><path d="m328.71 463.37c1.618 0 2.93-1.312 2.93-2.93s-1.312-2.93-2.93-2.93-2.93 1.312-2.93 2.93 1.312 2.93 2.93 2.93z" fill="#fff"/><path d="m288.24 466.29c3.231 0 5.85-2.619 5.85-5.85s-2.619-5.85-5.85-5.85-5.85 2.619-5.85 5.85 2.619 5.85 5.85 5.85z" fill="#3d2c56"/><path d="m288.24 463.37c1.618 0 2.93-1.312 2.93-2.93s-1.312-2.93-2.93-2.93-2.93 1.312-2.93 2.93 1.312 2.93 2.93 2.93z" fill="#fff"/><path d="m176.63 325.83s-1 1.51 0 2.24 5.44-.2 6.92-.28 12.21-2 12.21-2-7.26-4.9-9.34-5.86-4.11 1.71-4.11 1.71z" fill="#c66f7e"/><path d="m251.15 313.46-10.15 6.09-47.3 3.45s-8.27-2.71-10.3-2.88-12.84 5.63-12.95 7.48 4.28.52 4.28.52l5.84-2.15c2.465 2.384 5.61 3.942 9 4.46 3.29.646 6.702.16 9.68-1.38 0 0 41.13 5.32 48.42 4.24s15.93-8.75 15.93-8.75z" fill="#fb919f"/><path d="m275.64 283.81c13.21 3.59 9.34 16.15 4.09 26.46s-15.46 18.35-15.46 18.35-9.14-1.86-12.1-7.8-2.37-9.38-2.37-9.38 18.93-29.51 25.84-27.63z" fill="#fff"/><path d="m787.45 485.66-93.07-12.6v-5.66l-124.31-18.94-13.07 4.23-217.41-33.41c4.67-4.65 14.63-5 21-3.35s12.46 4.75 19 5.28c10.72.87 20.73-5.07 29.38-11.42s17.24-13.55 27.74-15.86c13.68-3 27.57 2.83 40.49 8.22s27.32 10.53 40.62 6.15c11.74-3.86 20.1-14.6 24.4-26.13s5.2-24 6.53-36.22 3.24-24.73 9.26-35.47l162.53-192.41h66.91z" fill="#5ecccd"/></g></svg>