<svg fill="none" height="130" viewBox="0 0 350 130" width="350" xmlns="http://www.w3.org/2000/svg" xmlns:xlink="http://www.w3.org/1999/xlink"><clipPath id="a"><path d="m0 0h350v130h-350z"/></clipPath><g clip-path="url(#a)"><path d="m96.49 26.73c42.87 8.25 86.14 20.78 129.44 15.2 30.64-4 59.3-16.77 88.32-27.38 11.689-4.3846 23.626-8.07436 35.75-11.05v-3.5h-350v24.58c30.86-7.38 64.8-3.95 96.49 2.15z" fill="#dbf3f3"/><path d="m314.25 14.55c-29 10.61-57.68 23.43-88.32 27.38-43.3 5.58-86.57-6.94-129.44-15.2-31.69-6.1-65.63-9.53-96.49-2.15v42.54c14.1949-2.5282 28.687-2.9293 43-1.19 36 4.27 69.64 19.2 103.54 32s69.88 23.64 105.84 19.29c33.09-4 64.95-20.74 97.57-21.86v-91.86c-12.107 2.97754-24.028 6.6673-35.7 11.05z" fill="#8edada"/><path d="m146.58 97.89c-33.9-12.77-67.58-27.69-103.58-31.96-14.313-1.7393-28.8051-1.3382-43 1.19v62.88h350v-34.69c-32.63 1.12-64.48 17.86-97.57 21.86-35.96 4.36-71.95-6.52-105.85-19.28z" fill="#5ecccd"/><g fill="#77b590"><path d="m271.9 95.79c2.517 0 4.931.9998 6.71 2.7796 1.78 1.7794 2.78 4.1934 2.78 6.7104v14.72h-19v-14.7c0-2.517 1-4.931 2.78-6.7104 1.779-1.7798 4.193-2.7796 6.71-2.7796z"/><path d="m271.9 95.79c2.517 0 4.931.9998 6.71 2.7796 1.78 1.7794 2.78 4.1934 2.78 6.7104v14.72h-19v-14.7c0-2.517 1-4.931 2.78-6.7104 1.779-1.7798 4.193-2.7796 6.71-2.7796z"/><path d="m226.9 71.17c1.246 0 2.48.2455 3.632.7224 1.151.4769 2.197 1.1759 3.078 2.0572.882.8812 1.581 1.9274 2.058 3.0787.477 1.1514.722 2.3855.722 3.6317v39.34h-19v-39.35c0-2.5169 1-4.9307 2.78-6.7104 1.779-1.7798 4.193-2.7796 6.71-2.7796z"/><path d="m256.57 74c2.517 0 4.931.9998 6.71 2.7796 1.78 1.7797 2.78 4.1935 2.78 6.7104v36.51h-19v-36.54c.008-2.5152 1.014-4.9243 2.797-6.6981s4.198-2.7672 6.713-2.7619z"/><path d="m303.39 120h-19v-3.44c0-1.248.246-2.484.724-3.636.478-1.153 1.179-2.2 2.063-3.082.883-.881 1.932-1.58 3.085-2.055 1.154-.476 2.39-.72 3.638-.717 2.517 0 4.931 1 6.71 2.78 1.78 1.779 2.78 4.193 2.78 6.71z"/><path d="m333.39 120h-19v-32.93c0-1.2479.246-2.4836.724-3.6363s1.179-2.1997 2.063-3.0812c.883-.8815 1.932-1.5801 3.085-2.0559 1.154-.4757 2.39-.7192 3.638-.7166 2.517 0 4.931.9998 6.71 2.7796 1.78 1.7797 2.78 4.1935 2.78 6.7104z"/><path d="m348.39 120h-19v-16.6c0-1.248.246-2.484.724-3.6363.478-1.1527 1.179-2.1997 2.063-3.0812.883-.8815 1.932-1.5801 3.085-2.0559 1.154-.4757 2.39-.7192 3.638-.7166 1.246 0 2.48.2455 3.632.7224 1.151.4769 2.197 1.1759 3.078 2.0572.882.8812 1.581 1.9274 2.058 3.0787.477 1.1517.722 2.3857.722 3.6317z"/><path d="m318.72 120.02h-19v-15.12c0-2.517 1-4.9307 2.78-6.7104 1.779-1.7798 4.193-2.7796 6.71-2.7796s4.931.9998 6.71 2.7796c1.78 1.7797 2.78 4.1934 2.78 6.7104v15.12z"/></g><path d="m183.68 97.29v-7.57c.001-.8847.198-1.7581.577-2.5578.378-.7996.929-1.5057 1.612-2.0676.683-.562 1.482-.9658 2.34-1.1827s1.753-.2415 2.621-.0719l48.35 9.51-12.48 12.15z" fill="#066d76"/><path d="m226.7 105.5h77c1.016 0 1.99.404 2.708 1.122.719.718 1.122 1.692 1.122 2.708v11c0 .862-.342 1.689-.952 2.298-.609.61-1.436.952-2.298.952h-77.58z" fill="#ffb942"/><path d="m292.71 101.56h-3.29c-.821-2.395-2.37-4.4737-4.43-5.9457-2.06-1.4719-4.528-2.2636-7.06-2.2643h-10.84v16.75h25.62c1.132 0 2.219-.45 3.019-1.251.801-.8 1.251-1.887 1.251-3.019s-.45-2.219-1.251-3.019c-.8-.801-1.887-1.251-3.019-1.251z" fill="#0f515d"/><path d="m226.7 93.34v12.16.33 4.27h40.4v-16.76z" fill="#066d76"/><path d="m243 85.79h23.21c1.016 0 1.99.4035 2.708 1.1218.718.7182 1.122 1.6924 1.122 2.7082v3.72h-30.86v-3.72c0-1.014.402-1.9867 1.118-2.7047s1.688-1.1227 2.702-1.1253z" fill="#0f515d"/><path d="m303.08 108c-1.907-.002-3.773.562-5.359 1.62-1.587 1.059-2.824 2.564-3.555 4.326s-.923 3.701-.551 5.572c.371 1.871 1.29 3.59 2.639 4.939 1.348 1.348 3.067 2.267 4.938 2.638 1.871.372 3.81.18 5.572-.551s3.267-1.968 4.326-3.555c1.058-1.586 1.622-3.452 1.62-5.359 0-1.265-.249-2.517-.733-3.685-.484-1.169-1.193-2.23-2.088-3.124-.894-.895-1.955-1.604-3.124-2.088-1.168-.484-2.42-.733-3.685-.733zm1.45 14.49c-.94-.94-.53-3.93-.53-3.93s3-.41 3.93.53c.204.216.359.473.457.753.098.281.136.579.112.875-.025.296-.111.584-.254.844-.143.261-.339.488-.575.668-.93.95-2.19 1.22-3.13.28zm3.14-9.45c.236.18.432.407.575.668.143.26.229.548.254.844.024.296-.014.594-.112.875-.098.28-.253.537-.457.753-.94.94-3.93.53-3.93.53s-.41-3 .53-3.93 2.21-.67 3.15.27zm-6 9.45c-.94.94-2.2.68-3.14-.26-.236-.18-.432-.407-.575-.668-.143-.26-.229-.548-.254-.844-.024-.296.014-.594.112-.875.098-.28.253-.537.457-.753.94-.94 3.93-.53 3.93-.53s.37 3-.57 3.94zm-3.14-9.45c.18-.236.407-.432.668-.575.26-.143.548-.229.844-.254.296-.024.594.014.875.112.28.098.537.253.753.457.94.94.53 3.93.53 3.93s-3 .41-3.93-.53-.72-2.18.22-3.13z" fill="#0f515d"/><path d="m303.08 110.17c-1.479 0-2.926.439-4.156 1.261s-2.188 1.99-2.755 3.357c-.566 1.366-.714 2.87-.425 4.321.288 1.451 1.001 2.784 2.047 3.83s2.379 1.759 3.83 2.047c1.451.289 2.955.141 4.321-.425 1.367-.567 2.535-1.525 3.357-2.755s1.261-2.677 1.261-4.156c0-.982-.193-1.955-.569-2.862-.376-.908-.927-1.733-1.622-2.427-.694-.695-1.519-1.246-2.427-1.622-.907-.376-1.88-.569-2.862-.569zm-4.59 2.89c.18-.236.407-.432.668-.575.26-.143.548-.229.844-.254.296-.024.594.014.875.112.28.098.537.253.753.457.94.94.53 3.93.53 3.93s-3 .41-3.93-.53-.68-2.2.26-3.15zm3.14 9.45c-.94.94-2.2.68-3.14-.26-.236-.18-.432-.407-.575-.668-.143-.26-.229-.548-.254-.844-.024-.296.013-.594.112-.875.098-.28.253-.537.457-.753.94-.94 3.93-.53 3.93-.53s.41 2.98-.53 3.92zm2.9-9.72c.94-.94 2.2-.68 3.14.26.236.18.432.407.575.668.143.26.229.548.254.844.024.296-.014.594-.112.875-.098.28-.253.537-.457.753-.94.94-3.93.53-3.93.53s-.41-2.99.54-3.93zm3.14 9.45c-.94.94-2.2 1.2-3.14.26s-.53-3.93-.53-3.93 3-.41 3.93.53c.204.216.361.472.46.752.098.28.137.578.114.874-.024.296-.109.583-.251.844s-.337.489-.573.67z" fill="#e5f1fe"/><path d="m303.08 120.24c1.43 0 2.59-1.16 2.59-2.59s-1.16-2.59-2.59-2.59-2.59 1.16-2.59 2.59 1.16 2.59 2.59 2.59z" fill="#0f515d"/><path d="m229.15 105.91c-.762-1.299-1.818-2.401-3.085-3.216-1.266-.814-2.707-1.32-4.205-1.474l-38.18-3.94v6.64c0 1.466.56 2.877 1.566 3.944 1.005 1.067 2.38 1.709 3.844 1.796l40.06 2.34z" fill="#0f515d"/><path d="m234.17 105.52-14.57-19.75-27.4-37.16-15.8-21.41v-.06c-.88-1.19-4 1.11-3.11 2.3l14.57 19.75 27.41 37.16 15.73 21.4v.06c.88 1.19 4-1.11 3.11-2.3z" fill="#e5f1fe"/><path d="m208.45 69.79-8.86-12c-2-2.68-6.13.38-4.15 3.06l8.86 12c2 2.68 6.13-.38 4.15-3.06z" fill="#a8a8a8"/><path d="m230.07 101.72h6.15c.796 0 1.559.316 2.121.879.563.562.879 1.325.879 2.121v5.42h-12.52v-5c-.007-.447.076-.89.242-1.305s.414-.792.727-1.11c.314-.319.688-.571 1.1-.744.412-.172.854-.261 1.301-.261z" fill="#a8a8a8"/><path d="m229.15 103.44c-2.337.006-4.619.704-6.559 2.007-1.939 1.302-3.45 3.15-4.34 5.31-.89 2.161-1.12 4.536-.66 6.827.459 2.291 1.587 4.394 3.242 6.045 1.654 1.65 3.76 2.772 6.052 3.226s4.667.218 6.825-.678c2.158-.895 4.003-2.41 5.3-4.353 1.298-1.943 1.99-4.228 1.99-6.564 0-1.555-.307-3.094-.903-4.53s-1.469-2.741-2.57-3.839c-1.1-1.098-2.407-1.968-3.844-2.56-1.438-.592-2.978-.895-4.533-.891zm1.78 17.78c-1.16-1.15-.65-4.83-.65-4.83s3.67-.5 4.83.65.83 2.7-.32 3.86-2.7 1.47-3.85.32zm3.86-11.6c1.15 1.15 1.48 2.7.32 3.86s-4.83.65-4.83.65-.51-3.67.65-4.83 2.7-.83 3.86.32zm-7.42 11.6c-1.16 1.16-2.7.83-3.86-.32s-1.48-2.7-.32-3.86 4.83-.65 4.83-.65.51 3.67-.65 4.83zm-3.86-11.6c1.15-1.15 2.7-1.48 3.86-.32s.65 4.83.65 4.83-3.67.51-4.83-.65-.83-2.71.32-3.86z" fill="#0f515d"/><path d="m229.15 106.08c-1.816 0-3.591.538-5.1 1.547-1.51 1.009-2.686 2.443-3.381 4.12s-.877 3.523-.523 5.304c.355 1.781 1.229 3.416 2.513 4.7s2.919 2.158 4.7 2.513c1.781.354 3.627.172 5.304-.523s3.111-1.871 4.12-3.381 1.547-3.284 1.547-5.1c0-2.435-.967-4.77-2.689-6.491-1.721-1.722-4.056-2.689-6.491-2.689zm-5.64 3.54c1.15-1.15 2.7-1.48 3.86-.32s.65 4.83.65 4.83-3.67.51-4.83-.65-.83-2.71.32-3.86zm3.86 11.6c-1.16 1.16-2.7.83-3.86-.32s-1.48-2.7-.32-3.86 4.83-.65 4.83-.65.51 3.67-.65 4.83zm3.56-11.92c1.15-1.15 2.7-.83 3.86.32s1.48 2.7.32 3.86-4.83.65-4.83.65-.5-3.68.66-4.84zm3.86 11.6c-1.16 1.15-2.7 1.48-3.86.32s-.65-4.83-.65-4.83 3.67-.5 4.83.65.83 2.7-.32 3.86z" fill="#e5f1fe"/><path d="m229.15 118.43c1.751 0 3.17-1.419 3.17-3.17s-1.419-3.17-3.17-3.17-3.17 1.419-3.17 3.17 1.419 3.17 3.17 3.17z" fill="#0f515d"/><path d="m182.15 34.69-4.67-7.23v-5.69c0-.7956-.316-1.5587-.879-2.1213-.562-.5626-1.325-.8787-2.121-.8787h-.93c-.698 0-1.366.2771-1.86.7703-.493.4932-.77 1.1622-.77 1.8597v5.76l8.67 11.72c2.26 3.78 8.18-1.36 2.56-4.19z" fill="#a8a8a8"/></g></svg>