<svg fill="none" height="130" viewBox="0 0 350 130" width="350" xmlns="http://www.w3.org/2000/svg" xmlns:xlink="http://www.w3.org/1999/xlink"><clipPath id="a"><path d="m0 0h350v130h-350z"/></clipPath><g clip-path="url(#a)"><path d="m199.6 40.21c-23.9 4.09-50.55 4-69.88-10.61-10.02-7.6-16.91-18.24-22.62-29.6h-107.1v58.32c13.12 13.16 27.14 25.42 43.91 33.12 24.45 11.23 52.38 11.68 79.25 10.23s54-4.59 80.51.14c20.47 3.65 40.92 13 54.54 28.2h91.79v-61.79c-21.5-20.61-48.91-36.33-78.6-38.22-24.19-1.51-47.9 6.11-71.8 10.21z" fill="#f9d095"/><path d="m203.67 101.8c-26.49-4.73-53.65-1.59-80.51-.14s-54.79 1-79.25-10.23c-16.78-7.7-30.8-20-43.91-33.12v71.69h258.21c-13.62-15.23-34.07-24.54-54.54-28.2z" fill="#fff1d9"/><path d="m107.1 0c5.71 11.36 12.6 22 22.63 29.59 19.33 14.64 46 14.71 69.88 10.61s47.6-11.71 71.79-10.2c29.68 1.87 57.1 17.59 78.6 38.21v-68.21z" fill="#ffb942"/><path d="m335.64 50.65h-1.2c-2.027-.0001-4.031.4305-5.879 1.2631-1.848.8327-3.498 2.0485-4.841 3.5669-2.387-.624-4.893-.624-7.28 0-1.343-1.5184-2.993-2.7342-4.841-3.5669-1.848-.8326-3.852-1.2632-5.879-1.2631h-1.2c-2.02.0004-4.016.4283-5.859 1.2556-1.842.8273-3.489 2.0352-4.831 3.5444-2.818-.7851-5.826-.5038-8.45.79-2.763-2.5765-6.402-4.0064-10.18-4-5.75 0-12.86 3.58-13.46 11.66l-31.41.4h-21.57c-2.212 0-4.333.8787-5.897 2.4427-1.564 1.5641-2.443 3.6854-2.443 5.8973v57.36h149.58v-65c-.003-3.8068-1.517-7.4567-4.209-10.1476-2.693-2.6909-6.344-4.2024-10.151-4.2024z" fill="#77b590"/><path d="m231.1 63.88h-22.34c-2.212 0-4.333.8787-5.897 2.4427-1.564 1.5641-2.443 3.6854-2.443 5.8973v57.38h22.34v-57.39c.003-2.2102.883-4.3289 2.446-5.8908 1.564-1.5619 3.684-2.4392 5.894-2.4392z" fill="#3c6448"/><path d="m275.591 58.3559.111-2.3774 1.738.081c2.339.1091 4.539 1.143 6.116 2.8743s2.402 4.0181 2.293 6.3575l-.081 1.7381-2.397-.1118c-2.165-.1009-4.201-1.0576-5.66-2.6595s-2.222-3.7178-2.121-5.8822z" fill="#548e6b"/><path d="m303.485 106.631 2.079-1.2.87 1.507c1.171 2.028 1.488 4.439.882 6.701s-2.086 4.19-4.114 5.361l-1.507.87-1.2-2.078c-1.083-1.877-1.377-4.107-.816-6.2s1.93-3.877 3.806-4.961z" fill="#3c6448"/><path d="m284.16 52.1417 1.569-1.8162 1.316 1.1374c1.773 1.5308 2.864 3.703 3.035 6.0386.171 2.3357-.594 4.6434-2.124 6.4157l-1.131 1.3092-1.817-1.5688c-1.638-1.4153-2.648-3.4231-2.807-5.5823-.159-2.1593.545-4.2934 1.959-5.9336z" fill="#77b590"/><path d="m219.646 92.6074.338-2.3761 1.722.2452c1.148.1633 2.253.5512 3.251 1.1415s1.87 1.3714 2.566 2.2987c.697.9273 1.203 1.9826 1.492 3.1057.288 1.1232.352 2.2921.189 3.4406l-.245 1.722-2.376-.338c-2.145-.305-4.081-1.45-5.382-3.1831-1.301-1.7327-1.861-3.9113-1.555-6.0565z" fill="#77b590"/><path d="m248.364 113.746-.397-2.367 1.717-.288c2.309-.387 4.678.16 6.585 1.519 1.907 1.36 3.195 3.421 3.582 5.731l.288 1.716-2.367.397c-2.137.358-4.329-.148-6.093-1.406-1.765-1.258-2.957-3.165-3.315-5.302z" fill="#3c6448"/><path d="m315.381 51.7613 2.079-1.2.87 1.5069c1.169 2.0251 1.487 4.4313.884 6.6907-.602 2.2594-2.077 4.1875-4.099 5.3613l-1.507.87-1.2-2.0784c-1.082-1.8736-1.376-4.0996-.819-6.1899.558-2.0904 1.921-3.8743 3.792-4.9606z" fill="#77b590"/><path d="m223.734 111.082 2.381-.304.221 1.726c.148 1.15.068 2.318-.234 3.437-.303 1.119-.824 2.168-1.532 3.086s-1.59 1.688-2.596 2.265c-1.006.578-2.115.951-3.265 1.099l-1.726.221-.305-2.38c-.137-1.064-.064-2.145.216-3.181.281-1.035.762-2.006 1.417-2.855.655-.85 1.472-1.562 2.402-2.096.931-.535 1.957-.88 3.021-1.018z" fill="#3c6448"/><path d="m334.296 103.923 2.079-1.2.87 1.507c1.171 2.028 1.488 4.438.882 6.7-.606 2.263-2.086 4.191-4.114 5.362l-1.507.87-1.2-2.078c-1.083-1.877-1.377-4.107-.816-6.2s1.93-3.877 3.806-4.961z" fill="#77b590"/><path d="m303.475 57.5916 2.079-1.2.87 1.5069c1.171 2.0281 1.488 4.4383.882 6.7004-.606 2.262-2.086 4.1907-4.114 5.3616l-1.507.87-1.2-2.0785c-1.083-1.8765-1.377-4.1065-.816-6.1995s1.93-3.8775 3.806-4.9609z" fill="#548e6b"/><path d="m333.083 70.5536 2.304-.696.505 1.6704c.679 2.2482.437 4.6741-.672 6.744-1.11 2.0699-2.996 3.6144-5.244 4.2935l-1.661.5017-.696-2.304c-.628-2.0785-.405-4.3212.619-6.2355 1.025-1.9143 2.767-3.3437 4.845-3.9741z" fill="#548e6b"/><path d="m315.971 78.2194 2.185-.993.72 1.5841c.968 2.1289 1.051 4.5546.232 6.745-.818 2.1903-2.473 3.9665-4.599 4.9388l-1.584.7199-.993-2.1849c-.444-.9768-.691-2.0314-.728-3.1037-.036-1.0723.139-2.1412.516-3.1458.377-1.0045.948-1.925 1.68-2.7089.733-.7839 1.613-1.4159 2.589-1.8598z" fill="#548e6b"/><path d="m263.092 109.695 2.078-1.2.87 1.507c1.171 2.028 1.488 4.438.882 6.7-.606 2.263-2.086 4.191-4.114 5.362l-1.463.845-1.2-2.078c-1.08-1.869-1.375-4.089-.823-6.176.552-2.086 1.907-3.869 3.77-4.96z" fill="#3c6448"/><path d="m311.36 90.33h-.51c-.826-.0545-1.634-.2719-2.375-.6397-.742-.3678-1.404-.8787-1.948-1.5033-.544-.6245-.959-1.3505-1.221-2.136s-.366-1.6151-.306-2.441v-.51c.89.0597 1.759.2941 2.558.6898.799.3956 1.513.9448 2.1 1.6162.586.6714 1.035 1.4518 1.321 2.2967.285.8448.401 1.7376.341 2.6273z" fill="#548e6b"/><path d="m271.952 81.963 2.185-.993.72 1.5841c.967 2.1273 1.051 4.551.234 6.7403-.817 2.1892-2.468 3.9654-4.592 4.9394l-1.584.7199-.993-2.185c-.895-1.9679-.973-4.2101-.217-6.2354.755-2.0253 2.282-3.6688 4.247-4.5703z" fill="#548e6b"/><path d="m266.69 95.18h-.51c-1.661-.1129-3.21-.8811-4.305-2.1357-1.095-1.2545-1.647-2.8928-1.535-4.5543v-.51c.89.0597 1.759.2941 2.558.6898.799.3956 1.513.9448 2.1 1.6162.586.6714 1.035 1.4518 1.321 2.2966.285.8449.401 1.7377.341 2.6274z" fill="#548e6b"/><path d="m220.35 124.76.12-.5c.397-1.616 1.42-3.008 2.843-3.87 1.423-.863 3.131-1.125 4.747-.73l.5.12c-.21.868-.589 1.686-1.115 2.407-.527.721-1.19 1.331-1.953 1.796-.763.464-1.609.774-2.492.911-.882.136-1.783.098-2.65-.114z" fill="#3c6448"/><path d="m350 124.44c0-3.809-1.513-7.461-4.206-10.154s-6.345-4.206-10.154-4.206h-1.2c-2.027 0-4.031.43-5.879 1.263s-3.498 2.049-4.841 3.567c-2.387-.624-4.893-.624-7.28 0-1.343-1.518-2.993-2.734-4.841-3.567s-3.852-1.263-5.879-1.263h-1.2c-2.02 0-4.016.428-5.859 1.256-1.842.827-3.489 2.035-4.831 3.544-2.818-.785-5.826-.504-8.45.79-1.681-1.569-3.702-2.729-5.905-3.389-2.203-.659-4.529-.801-6.796-.414s-4.414 1.293-6.273 2.647c-1.859 1.353-3.381 3.118-4.446 5.156-3.187-2.072-7.059-2.814-10.786-2.066-3.727.747-7.013 2.925-9.154 6.066h-33.26c-1.789-.006-3.532.563-4.973 1.624-1.44 1.06-2.502 2.556-3.027 4.266h149.24z" fill="#3c6448"/><g fill="#548e6b"><path d="m237.45 111.23.31-.73c1.02-2.331 1.119-4.962.276-7.363-.842-2.402-2.563-4.3942-4.816-5.577l-.68-.33c-1.105 2.5218-1.212 5.369-.301 7.967s2.773 4.754 5.211 6.033z"/><path d="m239.52 111.47h.48c1.485-.114 2.866-.803 3.85-1.92.573-.648 1.011-1.403 1.289-2.222s.391-1.685.331-2.548v-.51c-.846.066-1.67.305-2.42.703-.75.397-1.41.944-1.94 1.607-1.125 1.373-1.693 3.118-1.59 4.89z"/><path d="m237.424 70.0211 1.002-2.181 1.581.7263c2.128.9775 3.78 2.7603 4.594 4.9563s.722 4.6252-.256 6.7533l-.726 1.5812-2.181-1.0017c-1.969-.9044-3.498-2.554-4.251-4.5859-.753-2.0318-.668-4.2795.237-6.2485z"/><path d="m242.1 83.47-.41.31c-1.329 1.0015-3.001 1.4345-4.65 1.2038-1.648-.2306-3.137-1.106-4.14-2.4338l-.31-.41c.712-.5371 1.522-.9288 2.385-1.1526.864-.2239 1.762-.2755 2.645-.152.884.1235 1.734.4197 2.502.8718.769.452 1.441 1.051 1.978 1.7628z"/></g><path d="m203.65 75.79-4.45-2.74s8.6-11.05 12.35-15.83 10.75-5.51 10.75-5.51z" fill="#bfbfc1"/><path d="m222.3 51.71-18.65 24.08-.94-.58 18.16-23.21c.88-.24 1.43-.29 1.43-.29z" fill="#d4d4d4"/><path d="m220.87 52-18.16 23.21-3.51-2.16s8.6-11.05 12.35-15.83c2.7-3.44 7.08-4.78 9.32-5.22z" fill="#bfbfc1"/><path d="m202 80.78c.213-.2772.308-.6278.263-.9747-.045-.3468-.226-.6617-.503-.8753l-.78-.61c-.58-.45-1.09 0-1.85.24l-6.77 8.77 2.87 2.22z" fill="#434343"/><path d="m192.36 87.32-12.45 16.11c-.213.277-.308.628-.263.975s.226.661.503.875l.78.61c.277.213.628.308.975.263s.661-.226.875-.503l12.45-16.11z" fill="#634233"/><path d="m195.51 71c.168-.0453.344-.0568.516-.034.173.0228.339.0795.49.1669.15.0874.282.2037.387.3422.106.1385.183.2965.227.4649l.26 1c.19.7-.55.93-.94 1.62l-10.21 2.72-.94-3.51z" fill="#434343"/><path d="m186.24 77.24-19.67 5.25c-.168.0452-.344.0568-.516.034-.173-.0228-.339-.0795-.49-.1669-.15-.0874-.282-.2037-.387-.3422-.106-.1385-.183-.2965-.227-.4649l-.26-1c-.045-.1674-.057-.3422-.035-.5142.022-.1721.078-.3381.164-.4886.087-.1504.202-.2824.339-.3883.138-.1059.294-.1837.462-.2289l19.67-5.25z" fill="#634233"/><path d="m201.53 81.46-2.4-2.9c.309-.1546.581-.3732.798-.6412.218-.2681.376-.5794.464-.9133s.103-.6827.046-1.0231c-.058-.3405-.187-.6648-.38-.9512-.192-.2865-.444-.5287-.737-.7104-.294-.1816-.623-.2987-.965-.3433-.343-.0445-.691-.0156-1.021.0848s-.635.2701-.895.4977l-1.74-3.31c1.359-.8335 2.988-1.1076 4.545-.7646 1.557.3429 2.921 1.2761 3.804 2.6034.883 1.3274 1.217 2.9454.932 4.514s-1.167 2.9656-2.461 3.8972z" fill="#ccccce"/><path d="m200.71 72 .76 5.17s15.94-3.94 21.81-5.5 9.31-7.7 9.31-7.7z" fill="#ccccce"/><path d="m232.59 64-31.87 8 .16 1.09 30.92-7.9c.52-.69.79-1.19.79-1.19z" fill="#e1e1e1"/><path d="m231.8 65.23-30.92 7.9.6 4.08s15.94-3.94 21.81-5.5c4.21-1.11 7.17-4.6 8.51-6.48z" fill="#ccccce"/><path d="m202.77 76.055c1.081-.7188 1.374-2.1775.656-3.2582-.719-1.0806-2.178-1.3739-3.259-.6551-1.08.7188-1.374 2.1775-.655 3.2581.719 1.0807 2.178 1.374 3.258.6552z" fill="#aeafb0"/><path d="m201.73 67.52.22-.52c.733-1.6736.804-3.5629.199-5.2868-.605-1.724-1.841-3.1545-3.459-4.0032l-.49-.24c-.793 1.8109-.869 3.8551-.214 5.7202s1.993 3.4124 3.744 4.3298z" fill="#3c6448"/><path d="m203.21 67.69h.34c1.065-.083 2.055-.5781 2.76-1.38.41-.4648.724-1.0065.923-1.5936s.28-1.2079.237-1.8264v-.37c-.608.0476-1.199.2195-1.737.5051-.539.2855-1.013.6786-1.393 1.1549-.804.9867-1.207 2.2396-1.13 3.51z" fill="#3c6448"/></g></svg>