<svg fill="none" height="540" viewBox="0 0 387 540" width="387" xmlns="http://www.w3.org/2000/svg" xmlns:xlink="http://www.w3.org/1999/xlink"><clipPath id="a"><path d="m0 0h387v540h-387z"/></clipPath><g clip-path="url(#a)"><path d="m346.79 117.27c-35.85-5.22-69.95 22.22-84.83 55.26s-15.06 70.52-15.6 106.75-2.05 73.94-19.11 105.91c-18.72 35.09-56.15 59.47-95.82 62.4s-80.27-15.67-103.95-47.59c-8.88-12-15.72-25.87-27.00002-35.56v175.56h387.00002v-397.87c-9.85-13.02-24.48-22.5-40.69-24.86z" fill="#dbf3f5"/><path d="m21.32 226.81c10.1607 10.777 22.3986 19.384 35.976 25.303 13.5774 5.92 28.2129 9.028 43.024 9.137 14.829-.059 29.493-3.125 43.104-9.012s25.887-14.472 36.086-25.238c32.91-35.1 40.11-89.16 74.7-122.61 17.654-17.0954 40.945-27.1515 65.494-28.2767s48.663 6.7579 67.806 22.1667v-98.28h-386.99999v202.8c7.49 7.46 13.58999 16.26 20.80999 24.01z" fill="#5ecccd"/><path d="m325.85 76c-26.669-.2619-52.381 9.9205-71.64 28.37-34.58 33.46-41.78 87.51-74.7 122.61-10.196 10.754-22.465 19.331-36.067 25.212s-28.254 8.946-43.073 9.008c-14.8111-.109-29.4466-3.217-43.024-9.136-13.5774-5.92-25.8153-14.527-35.976-25.304-7.27-7.7-13.36999-16.5-20.85999-23.96v161.6c11.24999 9.69 18.08999 23.57 26.99999 35.56 23.68 32 64.29 50.57 104 47.63s77.1-27.31 95.82-62.4c17.05-32 18.57-69.68 19.11-105.91s.72-73.71 15.6-106.75 49-60.48 84.83-55.26c16.21 2.36 30.84 11.84 40.72 24.86v-43.82c-17.57-14.0185-39.268-21.8592-61.74-22.31z" fill="#a0e8e6"/><path d="m387 484.02h-387v55.98h387z" fill="#a0e8e6"/><path d="m42.6 488h-7.9c-.5039 0-.9872-.2-1.3435-.557-.3563-.356-.5565-.839-.5565-1.343v-14.6c0-.504.2002-.987.5565-1.344.3563-.356.8396-.556 1.3435-.556h12.06c.2919 0 .5798.068.8413.198.2615.129.4896.318.6665.55.177.232.2982.502.354.788.0559.287.045.582-.0318.864l-4.16 14.62c-.1132.398-.3532.748-.6835.997s-.7328.383-1.1465.383z" fill="#46b2af"/><path d="m31 374.61c-4.4663 0-8.7496 1.774-11.9077 4.932s-4.9323 7.442-4.9323 11.908v73.83c0 1.146.4551 2.244 1.2653 3.055.8101.81 1.9089 1.265 3.0547 1.265h25c1.1457 0 2.2445-.455 3.0547-1.265.8101-.811 1.2653-1.909 1.2653-3.055v-73.83c0-4.459-1.7687-8.737-4.9182-11.894s-7.4225-4.936-11.8818-4.946z" fill="#a0e8e6"/><path d="m28.72 377.35c-8 0-14.53 7.32-14.53 16.35v71.7c-.0523 1.046.3082 2.071 1.0038 2.855s1.6709 1.263 2.7162 1.335h21.6c1.0453-.072 2.0205-.551 2.7162-1.335.6956-.784 1.056-1.809 1.0038-2.855v-71.7c.02-9.03-6.49-16.35-14.51-16.35z" fill="#5ecccd"/><path d="m55.37 329.42h98.63c1.989 0 3.897.79 5.303 2.197 1.407 1.406 2.197 3.314 2.197 5.303v85.48c0 .761-.302 1.491-.841 2.029-.538.539-1.268.841-2.029.841h-107.89c-.7612 0-1.4912-.302-2.0294-.841-.5382-.538-.8406-1.268-.8406-2.029v-85.48c0-1.989.7902-3.897 2.1967-5.303 1.4065-1.407 3.3142-2.197 5.3033-2.197z" fill="#5ecccd"/><path d="m178.38 425.27h-140.59v44.33h140.59z" fill="#5ecccd"/><path d="m49.24 412.32h110.93c.363 0 .712.144.969.401s.401.605.401.969v11.58h-113.67v-11.58c0-.18.0354-.358.1043-.524.0688-.167.1697-.318.297-.445.1272-.127.2782-.228.4444-.297s.3444-.104.5243-.104z" fill="#a0e8e6"/><path d="m178.38 374.61c-4.466 0-8.75 1.774-11.908 4.932s-4.932 7.442-4.932 11.908v73.83c0 1.146.455 2.244 1.265 3.055.81.81 1.909 1.265 3.055 1.265h25c1.146 0 2.245-.455 3.055-1.265.81-.811 1.265-1.909 1.265-3.055v-73.83c0-4.459-1.769-8.737-4.918-11.894-3.15-3.157-7.423-4.936-11.882-4.946z" fill="#a0e8e6"/><path d="m176.07 377.35c-8 0-14.53 7.32-14.53 16.35v71.7c-.052 1.046.308 2.071 1.004 2.855.695.784 1.671 1.263 2.716 1.335h21.6c1.045-.072 2.021-.551 2.716-1.335.696-.784 1.056-1.809 1.004-2.855v-71.7c.02-9.03-6.48-16.35-14.51-16.35z" fill="#5ecccd"/><path d="m21.3199 469.6h166.7801v4.89h-166.2601c-.1379 0-.2701-.055-.3676-.152-.0976-.098-.1524-.23-.1524-.368z" fill="#46b2af"/><path d="m167.82 488h7.9c.504 0 .987-.2 1.343-.557.357-.356.557-.839.557-1.343v-14.6c0-.25-.049-.497-.145-.727-.095-.231-.235-.44-.412-.617-.176-.176-.385-.316-.616-.412-.23-.095-.477-.144-.727-.144h-12.06c-.294-.001-.584.067-.848.198-.263.131-.493.321-.67.556-.177.234-.298.507-.352.796s-.041.587.04.87l4.17 14.62c.116.392.356.737.684.982s.727.377 1.136.378z" fill="#46b2af"/><path d="m175 339.31-33.19 15.63-2.56 14.7c4.426.783 8.969.606 13.32-.52 6.85-1.89 25.75-20.69 25.75-20.69l5.83-2.89-6.87-9.34c-1.28 1.68-2.28 3.11-2.28 3.11z" fill="#c66f7e"/><path d="m200 336.21c-1.14-1-4.76-7.56-6.46-7.94s-7.42 2.92-7.42 2.92c-1.26-.222-2.55-.222-3.81 0-1.08.22-3.28 2.82-5 5l6.87 9.34 16.56-6.46c.104-.502.092-1.02-.037-1.516-.128-.496-.369-.956-.703-1.344z" fill="#fb919f"/><path d="m189.69 333.82v-4.21s-1.24 2.31-3.14 2.11l-1.9-.2.76 2.31z" fill="#c66f7e"/><path d="m378.87 398.57h-139.27v62.91h139.27z" fill="#5ecccd"/><path d="m374.12 405.85h-129.76v48.37h129.76z" fill="#a0e8e6"/><path d="m309.24 434.82c2.645 0 4.79-2.145 4.79-4.79s-2.145-4.79-4.79-4.79c-2.646 0-4.79 2.145-4.79 4.79s2.144 4.79 4.79 4.79z" fill="#5ecccd"/><path d="m378.87 342.26h-139.27v62.91h139.27z" fill="#5ecccd"/><path d="m374.12 349.53h-129.76v48.37h129.76z" fill="#a0e8e6"/><path d="m309.24 378.5c2.645 0 4.79-2.145 4.79-4.79 0-2.646-2.145-4.79-4.79-4.79-2.646 0-4.79 2.144-4.79 4.79 0 2.645 2.144 4.79 4.79 4.79z" fill="#5ecccd"/><path d="m259.9 456.02h-9.23v29.44h9.23z" fill="#5ecccd"/><path d="m366.45 456.02h-9.23v29.44h9.23z" fill="#5ecccd"/><path d="m113 344.81c3.515 1.493 6.953 3.162 10.3 5 4.76 2.66 19.37 4 19.37 4l-.55 20.66s-26.14-2.48-26.44 2.92c-.01.04-2.68-32.58-2.68-32.58z" fill="#d65050"/><path d="m178.31 358.17h-.93-.98-.91-.97-.97-.97-.94-.97-.97-.97-3.81v.97h2.58.97.97.97.94.97.97.97.91.97.94 1.22z" fill="#533a71"/><path d="m154.77 358.66c0-2.36 1.2-4.26 4.52-4.26 1.454-.001 2.903.163 4.32.49v3.76z" fill="#ffb942"/><path d="m163.62 358.66v3.76c-1.417.327-2.866.492-4.32.49-3.31 0-4.5-1.9-4.52-4.26z" fill="#ffb942"/><path d="m166.33 357v1.7h-2.71v-3.76c1.103.374 2.055 1.097 2.71 2.06z" fill="#533a71"/><path d="m166.33 358.66v1.7c-.655.963-1.607 1.686-2.71 2.06v-3.76z" fill="#533a71"/><path d="m154.97 363.23 4.36-.23v-8.82l-4.36-.1z" fill="#533a71"/><path d="m153.41 365.02h-1.79c-.387 0-.7.313-.7.7v1.84c0 .387.313.7.7.7h1.79c.387 0 .7-.313.7-.7v-1.84c0-.387-.313-.7-.7-.7z" fill="#533a71"/><path d="m155.14 354.08h-1.49v7.82c0 .84-.49 1.13-2.4 1.1-2.23 0-3.39.09-4.89.09s-1 1.94-1.1 3.68c-.09 2.14-.09 5.68-1.77 6.92-.302.223-.64.392-1 .5-.23 2-.45 3.54-.45 3.54h8.88s0-.4 0-1 0-1.25 0-2c0-.23 0-.47 0-.72 0-.7 0-1.43 0-2.09 0-.21 0-.42 0-.62 0-1 0-1.83 0-2-.005-.04-.005-.08 0-.12.06-.2.26-.26.4-.34s.29-.19.29-.42c0-.81 0-2.72 0-2.72h2.71c.39 0 .79-.16.77-.91.06-.63.05-10.71.05-10.71z" fill="#e28100"/><path d="m150.11 364.38c0 .75-.46 1.12-1.27 1.1-1.13 0-2.26-.59-2.37-1.16s1-.55 2.17-.55c.8 0 1.47.06 1.47.61z" fill="#fbcb43"/><path d="m152.91 377.72h-11.02c-.42 0-.76.34-.76.76v2.2c0 .42.34.76.76.76h11.02c.42 0 .76-.34.76-.76v-2.2c0-.42-.34-.76-.76-.76z" fill="#533a71"/><path d="m153.65 354.08h-13v9.13h1.84c.43.65.43 7 0 11 .36-.108.698-.277 1-.5 1.68-1.25 1.68-4.78 1.77-6.92.07-1.74-.29-3.68 1.1-3.68s2.66-.12 4.89-.09c1.91 0 2.37-.26 2.4-1.1.04-2.28.01-6.2 0-7.84z" fill="#ffb942"/><path d="m139.67 354.08c-.36 0-.716.071-1.049.209-.332.137-.634.339-.888.594-.255.254-.457.556-.594.889-.138.332-.209.688-.209 1.048v3.65c0 .36.071.716.209 1.049.137.332.339.634.594.889.254.254.556.456.888.594.333.137.689.208 1.049.208h1v-9.13z" fill="#533a71"/><path d="m114.16 384.62-12.4 6.14c2.364 3.034 5.137 5.726 8.24 8 4.474-4.508 7.389-10.328 8.32-16.61z" fill="#c66f7e"/><path d="m157.59 367.55c-.37-1.41-8.66-.56-9.62-.74s-5.77-2.52-6.87-2.13-3.8 6.11-3.8 6.11l-19 11.34c-.926 6.28-3.834 12.099-8.3 16.61 1.478 1.128 3.263 1.78 5.12 1.87 5.63-.23 25.28-21.67 25.28-21.67s5.86 1.05 8.11.64 6-6.46 6.57-7.6 2.92-2.98 2.51-4.43z" fill="#fb919f"/><path d="m378.56 103.77h-69.32v221.45h69.32z" fill="#a0e8e6" stroke="#dbf3f5" stroke-miterlimit="10" stroke-width="3"/><path d="m309.24 214.49h69.31" stroke="#dbf3f5" stroke-miterlimit="10" stroke-width="3"/><path d="m301.51 208.66s-.66-6.9 6.63-11.51 19.86 2.71 19.86 2.71 7.69 1.14 10.53 8.35-1.6 16-.8 18.3 10.42 6.26 10.34 9.95-6.62 8.83-6.62 8.83l-14.69 4.65z" fill="#533a71"/><path d="m318 206.58s-7.49-7.64-13.38-3.11-2.35 14.84-1.74 18.49-5.88 11.76-3.88 18.19 4.83 6.36 4.83 6.36l11.68-4.33 6.1-10.45z" fill="#3d2c56"/><path d="m298.29 307.19c2.07-2.989 3.549-6.346 4.36-9.89h-11.65l-3.16 4.21-.9 1.24c.508 4.223 1.938 8.282 4.19 11.89 2.595-2.274 4.99-4.767 7.16-7.45z" fill="#c66f7e"/><path d="m270.89 331.59h-96.28v152.96h96.28z" fill="#a3785a"/><g fill="#f7bf74"><path d="m284.42 331.59h-119.91c-.21 0-.38.17-.38.38v10.74c0 .21.17.38.38.38h119.91c.21 0 .38-.17.38-.38v-10.74c0-.21-.17-.38-.38-.38z"/><path d="m178.03 343.09h-6.86v141.46h6.86z"/><path d="m277.75 343.09h-6.86v141.46h6.86z"/><path d="m284.42 478.8h-119.91c-.21 0-.38.17-.38.38v10.74c0 .21.17.38.38.38h119.91c.21 0 .38-.17.38-.38v-10.74c0-.21-.17-.38-.38-.38z"/><path d="m274.32 429.92h-99.71v8.05h99.71z"/><path d="m274.32 383.92h-99.71v8.05h99.71z"/></g><path d="m303.61 245.49s-5.09 1.47-6.26 10-9.42 44.91-9.42 44.91c1.188 1.455 2.675 2.638 4.36 3.47 3.06 1.63 9 0 9 0z" fill="#e28100"/><path d="m352.55 483.42c-.554 1.228-.963 2.517-1.22 3.84v3h15.51s-.9-5.7-3.72-7.85l-2.82-2.15z" fill="#3d2c56"/><path d="m313.76 462.95s-.41 10.62-1.43 13.47-10.41 9.19-10.41 9.19-.21 1.22 3.16 1.63 12.76-4.7 14.39-5.1c1.144-.27 2.302-.473 3.47-.61l-1.63-4.7 1.63-17.15z" fill="#fb919f"/><path d="m349.28 463.36s3.27 11.62 3.27 14.49v7.36h11.84s-4.7-10-4.9-11.73-1.22-11.34-1.22-11.34z" fill="#fb919f"/><path d="m322.95 481.52s1 3.93-.82 5.74l-1.84 1.81h-22.62c-.3.001-.594-.086-.846-.251-.251-.164-.449-.398-.569-.673s-.157-.58-.106-.876c.05-.296.186-.57.391-.79 1.39-1.49 3.93-3.06 8.45-3.06 1 0 18-1.9 18-1.9z" fill="#3d2c56"/><path d="m312.05 420c-.73-4.9-2.61-9.68-2.35-14.62.28-5.16 2.87-9.86 4.88-14.63 5.12-12.15 8.25-25.44 5.9-38.42l4.08 23.29 19.19 89.82h17.83s-2.51-33.75-6.16-59.06c-2.56-17.81-5-46.51-7.83-65.39-.666-1.51-1.414-2.982-2.24-4.41-2-3.31-5.08-6.33-8.92-6.72-3.15-.32-6.38 1.17-9.45.39-4.14-1.05-6.18-5.6-7.73-9.59-.884-2.612-2.289-5.017-4.13-7.07l-14.75-.3s-3 22.27-3 32.37c0 7.29 5 66.51 7.73 98.86 2.769-3.397 4.814-7.325 6.009-11.542 1.195-4.216 1.516-8.633.941-12.978z" fill="#533a71"/><path d="m320.49 352.36c2.34 13-.78 26.26-5.9 38.42-2 4.76-4.6 9.47-4.88 14.63-.27 4.94 1.62 9.72 2.35 14.62.568 4.349.24 8.767-.964 12.984s-3.258 8.143-6.036 11.536c1.06 12.45 1.8 20.92 1.8 20.92h18.93s1.78-33.48 0-46.82-1.23-43-1.23-43z" fill="#3d2c56"/><path d="m319.26 320.69c1.55 4 3.59 8.54 7.73 9.59 3.07.78 6.29-.71 9.45-.39 3.84.39 6.94 3.41 8.92 6.72.826 1.428 1.574 2.901 2.24 4.41-1.2-8-2.46-14.17-3.84-17.09l-4.66-9.83-24-.49c1.853 2.053 3.269 4.462 4.16 7.08z" fill="#3d2c56"/><path d="m343.76 302.38s9 34.55 9.24 36.44.81 7.77 2.77 9.87 2.38 3.47 2.9 3.47 1.05-2.76 0-4c-.651-.837-1.019-1.86-1.05-2.92 0 0 3.57 4.94 6 6.93s4.73 3.57 4.94 2.42 4.62-9.09 1.26-12.16-8.72-7.16-8.72-7.16l-6-35.91z" fill="#fb919f"/><path d="m355.37 298.49c-.09-3-6-40.28-8.62-45.32s-5.58-6.91-5.58-6.91l-12.72-6.26-9.39.47-15.45 5s-5.14 17.63-6.16 23.14 1.74 8.37 3.06 12.86-.13 30.2-.13 31.83c0 1.12 8.66 2.75 16.75 3.23 1.649-.761 3.2-1.718 4.62-2.85 1.17-.895 2.14-2.024 2.847-3.316.708-1.291 1.138-2.717 1.263-4.184.08-2.75-1.27-5.31-2.27-7.88s-1.65-5.6-.26-8 4.08-3.21 6.31-4.63c2.364-1.561 4.232-3.766 5.382-6.356 1.15-2.589 1.535-5.453 1.108-8.254l2.67 17.28c1.82 7.46 3.66 14.6 4.14 15 1 .88 10-1.57 11.43-2.18s1-2.67 1-2.67z" fill="#ffb942"/><path d="m329.64 285.7c-2.23 1.42-5 2.35-6.31 4.63s-.75 5.41.26 8 2.36 5.13 2.27 7.88c-.125 1.468-.555 2.893-1.263 4.184-.707 1.292-1.677 2.421-2.847 3.316-1.42 1.132-2.971 2.089-4.62 2.85 3.296.264 6.61.187 9.89-.23 8.17-1.36 13.34-1.09 12.79-3.81s-3-12.25-2.72-15.79c.423-2.811.994-5.598 1.71-8.35l-2.67-17.28c.425 2.799.039 5.662-1.111 8.249s-3.016 4.791-5.379 6.351z" fill="#e28100"/><path d="m315.51 232.6.23 4.29.17 3.18s6 2.14 6.5 1.7 5.6-6.58 5.57-7-2.3-8.45-2.3-8.45-7.36.39-8.14 1-2.03 5.28-2.03 5.28z" fill="#c66f7e"/><path d="m318 206.58s-11.57 2.79-13 5.87-.93 15.86 2.71 20.16 5.69 4.47 5.69 4.47 4.37.18 7.24-2.16c1.506-1.148 2.852-2.494 4-4 0 0 .14 5.17-4.25 7.18l-4.39 2-.59 3.3s-3.51 1.75-3.41 3.48 4.92 8 5.33 8 12.32-9.24 11.82-11l-.5-1.75-1.22-15.34-.39-2.16s3.47-1.41 3.16-4.66-1-3.35-2.48-3-1.81 1.87-3.05 1.52-4.11-5.55-5.23-8.58c-.79-1.91-1.44-3.33-1.44-3.33z" fill="#fb919f"/><path d="m317.92 229.16s-1.26 3.27-3.68 3.68-3.54-2.29-3.54-2.29l-.06-.26z" fill="#fff"/><path d="m327.368 226.226c.855-.046 1.511-.776 1.466-1.63-.046-.855-.775-1.511-1.63-1.466s-1.511.775-1.466 1.63.775 1.511 1.63 1.466z" fill="#ffd040"/><path d="m272.61 322.41s-15.31 6.18-15.92 7-4 3.11-3.83 4 4-1.38 4.7-1.58 8.52-1.63 8.52-1.63-3.16 1.74-3.62 2.5-.92 1.22-.2 1.79 4-1.07 7.66-1.58 5.72-2 6.89-3.57c.705-.931 1.113-2.053 1.17-3.22 0 0 7.19-6 13.14-11.46-2.252-3.608-3.682-7.667-4.19-11.89z" fill="#fb919f"/><path d="m40 472.54-2.62-.61c-1.382-1.09-2.8315-2.092-4.34-3-.83-.31-4.05-2-4.78-1.77s-24.62002 16.91-24.93002 18.26.83 3.32 1.35 3.84 25.55002-6 25.55002-6z" fill="#3d2c56"/><path d="m38.86 472.12s-3.76.37-4.65 1.46-5.16 10-5.16 10l12.61.28z" fill="#fb919f"/><path d="m122.4 478.8s-.14 7.5.76 8.1c.72.48 22.25.36 30.78.29.916-.005 1.792-.373 2.437-1.024.645-.65 1.006-1.53 1.003-2.446-.001-.34-.102-.672-.291-.955-.188-.282-.456-.503-.769-.635l-20.42-8.57z" fill="#3d2c56"/><path d="m89.08 429.22 30.07-2.72s.95 9.65.95 20.58c0 11.85 2.3 33.28 2.3 33.28l14.48-6.36 3.17-25.2-13.75-34.41-15-8.47-20.26 2.52-6.75 7.83 1.59 11.37z" fill="#0078fa"/><path d="m73.85 355.39s-21.43 31.31-21.56 55.28 19.06 54.43 19.06 54.43l-36.15 3.71-.18 19s52.27.81 59.16-2.77 6.16-6.34 5.9-11.37-12.18-42.48-11.65-50.62 11.52-13.7 15.76-14.75l4.24-1.06s-9.27 9.53-2 12.18 10.9-.93 14.65 2.38 2.69 16.95 8.39 22 10.56 5 10.56 5 4.54-40.07-4.92-43.61c-5-1.87-33-3.62-33-3.62l-1.19-1.06z" fill="#1c8ff7"/><path d="m117 345.82s2.78 3 3.84 10.44-1.85 19.46-5.43 24.49-9.47 9.07-10.89 10.49-3.67 9.24-3.67 9.24-7.94 1.46-12.45-3.44-.26-4.5-5.43-7.94-5.3-6.49-4.77-8.34 6.62-25.37 6.62-25.37l1.36-10.44 10.53-4.74h9.83z" fill="#0078fa"/><path d="m77.14 380.31s5.6 2.89 9.44 2.46 7.61-5.46 7.61-5.46l-4.7-13.37s-2.65-2.78-3.84-1.59-8.51 17.96-8.51 17.96z" fill="#d65050"/><path d="m95.85 340.62s4.63-1.3 10.06 2.94 7.42 11.48 6.62 15.36c-.452 2.249-1.07 4.462-1.85 6.62l2 4.1 2.48 4.9s4.22-12.13 4-17.05-3.7-11.66-3.7-11.66l-10.08-9.58z" fill="#d65050"/><path d="m125 339.16-1.39 3.54-.7-.47-3.48 3.6-5.21-2.36s-.89-5-.89-5.06 1-1.59 1-1.59 8.14-.5 8.29-.32z" fill="#c66f7e"/><path d="m136.63 316.41s-.07 7.61 0 8.61 2.85 3.87 2.8 4.62-2.38 2.28-2.38 2.28-2.33 9.28-4.57 11-6.65.45-8.89-.25-8.49-4.87-8.49-4.87c.459 1.792 1.096 3.534 1.9 5.2.693 1.023 1.509 1.956 2.43 2.78-.15 0-3.82 4.22-3.82 4.22s-4-5.56-7.1-9.68l-3.13-4.12s2.68-2.38 3.13-4.32 2.83-9.45 3-9.47 12.49-9.01 12.49-9.01l12.56-.26z" fill="#fb919f"/><path d="m132.92 299.46c-2.52-.79-10 2.38-13.44 2.91s-11.32 0-14.56 5.16c-2.53 4-1.16 10.2.29 14.78 5.297.841 10.721-.169 15.36-2.86 4.73-2.8 8.27-7.16 12.1-11.1 1.07-1.1 2.29-2.23 3.82-2.39.766-.038 1.527.14 2.197.513s1.222.926 1.593 1.597c0-.11 0-.21-.07-.33-.8-2.98-4.77-7.48-7.29-8.28z" fill="#533a71"/><path d="m136.49 306c-1.53.16-2.75 1.29-3.82 2.39-3.83 3.94-7.37 8.31-12.1 11.1-4.639 2.691-10.063 3.701-15.36 2.86.41 1.3.83 2.48 1.17 3.43 1.52 4.3 1.26 7.28 2.71 6.75.801-.363 1.489-.935 1.99-1.657.502-.722.799-1.566.86-2.443 0-1.66 1.39-3.71 3.24-3.77s2.78 3.24 3.18 4.1 1.66.93 2.52-.79 1.85-2.32 3.11-4.1.33-3.44.53-4.24 1.13-1.65 3.71-2.32 7.81-2.78 7.81-2.78l.6 1.92c1.138-.602 2.155-1.409 3-2.38.519-.9.846-1.897.962-2.93.115-1.032.016-2.078-.292-3.07-.379-.668-.938-1.217-1.613-1.583-.676-.366-1.44-.534-2.207-.487z" fill="#3d2c56"/><path d="m119.14 380.49c-1.908 3.012-4.434 5.586-7.41 7.55-4.77 3-11.52 4.37-11.52 4.37l-12.44-27.27s1.46 5.56-.93 8.47-5.93 2.09-7.25 3.94c-.7408.924-1.2114 2.035-1.36 3.21 0 0-9-3-9-9.8s3-16.15 9.53-20.92 10.45-7.37 15.42-8.19 10.93 2.76 13 6.33 3 11.12 3 11.12z" fill="#ff6b6b"/><path d="m127.05 336.24s.73 2.64 2.62 3.43 2.29-1.95 2.29-1.95z" fill="#fff"/><path d="m41.8 205.06s-4.86-7.91-2.63-13.25 6.56-4.72 6.13-2.38-.78 3.65 2.26.09 8.59-5.38 8.16-3.21-4.69 3.39-.35 3.13 9.81.43 6.86 4.34-7.38 4.95-5.12 5.73 1.3 2.34-1.22 3.3-10.42-1-8.16.43-2.05 3.91-5.93 1.82z" fill="#a0e8e6"/><path d="m38.33 202s-14.22 1.46-15.61-3.4 7.73-2 5.38-3.73-8.77-2.69-9.64-4.95 1.74-3.21 3.13-2.6-1-2.86-1.74-5.3.78-5.56 3.21-4.25 5.56 7.55 6.08 6.16 1.82-4.95 3.3-5 3.21 2.52 3.56 5.3 1.09 9.72 2.33 8.59 2.27-4.17 3.23-1.56-1.16 9.84-3.23 10.74z" fill="#46b2af"/><path d="m125.56 221.82h-112.09c-.8339 0-1.51.676-1.51 1.51v2.88c0 .834.6761 1.51 1.51 1.51h112.09c.834 0 1.51-.676 1.51-1.51v-2.88c0-.834-.676-1.51-1.51-1.51z" fill="#dbf3f5"/><path d="m19.34 227.72 7.5 5.41c.151.131.3376.213.5359.237.1982.023.399-.013.5765-.104.1775-.092.3235-.234.4194-.409.0958-.175.137-.375.1182-.574v-4.56z" fill="#5ecccd"/><path d="m118.32 227.72-7.5 5.41c-.151.131-.338.213-.536.237-.198.023-.399-.013-.576-.104-.178-.092-.324-.234-.42-.409s-.137-.375-.118-.574v-4.56z" fill="#5ecccd"/><path d="m41.82 207.63h-1.42v-.2c-.8381-2.931-2.0232-5.75-3.53-8.4-2.71-5-9.15-8.06-9.21-8.09-.0331-.013-.0631-.033-.0883-.058s-.045-.055-.0582-.088-.0194-.068-.0184-.104c.001-.035.0093-.07.0244-.102s.0366-.061.0632-.085c.0266-.023.0578-.041.0916-.052s.0694-.015.1048-.012.0698.014.1009.031c.27.13 6.66 3.18 9.45 8.32 1.482 2.637 2.6659 5.431 3.53 8.33h.74c-.0857-2.168.447-4.316 1.5359-6.193 1.089-1.877 2.6893-3.405 4.6141-4.407 6.79-3.57 9.14-2.83 9.23-2.79.0345.009.0667.026.0947.048.0279.022.051.05.0677.081.0167.032.0268.067.0295.102.0028.036-.0019.072-.0136.105-.0117.034-.0302.065-.0544.091-.0242.027-.0536.048-.0863.062s-.068.022-.1037.022-.0711-.007-.1039-.021c0 0-2.3-.67-8.82 2.76-1.869.986-3.4147 2.489-4.4521 4.329-1.0374 1.841-1.5227 3.942-1.3979 6.051v.29z" fill="#46b2af"/><path d="m98.13 214.59h-27.29c-1.0217 0-1.85.828-1.85 1.85v3.53c0 1.022.8283 1.85 1.85 1.85h27.29c1.0217 0 1.85-.828 1.85-1.85v-3.53c0-1.022-.8283-1.85-1.85-1.85z" fill="#46b2af"/><path d="m121.367 215.922-19.297-19.297c-.722-.722-1.893-.722-2.6159 0l-2.4961 2.496c-.7224.723-.7224 1.894 0 2.617l19.297 19.297c.722.722 1.894.722 2.616 0l2.496-2.496c.723-.723.723-1.894 0-2.617z" fill="#dbf3f5"/><path d="m91.62 207.37h-20.78c-1.0217 0-1.85.828-1.85 1.85v3.53c0 1.022.8283 1.85 1.85 1.85h20.78c1.0217 0 1.85-.828 1.85-1.85v-3.53c0-1.022-.8283-1.85-1.85-1.85z" fill="#dbf3f5"/><path d="m95.01 200.14h-24.17c-1.0217 0-1.85.828-1.85 1.85v3.53c0 1.022.8283 1.85 1.85 1.85h24.17c1.0217 0 1.85-.828 1.85-1.85v-3.53c0-1.022-.8283-1.85-1.85-1.85z" fill="#46b2af"/><path d="m52.13 221.82h-19.32c-1.9175 0-3.7565-.762-5.1124-2.118-1.3559-1.355-2.1176-3.194-2.1176-5.112 0-1.917.7617-3.756 2.1176-5.112s3.1949-2.118 5.1124-2.118h19.32c1.9175 0 3.7565.762 5.1124 2.118s2.1176 3.195 2.1176 5.112c0 1.918-.7617 3.757-2.1176 5.112-1.3559 1.356-3.1949 2.118-5.1124 2.118z" fill="#fff"/><path d="m265.43 123.05h-48.61v79.58h48.61z" fill="#a0e8e6" stroke="#dbf3f5" stroke-miterlimit="10" stroke-width="3"/><path d="m256.37 133.05h-30.04v58.61h30.04z" fill="#5ecccd"/><path d="m199.2 123.05h-70.29v43.84h70.29z" fill="#a0e8e6" stroke="#dbf3f5" stroke-miterlimit="10" stroke-width="3"/><path d="m190.3 131.62h-52.74v26.69h52.74z" fill="#5ecccd"/><path d="m197.15 186.3h-47.07v40.5h47.07z" fill="#a0e8e6" stroke="#dbf3f5" stroke-miterlimit="10" stroke-width="3"/><path d="m165.939 423.249-30.675 62.286 6.522 3.212 30.675-62.286z" fill="#f7bf74"/><path d="m224.77 450.8h-4.02v15.57h4.02z" fill="#ff6b6b"/><path d="m278.31 450.8h-4.02v15.57h4.02z" fill="#ff6b6b"/><path d="m278.3 450.8h-57.55v4.76h57.55z" fill="#ff6b6b"/><path d="m276.85 444.36c-.745.316-1.4.813-1.907 1.444-.506.632-.847 1.38-.993 2.176-.111.904-.067 1.821.13 2.71.335.824.335 1.746 0 2.57-.33.6-10.28 15.18-10.45 15.41-.262.261-.574.466-.918.602s-.712.2-1.082.188c-.753.065-1.485.285-2.15.646-.664.362-1.246.857-1.71 1.454-.76.93-1.65 2.62-.89 3.93.12-.055.234-.122.34-.2-.183-.377-.257-.797-.215-1.214.043-.417.2-.813.455-1.146.372-.686.891-1.282 1.52-1.744.63-.461 1.354-.778 2.12-.926.845-.139 1.712.006 2.465.413.753.408 1.349 1.054 1.695 1.837.56 1.2 1.1 3.16 0 4.5-1.53 1.81-3.26 2.58-5.33 1.93-.09.07-.24.23-.24.23s2.07 1.33 4.84-.77c.735-.492 1.295-1.204 1.6-2.034s.34-1.735.1-2.586c-.157-.482-.194-.995-.109-1.495s.291-.972.599-1.375c1.18-1.73 10-14.6 10.33-14.94.309-.289.672-.514 1.069-.661.396-.148.818-.215 1.241-.199 1.283-.108 2.512-.568 3.55-1.33 3.15-2.69 2.17-5.56 2.17-5.56l-.39.33v.27c0 2.65-1.24 4.33-3.88 5.3-1.87.69-3.66-.68-4.73-1.75-.729-.655-1.222-1.532-1.403-2.495-.181-.964-.039-1.96.403-2.835.73-1.49 2.64-2.54 4.58-3 .32-.096.657-.123.988-.078s.649.16.932.338l.42-.3c-1.36-1.26-3.88-.29-5.15.36z" fill="#dbf3f5"/><path d="m265.23 477c1.13-1.34.59-3.3 0-4.5-.346-.783-.942-1.429-1.695-1.837-.753-.407-1.62-.552-2.465-.413-.766.148-1.49.465-2.12.926-.629.462-1.148 1.058-1.52 1.744-.255.333-.412.729-.455 1.146-.042.417.032.837.215 1.214.51-.4 1.75-1.36 2.4-1.86s1.54.18 2.24 1.14c.82 1.13.87 1.77.51 2.17-.78.787-1.609 1.525-2.48 2.21 2.14.66 3.85-.11 5.37-1.94z" fill="#fff"/><path d="m279.6 444c-1.93.46-3.85 1.51-4.58 3-.442.875-.584 1.871-.403 2.835.181.963.674 1.84 1.403 2.495 1.07 1.07 2.86 2.44 4.73 1.75 2.64-1 3.87-2.65 3.88-5.3 0-.09 0-.18 0-.27-.955.827-1.957 1.598-3 2.31-.81.48-1.42 0-2.42-1.23s-1.21-2.31-.72-2.77c.84-.79 2.42-2 3.06-2.56-.287-.182-.61-.3-.946-.345-.337-.045-.68-.016-1.004.085z" fill="#fff"/><path d="m274.77 455.94c.261.182.44.46.496.773s-.014.636-.196.897l-7.4 10.67c-.182.261-.46.44-.773.496s-.636-.014-.897-.196-.44-.46-.496-.773.014-.636.196-.897l7.4-10.67c.182-.261.46-.439.773-.496.313-.056.636.014.897.196z" fill="#fff"/><path d="m257.86 471.34c.06-.069.104-.15.129-.238s.031-.18.017-.271c-.014-.09-.048-.176-.098-.252-.051-.076-.117-.14-.195-.188s-.166-.078-.256-.089c-.091-.01-.183-.001-.27.027-.087.029-.166.076-.233.138s-.119.138-.154.223l-9.06 14.72 1.06.65z" fill="#533a71"/><path d="m246.89 488c.163.08.351.092.524.034.172-.058.314-.182.396-.344l1-1.62-1.06-.65-1 1.62c-.108.146-.153.329-.127.509.026.179.122.342.267.451z" fill="#533a71"/><path d="m258 464.9c-.048 1.397-.414 2.765-1.07 4-.206.42-.454.819-.74 1.19-.25.28-.49.32-.65.58l-1.06 1.72c-.047.075-.079.159-.094.247-.014.088-.011.178.009.264.021.087.058.168.11.24.053.072.119.133.195.179l.88.54 13-21.16c-2-1.22-5.53 1.34-8.11 5.55-1.343 1.987-2.19 4.268-2.47 6.65z" fill="#533a71"/><path d="m262.49 467.68c-1.235.673-2.299 1.621-3.11 2.77-.283.374-.527.776-.73 1.2-.14.35-.06.59-.23.84l-1.06 1.72c-.046.076-.107.142-.179.195-.072.052-.153.089-.24.11-.086.02-.176.023-.264.009-.088-.015-.172-.047-.247-.094l-.88-.54 13-21.16c2 1.22 1.29 5.54-1.29 9.74-1.153 2.092-2.788 3.878-4.77 5.21z" fill="#533a71"/><path d="m260.71 466.61c.121.075.255.126.395.149.141.023.284.018.423-.014.138-.033.269-.092.384-.176.116-.083.213-.188.288-.309l6.08-9.89c.075-.121.126-.255.149-.395.023-.141.018-.284-.014-.423-.033-.138-.093-.269-.176-.384s-.188-.213-.309-.288l-.52-.32-7.22 11.72z" fill="#ffb942"/><path d="m265.48 454.64-6.08 9.89c-.075.121-.126.255-.149.395-.023.141-.018.284.015.423.032.138.092.269.175.384.083.116.188.213.309.288l.44.27 7.22-11.72-.44-.27c-.12-.076-.254-.127-.394-.151-.14-.023-.283-.019-.421.012-.139.032-.27.09-.385.172-.116.083-.214.187-.29.307z" fill="#ffb942"/><path d="m266 456.85c.152.094.336.124.511.083.174-.042.325-.151.419-.303.094-.153.124-.336.083-.511-.042-.174-.151-.325-.303-.419z" fill="#533a71"/><path d="m265.79 455.92c-.093.151-.121.333-.08.505.041.173.149.322.3.415l.71-1.15c-.076-.047-.16-.078-.249-.092-.088-.014-.178-.01-.264.011-.087.022-.169.06-.24.113-.072.054-.132.121-.177.198z" fill="#533a71"/><path d="m233.7 471.15s.92 1.25 2 .63c.83-.47 1.79-1.05 3.1-1.7 1-.48 1.19.19 1.33.47 1.52 2.9 3.86 9.15 4.89 9.87.345.19.734.289 1.129.286.394-.003.781-.108 1.124-.304.342-.195.628-.476.831-.814.203-.339.315-.724.326-1.118-.1-1.25-4.3-6.44-6-9.22-.16-.27-.63-.8.27-1.39 1.22-.79 2.21-1.33 3-1.81 1.08-.62.47-2 .47-2zm13.1 8.43c-.156.089-.336.13-.515.117-.18-.012-.352-.078-.494-.189-.142-.11-.249-.26-.305-.431-.057-.171-.062-.354-.015-.528.048-.174.146-.329.282-.447s.304-.193.483-.215c.178-.023.36.008.521.089s.294.207.383.364c.119.209.15.458.086.69-.063.233-.217.43-.426.55z" fill="#533a71"/><path d="m239.218 451.849-12.441 7.11 3.98 6.963 12.441-7.11z" fill="#fbcb43"/><path d="m244.407 460.925-12.442 7.111.824 1.441 12.441-7.111z" fill="#fbcb43"/><path d="m243.203 458.802-12.441 7.111 1.21 2.118 12.442-7.11z" fill="#f5b400"/><path d="m243.976 460.138-12.484 7.135.357.625 12.485-7.135z" fill="#ccc"/><path d="m245.903 463.499-12.485 7.136.288.504 12.485-7.136z" fill="#ccc"/><path d="m244.629 461.268-12.484 7.136.997 1.745 12.485-7.136z" fill="#ccc"/><path d="m245.613 462.999-12.485 7.136.288.503 12.485-7.135z" fill="#b2b2b2"/><path d="m244.34 460.76-12.484 7.135.287.504 12.485-7.136z" fill="#b2b2b2"/><path d="m231.54 465.61-3.58-6.92 4.2 6.56z" fill="#f5b400"/><path d="m233.57 464.44-3.57-6.92 4.19 6.57z" fill="#f5b400"/><path d="m235.92 463.1-3.58-6.92 4.2 6.57z" fill="#f5b400"/><path d="m237.96 461.94-3.58-6.92 4.2 6.56z" fill="#f5b400"/><path d="m240 460.77-3.58-6.92 4.2 6.57z" fill="#f5b400"/><path d="m242.04 459.61-3.58-6.92 4.2 6.56z" fill="#f5b400"/><path d="m278.3 466.37h-57.55v23.93h57.55z" fill="#ff6b6b"/><path d="m278.3 487.92h-57.55v2.38h57.55z" fill="#d65050"/><path d="m371.68 480.14s-8.55-22.4-3.05-30.14 9.57 5.63 10.49 15.75 2.34 14.39 2.34 14.39-4.28-39.52 0-48 17.31-9.25 20.77 8.46c2.081 11.543 2.752 23.295 2 35z" fill="#94dd4e"/><path d="m378.84 457.05c-.344-1.369-.227-2.813.332-4.109.559-1.295 1.529-2.371 2.761-3.06 1.232-.688 2.656-.952 4.053-.75s2.688.859 3.674 1.869c.334-.315.695-.599 1.08-.85.361-.763.925-1.412 1.631-1.876s1.525-.725 2.369-.754c.993.002 1.953.357 2.71 1-.371-.741-.56-1.561-.55-2.39 0-2.14 1.15-3.87 2.56-3.87s2.45 1.56 2.55 3.55c1.282-.542 2.679-.757 4.065-.623 1.385.134 2.716.611 3.87 1.388 1.155.777 2.098 1.83 2.743 3.064.645 1.233.973 2.608.953 4-.02 1.391-.387 2.756-1.068 3.971-.68 1.214-1.652 2.24-2.829 2.983-1.177.744-2.52 1.183-3.909 1.276-1.389.094-2.779-.16-4.045-.739-.84 4.25-3.87 7.4-7.5 7.4-1.169-.009-2.314-.337-3.31-.95-.488 1.641-1.479 3.087-2.834 4.133s-3.005 1.64-4.716 1.697c-4.46 0-8.07-4-8.07-9-.017-1.411.287-2.807.89-4.082s1.489-2.396 2.59-3.278z" fill="#388c77"/><path d="m379.11 465.75c.888.017 1.757.268 2.518.726.762.458 1.39 1.107 1.822 1.884 1.076-.482 2.232-.76 3.41-.82 1.011-2.267 2.861-4.055 5.162-4.987s4.874-.937 7.178-.013c-.038-.248-.058-.499-.06-.75 0-2.21 1.37-4 3.06-4 .693.065 1.345.352 1.861.819.515.467.866 1.088.999 1.771 2.301-1.172 4.848-1.779 7.43-1.77 8.49 0 15.37 6.38 15.37 14.25s-6.88 14.25-15.37 14.25c-2.57.032-5.108-.568-7.391-1.749s-4.24-2.905-5.699-5.021c-1.247.531-2.592.791-3.947.763-1.355-.027-2.689-.342-3.913-.923-1.29.612-2.702.926-4.13.92-1.463.05-2.914-.279-4.213-.955-1.298-.677-2.399-1.677-3.197-2.905-.3.06-.604.09-.91.09-1.429-.146-2.753-.817-3.715-1.883-.963-1.066-1.496-2.451-1.496-3.887s.533-2.821 1.496-3.887c.962-1.066 2.286-1.737 3.715-1.883z" fill="#54b162"/></g></svg>