<svg fill="none" height="540" viewBox="0 0 387 540" width="387" xmlns="http://www.w3.org/2000/svg" xmlns:xlink="http://www.w3.org/1999/xlink"><clipPath id="a"><path d="m0 0h387v540h-387z"/></clipPath><g clip-path="url(#a)"><path d="m0 0h387v540h-387z" fill="#e5f1fe"/><path clip-rule="evenodd" d="m338.191 142.51c49.261 2.535 102.428-40.474 143.913-11.815 41.391 28.593 37.131 94.152 49.402 145.359 11.362 47.416 34.823 95.697 19.402 141.771-15.282 45.657-63.477 64.036-98.526 94.624-37.711 32.913-67.135 78.044-114.191 91.026-55.282 15.252-120.377 22.472-166.558-13.57-46.183-36.043-60.885-104.741-63.541-166.011-2.263-52.216 37.72-92.637 50.139-143.178 13.609-55.387-17.697-132.058 25.674-165.366 43.463-33.3786 100.926 24.415 154.286 27.16z" fill="#f6faff" fill-rule="evenodd"/><path d="m89.2336 452.724c-4.096 0-8.0242 1.628-10.9205 4.527-2.8963 2.898-4.5234 6.829-4.5234 10.927v67.768c0 1.06.4204 2.075 1.1688 2.824s1.7635 1.17 2.8219 1.17h22.9706c.524 0 1.043-.103 1.527-.304s.924-.495 1.294-.866c.371-.371.665-.811.866-1.295.2-.485.303-1.004.303-1.529v-67.768c0-2.034-.401-4.049-1.181-5.928-.78-1.88-1.924-3.586-3.365-5.022-1.4405-1.436-3.1506-2.573-5.0317-3.346s-3.8962-1.166-5.9297-1.158z" fill="#cde5ff"/><path d="m87.1185 455.232c-7.3587 0-13.3288 6.717-13.3288 15.007v65.819c-.0546.963.2741 1.909.9142 2.63.6401.722 1.5396 1.16 2.5018 1.22h19.8177c.9622-.06 1.8617-.498 2.5018-1.22.6398-.721.9688-1.667.9138-2.63v-65.811c0-8.29-5.9617-15.015-13.3205-15.015z" fill="#bbd9ff"/><path d="m118.972 411.24h238.347c3.789 0 7.422 1.507 10.102 4.188 2.679 2.681 4.184 6.317 4.184 10.109v63.096c-.004 2.811-1.124 5.506-3.113 7.492s-4.684 3.1-7.494 3.098h-245.721c-2.811 0-5.507-1.117-7.495-3.107-1.988-1.989-3.105-4.686-3.105-7.499v-63.096c.005-3.79 1.513-7.424 4.193-10.102 2.681-2.678 6.314-4.181 10.102-4.179z" fill="#bbd9ff"/><path d="m387.057 499.223h-291.6139v40.685h291.6139z" fill="#bbd9ff"/><path d="m105.779 487.339h264.733c.147-.002.294.027.43.084s.26.141.362.247c.103.106.184.232.237.37s.077.285.072.433v10.79h-266.928v-10.79c-.005-.147.019-.294.072-.431.052-.138.132-.263.234-.369s.225-.19.36-.247c.135-.058.281-.087.428-.087z" fill="#cde5ff"/><path d="m387.057 452.724c-2.028 0-4.037.4-5.91 1.176-1.874.777-3.577 1.915-5.011 3.35s-2.571 3.139-3.347 5.014c-.777 1.875-1.176 3.885-1.176 5.914v67.768c0 1.059.42 2.075 1.169 2.824.748.749 1.763 1.17 2.822 1.17h22.906c1.058 0 2.073-.421 2.822-1.17.748-.749 1.169-1.765 1.169-2.824v-67.768c0-4.098-1.627-8.029-4.524-10.928-2.896-2.898-6.824-4.526-10.92-4.526z" fill="#cde5ff"/><path d="m384.942 455.232c-7.359 0-13.329 6.717-13.329 15.007v65.819c-.055.963.274 1.909.914 2.63.64.722 1.54 1.16 2.502 1.22h19.818c.962-.06 1.861-.498 2.502-1.22.64-.721.968-1.667.914-2.63v-65.811c0-8.29-5.97-15.015-13.321-15.015z" fill="#bbd9ff"/><path d="m80.3264 539.908h315.6376v4.472h-315.2226c-.11 0-.2156-.043-.2934-.121-.0779-.078-.1216-.184-.1216-.294v-4.073z" fill="#93bef3"/><path d="m98.8192 556.824h-7.2471c-.4614 0-.904-.184-1.2303-.51-.3263-.327-.5096-.769-.5096-1.231v-13.426c0-.462.1833-.905.5096-1.231.3263-.327.7689-.51 1.2303-.51h11.0699c.27-.001.536.061.778.182.241.12.451.294.614.509.162.216.273.466.322.731.049.266.037.539-.038.798l-3.823 13.426c-.104.364-.324.684-.6264.912-.3025.228-.6709.351-1.0494.35z" fill="#93bef3"/><path d="m377.368 556.824h7.247c.461 0 .904-.184 1.23-.51.326-.327.51-.769.51-1.231v-13.426c0-.462-.184-.905-.51-1.231-.326-.327-.769-.51-1.23-.51h-11.063c-.269-.001-.535.061-.777.182-.241.12-.452.294-.614.509-.163.216-.273.466-.322.731-.05.266-.037.539.037.798l3.815 13.426c.105.364.325.684.627.912.303.228.671.351 1.05.35z" fill="#93bef3"/><g fill="#bbd4f3" opacity=".7" stroke="#fff" stroke-miterlimit="10" stroke-width="5"><path d="m149.022 278.875h-48.583v85.092h48.583z" opacity=".7"/><path d="m188.394 278.875h-23.529v41.212h23.529z" opacity=".7"/><path d="m243.018 261.177h-38.781v58.918h38.781z" opacity=".7"/><path d="m243.018 335.949h-69.174v36.46h69.174z" opacity=".7"/><path d="m282.382 347.042h-23.529v26.421h23.529z" opacity=".7"/><path d="m291.329 304.241h-32.476v26.421h32.476z" opacity=".7"/><path d="m282.382 261.177h-23.529v32.761h23.529z" opacity=".7"/><path d="m354.964 278.875h-48.582v85.092h48.582z" opacity=".7"/></g><path d="m-17.3651 488.425h-4.8766v-.471l.1996-99.037h.9418l-.2076 98.565h2.9771c-.0479-5.822-.0479-56.011 12.57058-70.523 6.073794-6.981 10.06447-9.968 12.17952-9.097 1.42068.575 1.32489 2.556 1.32489 2.636l-.94179-.048s.04789-1.398-.73428-1.718c-.78217-.319-3.36014-.071-11.11001 8.842-12.88191 14.815-12.33911 69.82-12.33121 70.372z" fill="#66c136"/><path d="m-14.0768 488.034-.9258-.16c0-.12 2.1789-12.052 12.50675-24.887 10.47151-13.019 16.03445-10.934 16.26595-10.838l-.3592.87.1756-.439-.1756.439c-.0479 0-5.25168-1.789-15.16449 10.559-10.18421 12.643-12.30721 24.336-12.32321 24.456z" fill="#72aa09"/><path d="m-6.61423 418.572s4.7888 6.917 6.832019 8.131c2.043221 1.214 10.048511 0 10.048511 0s-6.1217-5.072-4.2381-6.637c1.88359-1.566 4.1024 1.917 5.6667 2.843 1.5644.927 3.2883 2.188 6.425 1.398 3.1367-.791 4.3977-4.872 4.3977-4.872s-5.5151-.943-4.5573-3.642c.9577-2.7 5.8104 1.413 8.6358 0 2.8254-1.414 3.2963-8.961 2.8254-8.961s-5.6508 3.458-5.6508 0c0-3.459 2.985-2.396 5.8104-4.561 2.8254-2.164 4.1982-6.126 4.1982-6.126l-21.3182 6.917-15.8828 10.846z" fill="#66c136"/><path d="m8.07143 454.01c.81014 1.41 1.24184 3.006 1.25307 4.632.15963 3.067 0 8.881 2.3944 10.998 1.619 1.314 3.638 2.035 5.7226 2.044 0 0-2.1949-4.927.3911-5.055 2.5859-.128 3.1446 4.896 6.3851 6.86 3.2404 1.965 6.6723 2.125 9.6175 2.045 2.9451-.08 2.3146-1.653 2.3146-1.653s-6.0499-4.321-6.0499-6.757 2.5141-1.254 3.7273-.16c1.2131 1.094 2.554 3.994 6.0099 4.401s6.4409-2.747 6.4409-2.747-4.238-3.147-3.0648-3.619c1.1733-.471 3.847.943 5.8902 1.183 2.0433.239 4.5574-1.183 4.5574-1.183s-3.7672-6.445-7.9335-9.192c-4.1662-2.748-20.0251-6.39-20.0251-6.39z" fill="#66c136"/><path d="m-17.0538 438.292s2.6737-3.93 5.4193-3.77 7.98136 1.413 9.18654 3.77c.72683 1.528 1.15228 3.182 1.25306 4.872h-1.80377s3.926813 1.725 5.65078 4.4c1.72397 2.676 1.72396 10.687 1.72396 10.687s-5.339506-4.872-7.06347-5.032c-1.72397-.16-1.65214 2.987-1.65214 2.987s5.73059 2.516 6.38506 5.655c.65447 3.138-4.47752 9.504-6.52075 9.504h-2.04321s-5.17986-7.675-6.28126-4.744c-1.1015 2.931 4.62912 5.998 3.61549 7.731-1.01359 1.733-7.85359 6.054-7.85359 6.054s-4.709-13.33-4.709-13.777 4.693-28.337 4.693-28.337z" fill="#66c136"/><path d="m8.07143 454.01s18.21337-2.253 29.84217 1.861c11.6288 4.113 15.7073 9.137 15.7073 9.137s-.9418-10.655-3.4559-11.613c-2.5142-.959-8.4842-2.844-8.4842-4.417s1.8836-3.874 1.8836-3.874-4.3977-2.731-6.9118-2.731c-2.5142 0-6.1616 2.396-8.0452 2.731-1.8836.336-2.2348-.726-.9418-1.781 1.0245-.8 2.0901-1.547 3.1925-2.236 0 0-7.9813-2.005-12.4828 0-4.5014 2.005-10.30387 12.923-10.30387 12.923z" fill="#94dd4e"/><path d="m-6.61422 418.572s3.06483-4.376 17.31152-11.565c14.2467-7.188 23.066-10.83 23.066-10.83s-4.709-5.071-7.1832-4.832c-2.4742.24-4.2381 3.419-5.7705 3.89s-1.1812-4.832-1.1812-4.832-5.5391.239-6.0658 1.182c-.5268.942-.886 5.183-2.7695 5.774-.88502.318-1.8083.517-2.74562.591l1.59626-5.183s-3.64747-.471-6.12168 1.294-2.705664 3.298-3.064825 5.303c-.3591591 2.005-2.705675 5.183-3.535735 5.128-.83006-.056-.71034-6.19-.71034-6.19s-4.94842 2.124-6.38506 6.19c-1.4366 4.065 3.55968 14.08 3.55968 14.08z" fill="#94dd4e"/><path d="m75.1066 470.423h-128.3158v90.059h128.3158z" fill="#dda35e"/><path d="m3.92911 470.423h-57.13831v90.059h57.13831z" fill="#f7bf74"/><path d="m50.2847 470.423h-16.2181v16.229h16.2181z" fill="#fff1d9"/><path d="m87.1185 524.461h-72.1911v36.915h72.1911z" fill="#dda35e"/><path d="m47.0762 524.461h-32.1488v36.915h32.1488z" fill="#f7bf74"/><path d="m73.1512 524.461h-9.1227v6.653h9.1227z" fill="#fff1d9"/><path d="m131.622 353.264 1.98-12.427.383 12.659 5.914-1.006 1.501-12.652.439 12.316 23.991-4.097.751-16.397 1.508 15.974 5.811-.991s-.942-17.882-.392-19.855c.192-.679 1.078-1.118 2.147-1.43l-38.653 5.998s-4.398-2.883-5.834-1.11l-.376.456c-1.724 6.133-3.99 23.361-3.99 23.361z" fill="#e28100"/><path d="m178.042 319.065c-1.329.279-2.559.911-3.56 1.829 0 0-2.179-2.396-4.669-1.422-.713.265-1.354.691-1.875 1.245s-.906 1.222-1.126 1.95c0 0-2.745-3.115-5.291-1.829-1.399.624-2.575 1.66-3.369 2.971-.29-.664-.792-1.214-1.427-1.564-.635-.349-1.368-.479-2.084-.369-.773.108-1.505.412-2.127.883-.621.471-1.112 1.094-1.425 1.809 0 0-2.594-3.546-5.499-1.717l-2.897 1.821s-3.472-2.828-5.324-.695c-1.852 2.132-1.884 3.25-1.884 3.25-.735-.191-1.513-.145-2.221.132-.708.276-1.31.77-1.721 1.41-.348.617-.603 1.282-.759 1.973l.376-.456c1.444-1.773 5.834 1.11 5.834 1.11l38.653-5.998c1.27-.33 2.57-.53 3.879-.599l.344-.056h.574s-.359-6.03-2.402-5.678z" fill="#ffb942"/><path d="m165.281 347.087-4.488.771 23.82 138.814 4.488-.771z" fill="#ff6b6b"/><path d="m163.31 342.067-5.673.968 2.123 12.456 5.673-.969z" fill="#634d84"/><path d="m178.672 323.282-41.67 7.108c-.37.063-.724.198-1.042.398s-.593.46-.81.767c-.217.306-.372.652-.456 1.018-.083.366-.094.746-.031 1.116l2.052 11.98c.062.37.197.724.397 1.042.2.319.46.594.766.811.306.218.652.373 1.018.456.366.084.745.094 1.115.031l41.67-7.108c.37-.063.724-.198 1.042-.398s.593-.46.81-.767c.218-.306.372-.652.456-1.018.083-.366.094-.745.031-1.116l-2.051-11.98c-.063-.37-.198-.724-.398-1.042s-.46-.594-.766-.811c-.306-.218-.652-.372-1.018-.456-.366-.083-.745-.094-1.115-.031zm-26.051 18.945c.065.385-.025.78-.251 1.099s-.569.535-.954.602l-10.376 1.765c-.385.065-.78-.026-1.098-.252-.319-.226-.535-.569-.602-.954l-1.763-10.383c-.065-.385.025-.781.251-1.1.226-.318.569-.535.954-.601l10.375-1.765c.386-.065.781.025 1.099.252.319.226.535.569.601.954zm28.398-4.848c.065.385-.026.78-.252 1.099s-.568.535-.953.602l-10.376 1.765c-.385.065-.78-.026-1.099-.252s-.535-.569-.601-.954l-1.764-10.383c-.065-.385.026-.781.252-1.1.225-.318.568-.535.953-.601l10.376-1.765c.385-.065.78.025 1.099.252.318.226.535.569.601.954z" fill="#634d84"/><path d="m198.386 376.314h-5.483v106.209h5.483z" fill="#f7bf74"/><path d="m201.611 373.279h-12.539v6.469h12.539z" fill="#66c136"/><path d="m178.912 366.938h34.056v6.828c0 .115-.045.224-.126.305s-.191.127-.305.127h-33.194c-.115 0-.224-.046-.305-.127s-.126-.19-.126-.305z" fill="#66c136"/><path d="m212.968 345.006h-34.056v21.932h34.056z" fill="#634d84"/><g stroke="#533a71" stroke-miterlimit="10" stroke-width=".5"><path d="m182.511 345.006v21.932"/><path d="m188.841 345.006v21.932"/><path d="m192.009 345.006v21.932"/><path d="m198.346 345.006v21.932"/><path d="m201.515 345.006v21.932"/><path d="m204.684 345.006v21.932"/><path d="m211.021 345.006v21.932"/></g><path d="m203.321 298.634-52.569 3.236.227 3.691 52.569-3.236z" fill="#533a71"/><path d="m179.867 308.949-5.473.337 10.407 169.296 5.472-.337z" fill="#f7bf74"/><path d="m182.816 305.99-12.451.766.364 5.931 12.452-.766z" fill="#1c8ff7"/><path d="m199.883 300.174-46.444 2.859.292 4.743 46.443-2.858z" fill="#1c8ff7"/><path d="m227.594 350.674-3.231-.611-18.856 99.955 3.232.61z" fill="#f7bf74"/><path d="m228.465 348.664-4.659-.88c-.303-.057-.595.142-.653.446l-.747 3.963c-.058.304.142.596.445.653l4.659.88c.303.057.595-.142.652-.445l.748-3.964c.057-.303-.142-.596-.445-.653z" fill="#ff6b6b"/><path d="m223.384 349.862 5.443 1.03c1.052.199 2.137.114 3.146-.246 1.008-.359 1.903-.98 2.593-1.798l8.165-9.728c-8.434-5.073-18.377-7.031-28.103-5.535l4.159 12.244c.338 1.02.943 1.932 1.751 2.641s1.79 1.189 2.846 1.392z" fill="#ff6b6b"/><path d="m252.667 317.723-5.299 3.993 2.801-5.83c-2.223-1.557-4.591-2.894-7.071-3.993l-5.34 9.16 2.834-10.175c-6.36-2.334-13.188-3.101-19.906-2.236l-.551 3.993-.55-3.817c-.567.088-1.134.183-1.7.295l-.543 7.468-1.916-6.885c-2.736.708-5.394 1.69-7.933 2.931l7.135 21.022c9.719-1.516 19.661.42 28.102 5.471l14.511-17.14c-1.418-1.53-2.946-2.953-4.574-4.257z" fill="#634d84"/><path d="m220.056 539.301h4.788c3.648 0 6.617 3.61 6.617 8.066 0 4.457-2.969 8.083-6.617 8.083h-4.788c3.647 0 6.616-3.626 6.616-8.083 0-4.456-2.953-8.066-6.616-8.066z" fill="#533a71"/><path d="m220.056 539.301c3.647 0 6.616 3.61 6.616 8.066 0 4.457-2.969 8.083-6.616 8.083-3.648 0-6.609-3.626-6.609-8.083 0-4.456 2.953-8.066 6.609-8.066z" fill="#533a71"/><path d="m215.905 536.154v12.14c0 .729.29 1.427.804 1.943.515.515 1.214.804 1.942.804h1.357c.643.001 1.271-.203 1.792-.582.52-.379.907-.913 1.105-1.526l4.15-12.779z" fill="#533a71"/><path d="m282.47 539.301h4.788c3.648 0 6.617 3.61 6.617 8.066 0 4.457-2.969 8.083-6.617 8.083h-4.788c3.647 0 6.616-3.626 6.616-8.083 0-4.456-2.969-8.066-6.616-8.066z" fill="#533a71"/><path d="m282.47 539.301c3.647 0 6.616 3.61 6.616 8.066 0 4.457-2.969 8.083-6.616 8.083-3.648 0-6.609-3.626-6.609-8.083 0-4.456 2.929-8.066 6.609-8.066z" fill="#533a71"/><path d="m278.319 536.154v12.14c0 .729.29 1.427.804 1.943.515.515 1.214.804 1.942.804h1.357c.643.001 1.271-.203 1.792-.582.52-.379.907-.913 1.105-1.526l4.15-12.779z" fill="#533a71"/><path d="m140.37 401.481h86.47v96.728c0 4.512-1.791 8.839-4.98 12.029-3.188 3.19-7.512 4.983-12.021 4.983h-52.469c-4.509 0-8.833-1.793-12.021-4.983s-4.979-7.517-4.979-12.029z" fill="#e28100"/><path d="m140.37 401.481h32.093v97.678c0 2.11-.415 4.198-1.222 6.147-.806 1.948-1.989 3.719-3.479 5.21-1.491 1.492-3.26 2.675-5.207 3.482-1.948.807-4.035 1.223-6.143 1.223-2.107 0-4.194-.416-6.142-1.223-1.947-.807-3.717-1.99-5.207-3.482-1.49-1.491-2.673-3.262-3.479-5.21-.807-1.949-1.222-4.037-1.222-6.147v-97.678z" fill="#ffb942"/><path d="m236.21 414.954h-6.074v115.721h6.074z" fill="#533a71"/><path d="m236.21 467.867h-78.153v6.014h78.153z" fill="#533a71"/><path d="m179.71 467.867h-21.653v6.014h21.653z" fill="#634d84"/><path d="m163.867 417.247h-5.81v113.436h5.81z" fill="#634d84"/><path d="m176.278 420.505h59.932v-12.683h-59.932z" fill="#533a71"/><path d="m179.71 417.247h-5.81v113.436h5.81z" fill="#533a71"/><path d="m240.951 397.256h-111.396c-.736 0-1.333.597-1.333 1.333v7.899c0 .737.597 1.334 1.333 1.334h111.396c.736 0 1.333-.597 1.333-1.334v-7.899c0-.736-.597-1.333-1.333-1.333z" fill="#533a71"/><path d="m180.484 397.256h-50.929c-.736 0-1.333.597-1.333 1.333v7.899c0 .737.597 1.334 1.333 1.334h50.929c.736 0 1.333-.597 1.333-1.334v-7.899c0-.736-.597-1.333-1.333-1.333z" fill="#634d84"/><path d="m176.278 420.505h-13.784c-1.094 0-2.166-.305-3.096-.881-.931-.575-1.682-1.399-2.171-2.378l-4.709-9.424h23.76z" fill="#634d84"/><path d="m220.319 431.846h-33.306l.423 4.194h23.649l-.495 31.827h6.129z" fill="#8a3131"/><path d="m187.436 436.04 3.184 31.827h19.97l.495-31.827z" fill="#ff6b6b"/><path d="m220.79 429.818h-34.839c-.202 0-.367.164-.367.367v2.979c0 .203.165.368.367.368h34.839c.203 0 .367-.165.367-.368v-2.979c0-.203-.164-.367-.367-.367z" fill="#8a3131"/><path d="m212.433 429.818h-26.482c-.202 0-.367.164-.367.367v2.979c0 .203.165.368.367.368h26.482c.203 0 .368-.165.368-.368v-2.979c0-.203-.165-.367-.368-.367z" fill="#ff6b6b"/><path d="m201.722 453.251h-10.814c-.675.001-1.341-.153-1.947-.45s-1.136-.728-1.55-1.262c-.414-.533-.7-1.155-.837-1.816s-.12-1.345.048-1.999l1.436-5.439.296 2.62-.751 3.075c-.128.504-.14 1.031-.035 1.541.106.51.327.988.645 1.4.319.411.728.744 1.194.974.467.229.981.349 1.501.35h10.814c1.952-.005 3.854-.61 5.449-1.735 1.596-1.125 2.806-2.714 3.467-4.551l4.9-13.689.95.343-4.901 13.69c-.732 2.031-2.072 3.788-3.837 5.031s-3.869 1.912-6.028 1.917z" fill="#533a71"/><path d="m215.522 433.627c.538 0 .974-.436.974-.974s-.436-.974-.974-.974-.974.436-.974.974.436.974.974.974z" fill="#533a71"/><path d="m298.911 530.675h-140.854v7.923h140.854z" fill="#533a71"/><path d="m233.169 530.675h-75.112v7.923h75.112z" fill="#634d84"/><path d="m291.616 482.331h-103.35c-.459 0-.83.372-.83.831v4.944c0 .458.371.83.83.83h103.35c.459 0 .83-.372.83-.83v-4.944c0-.459-.371-.831-.83-.831z" fill="#e28100"/><path d="m227.654 482.331h-39.388c-.459 0-.83.372-.83.831v4.944c0 .458.371.83.83.83h39.388c.458 0 .83-.372.83-.83v-4.944c0-.459-.372-.831-.83-.831z" fill="#ffb942"/><path d="m276.811 530.675h-73.149c-1.482 0-2.914-.535-4.034-1.506s-1.853-2.313-2.064-3.781l-5.587-38.576h96.511l-5.587 38.576c-.211 1.466-.943 2.808-2.061 3.778-1.118.971-2.549 1.507-4.029 1.509z" fill="#e28100"/><path d="m221.756 530.675h-19.491c-1.095 0-2.153-.395-2.982-1.112-.828-.717-1.37-1.709-1.527-2.794l-5.771-39.934h34.32v39.303c-.006 1.204-.488 2.357-1.34 3.207-.853.85-2.006 1.328-3.209 1.33z" fill="#ffb942"/><path d="m225.188 482.331s-3.608.527-4.869 2.508-1.389 23.25-1.389 23.25h-25.62s2.506-24.967 3.193-26.285c.686-1.318 5.012-.799 5.012-.799s3.304-1.19 4.789-1.054c1.919.368 3.814.853 5.674 1.454 0 0 7.255-.927 9.235-.927 1.979 0 3.975 1.853 3.975 1.853z" fill="#e6f0fc"/><path d="m163.061 539.301h4.789c3.647 0 6.616 3.61 6.616 8.066 0 4.457-2.969 8.083-6.616 8.083h-4.789c3.647 0 6.616-3.626 6.616-8.083 0-4.456-3.001-8.066-6.616-8.066z" fill="#634d84"/><path d="m163.061 539.301c3.647 0 6.616 3.61 6.616 8.066 0 4.457-2.969 8.083-6.616 8.083-3.648 0-6.609-3.626-6.609-8.083 0-4.456 2.922-8.066 6.609-8.066z" fill="#533a71"/><path d="m158.879 536.154v12.14c0 .729.289 1.427.804 1.943.515.515 1.213.804 1.941.804h1.357c.644.001 1.271-.203 1.792-.582s.908-.913 1.105-1.526l4.151-12.779z" fill="#634d84"/><path d="m225.435 539.301h4.789c3.647 0 6.616 3.61 6.616 8.066 0 4.457-2.969 8.083-6.616 8.083h-4.789c3.647 0 6.617-3.626 6.617-8.083 0-4.456-2.962-8.066-6.617-8.066z" fill="#634d84"/><path d="m225.435 539.301c3.647 0 6.617 3.61 6.617 8.066 0 4.457-2.97 8.083-6.617 8.083s-6.609-3.626-6.609-8.083c0-4.456 2.962-8.066 6.609-8.066z" fill="#533a71"/><path d="m221.325 536.154v12.14c0 .729.289 1.427.804 1.943.515.515 1.213.804 1.941.804h1.357c.644.001 1.271-.203 1.792-.582.52-.379.908-.913 1.105-1.526l4.151-12.779z" fill="#634d84"/><path d="m321.562 288.387s27.32 9.153 34.248 21.237 11.174 32.203 11.174 32.203l-19.403 8.418-5.938-10.798-2.578 22.587-59.501-2.396 1.19-19.416-19.403-4.952s2.873-26.852 15.843-35.142 23.01-11.325 23.01-11.325z" fill="#ff6b6b"/><path d="m318.761 286.942s4.118 1.677 4.549 3.194c.431 1.518-9.474 7.923-17 7.236-7.527-.686-8.317-5.055-7.918-6.74.399-1.686 4.606-2.972 4.606-2.972z" fill="#d65050"/><path d="m328.075 249.012c-.77-1.801-1.928-3.41-3.39-4.714-1.462-1.303-3.193-2.267-5.07-2.825-3.736-1.03-7.734-.24-11.573-.799-2.251-.319-4.414-1.086-6.641-1.597-2.207-.607-4.544-.551-6.72.16-.923.382-1.743.976-2.394 1.733.972-.746 2.093-1.274 3.286-1.55 1.194-.275 2.433-.292 3.633-.048 2.693.616 5.101 2.118 6.84 4.265 2.275 2.676 3.632 6.046 5.962 8.682 1.485 1.654 3.311 2.965 5.352 3.843 2.041.879 4.248 1.303 6.469 1.245 1.833-.074 3.637-.483 5.323-1.206.231-2.448-.139-4.916-1.077-7.189z" fill="#533a71"/><path d="m312.008 252.327c-2.33-2.628-3.687-5.998-5.962-8.682-1.739-2.147-4.147-3.649-6.84-4.265-1.2-.244-2.439-.227-3.633.048-1.193.276-2.314.804-3.286 1.55-.442.456-.788.995-1.02 1.585-.232.591-.343 1.222-.329 1.857.08 1.414.798 2.684 1.452 3.993.655 1.31 1.11 2.748.647 4.09-.399 1.15-1.477 2.068-1.509 3.282.042.521.209 1.024.487 1.466s.659.811 1.11 1.074c.905.516 1.774 1.092 2.602 1.725.877.799.87 1.861 1.34 2.867.596 1.1 1.29 2.143 2.076 3.115 1.527 2.259 3.55 4.138 5.914 5.495 2.576 1.296 5.492 1.751 8.34 1.302 2.838-.451 5.529-1.568 7.854-3.259 3.229-2.246 5.696-5.425 7.071-9.112.465-1.371.747-2.797.838-4.241-1.686.723-3.49 1.132-5.323 1.206-2.223.058-4.432-.367-6.474-1.247-2.043-.88-3.869-2.193-5.355-3.849z" fill="#3d2c56"/><path d="m119.164 338.856s3.99 15.854 4.357 16.908l.399 1.054h-19.386z" fill="#c66f7e"/><path d="m83.6706 300.783s-12.7063 1.486-17.6547 7.036c-4.9484 5.551-17.088 33.209-17.088 33.209l16.4335 8.618 4.7888-7.531 6.3372 20.31 35.4446-1.19 3.369-17.044 7.622-3.865s-4.949-32.099-11.086-35.566c-3.704-2.085-7.867-3.221-12.1159-3.306z" fill="#ff6b6b"/><path d="m73.4465 292.684c2.697-1.9 4.7516-4.577 5.8902-7.675 1.5963-4.856-1.0854-7.627-1.3887-13.522-.1235-4.177.1437-8.356.7981-12.483l-2.0113-.248h-3.0648l-4.1583 3.818-1.0855 7.484 2.1311 7.779z" fill="#3d2c56"/><path d="m103.44 256.72c.386.01.771-.022 1.15-.096.962-.033 1.925.056 2.865.264 1.119.212 2.168.697 3.054 1.411.887.715 1.584 1.637 2.03 2.686.703 1.656.946 3.472.702 5.255-.255 1.701-1.404 3.139-2.546 4.345-2.394 2.532-4.326 5.071-4.717 8.666-.263 2.396.663 5.303-.447 7.563l-.063.12c-1.597 3.075-10.9827 5.199-10.9827 5.199l-11.0462-9.065s-2.2268.048-5.6428-3.993-3.9906-10.599-3.9906-10.599-2.3944 2.229-2.1789 5.248 2.6737 6.046 3.3202 9.408c.6465 3.363 1.9794 7.037-1.5324 9.584-3.5118 2.548-5.9381 2.804-5.8424.336.0958-2.468 3.3203-.927.8381-7.915-2.4822-6.989-7.3269-8.666-5.2438-18.53 2.0832-9.863 11.581-8.617 12.5706-8.226l.9897.399s-4.2061-.447-4.8526 3.818 1.9794 4.065 1.9794 4.065.7422-6.341 4.5014-9.712c3.7592-3.37 14.7894-10.478 25.085-.231z" fill="#533a71"/><path d="m104.662 263.948c-.26 2.132-1.174 4.131-2.616 5.722-1.442 1.59-3.3422 2.694-5.4377 3.159-7.5264 1.853-9.7691 6.869-10.9583 6.469-1.1892-.399-4.2222-4.36-5.6748-2.507-1.4526 1.852-2.115 5.287 1.0536 6.74l3.1925 1.454-.5507 15.798c2.2213 1.121 4.5723 1.963 6.9996 2.508 3.432.663 8.979-1.853 8.979-1.853l-.5267-8.722s5.8105-.798 7.6545-6.206c1.843-5.407-.527-20.605-.527-20.605z" fill="#fb919f"/><path d="m89.7045 290.775 9.41 1.973.1596 2.508z" fill="#c66f7e"/><path d="m96.6083 286.487s1.7878 2.723 4.0627 2.627c2.274-.096 2.769-2.771 2.769-2.771v-.248z" fill="#fff"/><path d="m104.661 263.948 1.597 1.981 1.021 9.152c.783-1.525 1.813-2.91 3.049-4.097 2.028-1.933 2.323-5.295 1.597-6.685-.727-1.389-7.264-.351-7.264-.351z" fill="#3d2c56"/><path d="m105.324 540.97h12.411s2.817-33.96 4.789-66.977c-2.181-.8-4.184-2.018-5.898-3.586-1.873-1.757-3.352-3.891-4.339-6.262-.988-2.371-1.463-4.924-1.392-7.492.128-3.849 1.492-7.547 2.075-11.357s.224-8.114-2.482-10.854c-1.253-1.262-2.889-2.068-4.31-3.139-4.669-3.522-7.1034-9.424-8.7795-15.039 0 0 5.2835 62.353 5.5475 76.354.263 14.001 2.378 48.352 2.378 48.352z" fill="#0078fa"/><path d="m71.946 374.813 4.294-12.923s-2.0911 5.607-4.294 12.923z" fill="#1c8ff7"/><path d="m113.241 362.433c-.742-4.441 5.053-21.78 2.906-27.514-1.054-2.82-1.756-4.832-2.203-6.174-.782-6.183-1.917-12.317-3.4-18.37-.628-2.483-1.428-4.92-2.395-7.292-2.538-.938-5.206-1.477-7.909-1.597.982 1.517 2.682 4.728 4.206 10.534 1.21 4.899 2.163 9.858 2.857 14.856l-20.2643.503c-.7103-2.228-1.5005-4.656-2.4423-7.46-2.0321-6.102-4.5021-12.049-7.3907-17.794-2.0677.541-4.084 1.263-6.0259 2.156 2.9103 5.691 5.3862 11.594 7.4067 17.659 1.692 5.032 2.977 9.089 3.9907 12.252l-3.1287 13.849c4.2939 3.378 6.2733 2.188 8.6517 7.867 2.3785 5.678-16.0664 18.961-16.0983 18.985-1.1493 3.833-2.3226 8.114-3.2404 12.323-2.6738 12.284-7.4626 50.988-7.9814 70.012-.5187 19.025-3.5117 87.951-3.5117 87.951h11.086s13.4645-73.479 20.3285-99.076c6.8639-25.598 8.7156-29.855 8.7156-29.855 1.6521 5.591 4.0945 11.517 8.7795 15.039 1.421 1.07 3.057 1.877 4.31 3.139 2.714 2.732 3.073 7.044 2.482 10.854s-1.947 7.508-2.075 11.357c-.071 2.568.404 5.121 1.392 7.492.987 2.371 2.466 4.505 4.339 6.262 1.714 1.567 3.717 2.786 5.898 3.586 1.093-18.506 1.923-36.74 1.827-48.472-.279-32.754-10.367-58.631-11.11-63.072z" fill="#1c8ff7"/><path d="m75.7531 334.759-5.6747 7.364 6.1696 19.767 3.1366-13.865c-4.2939-3.379-3.6315-13.266-3.6315-13.266z" fill="#d65050"/><path d="m88.0364 355.892c-2.3944-5.679-4.3578-4.489-8.6518-7.867l-3.1366 13.865-4.294 12.923v.064s18.4768-13.306 16.0824-18.985z" fill="#0078fa"/><path d="m89.7045 335.685h22.6985c.741 2.028 1.061 4.186.942 6.342-.231 3.434-1.684 11.229-1.684 11.229s-5.355 2.245-9.21 2.245c-3.6027-.177-7.1921-.559-10.7512-1.143-.5548-.084-1.0608-.365-1.4257-.792-.3648-.426-.5642-.97-.5616-1.532z" fill="#0078fa"/><path d="m295.423 252.455v23.257s.2 7.388 6.337 8.051c0 0-.135 4.888-.399 5.942-.154.626-.399 1.226-.726 1.781 0 0 1.253 2.58 7 2.844 5.746.263 12.339-5.527 12.339-5.527-.402-.32-.733-.721-.972-1.176-.24-.455-.381-.955-.417-1.468-.199-1.853.663-13.474.663-13.474s4.485-1.317 3.99-5.678-2.841-1.653-4.222-1.653-1.652-6.206-1.652-6.39-2.307-1.054-3.568-3.235c-1.261-2.18.064-2.843-1.516-3.57-1.58-.726-16.857.296-16.857.296z" fill="#fb919f"/><path d="m301.753 283.763s2.178.799 6.536-.727c4.358-1.525 6.074-4.097 6.074-4.097-.054 1.284-.369 2.544-.925 3.702-.555 1.159-1.341 2.193-2.307 3.039-3.305 2.907-9.578 2.699-9.578 2.699z" fill="#c66f7e"/><path d="m306.805 275.664s-1.996 3.043-4.534 2.932c-2.538-.112-3.088-3.099-3.088-3.099v-.272z" fill="#fff"/><path d="m301.752 408.996-3.759-1.989c4.55 8.155 2.905 19.416-3.36 26.357-2.538 2.803-5.874 5.103-7.183 8.641-2.57 6.781 3.408 14.225 2.035 21.349-1.077 5.591-6.568 9.433-12.155 10.383-.383.064-.799.096-1.158.144 0 31.851.264 63.096.264 63.096h17.822s10.871-95.083 12.467-108.166l1.596-13.074s-2.801-4.736-6.569-6.741z" fill="#0078fa"/><path d="m341.556 412.766c-3.193-33.289-2.474-50.724-2.474-50.724s-7.622-2.772-7.982-18.234c-.231-9.009 0-15.527.248-19.4.028-.853-.218-1.693-.703-2.396.751-7.236 1.86-18.641 2.028-23.841.062-1.784.019-3.571-.128-5.351-2.634-1.19-5.012-2.172-6.888-2.899.618 2.641.847 5.359.679 8.067-.136 4.632-1.118 14.807-1.844 21.971l-34.416-1.493c.799-9.025 1.956-21.748 2.507-24.472.185-.929.542-1.814 1.053-2.612-2.139.927-4.717 2.133-7.614 3.658-.726 5.591-1.804 17.611-2.395 24.456-.663.498-1.206 1.138-1.592 1.873-.385.735-.602 1.547-.634 2.376 0 0-4.358 66.29-4.949 102.343-.207 12.779-.271 30.406-.263 47.865.383-.048.798-.08 1.157-.144 5.587-.982 11.078-4.84 12.156-10.383 1.372-7.124-4.606-14.56-2.036-21.349 1.341-3.538 4.678-5.838 7.184-8.641 6.265-6.925 7.909-18.186 3.36-26.357l3.759 1.981c3.759 1.981 6.537 6.741 6.537 6.741 1.82 4.724 3.157 9.621 3.99 14.616 1.597 8.969 20.991 106.655 20.991 106.655h17.575s-6.137-91.017-9.306-124.306z" fill="#1c8ff7"/><path d="m291.449 328.066 29.339.966c.457.015.905.122 1.319.315.414.194.785.469 1.09.809s.538.739.685 1.172c.147.432.205.89.17 1.346l-1.365 17.308c-.202 2.594-1.406 5.008-3.356 6.73s-4.493 2.616-7.091 2.494l-15.428-.718c-2.635-.125-5.115-1.285-6.9-3.23-1.784-1.944-2.729-4.515-2.63-7.153l.663-16.772c.015-.445.118-.883.303-1.288.184-.405.447-.769.772-1.073.325-.303.707-.539 1.124-.695.417-.155.86-.227 1.305-.211z" fill="#0078fa"/><path d="m351.54 535.307h-19.969c-.172 0-.312.14-.312.312v9.4c0 .172.14.312.312.312h19.969c.172 0 .311-.14.311-.312v-9.4c0-.172-.139-.312-.311-.312z" fill="#389df9"/><path d="m294.513 535.307h-19.969c-.172 0-.311.14-.311.312v9.4c0 .172.139.312.311.312h19.969c.172 0 .312-.14.312-.312v-9.4c0-.172-.14-.312-.312-.312z" fill="#389df9"/><path d="m200.134 501.363-14.191 21.101 12.116 5.575 6.058-6.23-2.219 7.995 10.551 4.848 6.369-7.539-2.53 9.312 3.975-4.864-.854 6.294 31.662 14.568 6.09-8.834-2.49 10.487 11.996 5.519 3.088-6.725-.934 7.715 5.045 2.317 4.182-21.916z" fill="#533a71"/><path d="m349.967 282.698-4.307-1.981c-.401-.185-.874-.009-1.059.392l-105.443 229.513c-.184.401-.009.875.392 1.059l4.307 1.982c.401.184.874.009 1.059-.392l105.443-229.513c.184-.401.009-.875-.392-1.06z" fill="#f7bf74"/><path d="m283.63 531.952-83.865-38.583c-.225-.103-.49-.005-.593.219l-4.038 8.788c-.103.225-.004.49.22.593l83.866 38.583c.224.103.489.005.592-.219l4.038-8.788c.103-.225.005-.49-.22-.593z" fill="#ff6b6b"/><path d="m253.946 512.189-19.848-9.131c-.348-.16-.76-.007-.921.341l-1.736 3.781c-.161.349-.008.761.34.922l19.848 9.131c.349.16.761.007.921-.341l1.737-3.781c.16-.349.008-.761-.341-.922z" fill="#ff6b6b"/><path d="m335.458 334.096s-10.735-5.687-12.1-8.889c-1.365-3.203 3.991-11.326 4.661-12.715.67-1.39.91-5.591 2.482-5.551 1.573.04 6.289 6.389 6.289 6.389l1.748-3.802s3.249 9.856 3.648 14.017 15.579 22.251 15.579 22.251l8.197-3.482s10.376 21.149 0 27.882c-10.375 6.733-19.65-9.943-30.504-36.1z" fill="#fb919f"/><path d="m357.734 345.845 5.403 6.876s5.252-3.458 2.825-10.447z" fill="#c66f7e"/><path d="m263.067 335.725s-5.108 16.03 1.365 28.497c2.474 4.792 9.929 10.175 14.877 13.01 4.948 2.836 8.716 4.793 8.716 4.793s6.464 7.004 8.252 8.122 4.422 1.597 5.547 1.054c.332-.19.602-.472.778-.812.175-.34.249-.724.212-1.104 0 0 4.294-3.235 4.621-5.479.327-2.245.663-3.634-.399-4.297-1.546-1.249-3.022-2.582-4.422-3.994 0 0 2.922 1.246 4.725 1.845 1.804.599 3.991.999 3.991-.255s-3.895-1.917-5.02-3.195c-1.126-1.278-4.095-3.307-6.074-3.37-1.838.048-3.67.225-5.483.527 0 0-18.237-9.513-17.974-16.773.238-4.911.831-9.798 1.772-14.623z" fill="#fb919f"/><path d="m146.763 335.769-7.665-2.574-11.52 34.354 7.665 2.574z" fill="#0078fa"/><path d="m129.607 354.335-28.839-13.365-10.3741 22.416 28.8391 13.365z" fill="#bbd4f3" stroke="#fff" stroke-miterlimit="10"/><path d="m142.317 350.373h-59.8277v41.995h59.8277z" fill="#dda35e"/><path d="m109.131 350.373h-26.6417v41.995h26.6417z" fill="#f7bf74"/><path d="m52.3439 342.841s-7.0156 12.667-6.2255 18.61c.7902 5.942 35.0461 22.978 35.0461 22.978s4.3577 7.331 5.938 8.521c1.5803 1.191 8.5161.991 8.5161.991s3.4639 1.597 4.4054.99c.942-.607 1.333-2.444 1.333-2.444l-1.9792-.136s-2.969-3.697-3.0329-3.897c.021-.511.0877-1.019.1996-1.518 0 0 1.9793 1.254 2.6418 1.718.4242.304.9137.504 1.4297.585.515.08 1.043.038 1.539-.122.926-.463-.526-2.181-1.915-3.371-1.3889-1.19-5.0204-5.479-7.1834-5.59l-5.1479-.328s-27.0647-20.079-26.8013-22.459 3.4559-8.098 3.4559-8.098z" fill="#fb919f"/><path d="m61 97c-23.6939 96.866-46.5 226.5-64.5 226.5l-50.5-354.5 486.5-10c-5.333 40.000004-36.6 109.7-119 68.5-103-51.5-235.5 0-252.5 69.5z" fill="#83beff"/></g></svg>