<svg fill="none" height="540" viewBox="0 0 387 540" width="387" xmlns="http://www.w3.org/2000/svg" xmlns:xlink="http://www.w3.org/1999/xlink"><clipPath id="a"><path d="m0 0h387v540h-387z"/></clipPath><g clip-path="url(#a)"><path d="m127.58 272c8.58-34.72 5.22-71.09 5.55-106.86.45-48.9 8.51-99.24 34.57-140.62 5.548-8.7817 11.949-16.99473 19.11-24.52h-186.81v390.27c21.5914-3.637 42.2027-11.681 60.55-23.63 33.3609-22.087 57.267-55.84 67.03-94.64z" fill="#58afff"/><path d="m119.48 471.54c46.94-10.58 92.17-34.57 121-73.12 17.09-22.87 27.74-49.77 40.89-75.12s29.85-50.24 54.66-64.37c15.2-8.65 34.07-12.09 51-8.77v-250.16h-200.22c-7.161 7.52843-13.562 15.7449-19.11 24.53-26.06 41.38-34.12 91.72-34.57 140.62-.33 35.77 3 72.14-5.55 106.86-9.758 38.792-33.6524 72.54-67 94.63-18.3563 11.953-38.9782 19.997-60.58 23.63v87.23c40 3.11 80.42 2.84 119.48-5.96z" fill="#c9e3fc"/><path d="m336 258.93c-24.81 14.12-41.52 39-54.66 64.37s-23.8 52.24-40.89 75.12c-28.8 38.55-74 62.53-121 73.12-39.03 8.8-79.45 9.07-119.45 5.96v62.5h387v-289.83c-16.93-3.32-35.8.11-51 8.76z" fill="#e5f1ff"/><path d="m386.51 437.87c.16-2.38-.88-5-2.87-5.85-.518-.168-1.07-.207-1.607-.112s-1.042.32-1.472.656c-.429.335-.77.771-.991 1.269-.222.498-.318 1.043-.28 1.587-1.84-2.362-4.248-4.22-7-5.4l-2.81 6c-.826-2.07-2.1-3.931-3.73-5.45l-3.21 6.14c-3-3.47-9.23-1.21-9.87 3.56-.23-2.38-2.31-4.32-4.42-4.15s-3.92 2.43-3.85 4.82c-1.47-3.01-3.404-5.77-5.73-8.18-1.811 3.616-2.169 7.788-1 11.66-.922-1.568-2.405-2.726-4.15-3.24l-1.94 5.15c-1.34-3.78-7.55-2.5-7.62 1.57-.455-1.242-1.308-2.298-2.425-3.005-1.118-.707-2.438-1.025-3.755-.905-1.32.274-2.523.951-3.442 1.938s-1.509 2.235-1.688 3.572c-.55-3.13-4.2-4.45-6.86-3.34s-4.49 3.8-6.18 6.36c-.61-2.41-3.53-3.24-5.54-2.17s-3.24 3.39-4.17 5.67c-3.47-3.22-9.65-1-10.85 3.86-.315-1.408-1.107-2.664-2.241-3.557-1.134-.892-2.542-1.366-3.985-1.341-1.442.024-2.833.546-3.936 1.477-1.103.93-1.851 2.213-2.118 3.631l-4.12-2.28c-1.719 1.466-2.881 3.478-3.29 5.7-1.39-1.69-4-1.21-5.5.39s-2.09 3.93-2.65 6.15c-.24-2-2.71-2.82-4.32-1.91s-2.54 2.85-3.36 4.67c.53 0 1 1.15 1.5 1.15h141.97v-36.96c-.197.27-.362.562-.49.87z" fill="#8bc4ef"/><path d="m326.55 468c-.38-2.06-3.42-2.5-4.25-.61l-.09-3.87c-1.252.331-2.376 1.027-3.23 2 .186-.261.312-.561.368-.877.055-.316.04-.64-.045-.95-.085-.309-.238-.595-.448-.838s-.471-.436-.765-.565c-.617-.125-1.257-.039-1.82.244-.562.283-1.013.746-1.28 1.316.69-1.93-1.81-4-3.27-2.77.16-1.93-2.65-3-3.55-1.34.019-.591-.083-1.18-.299-1.73-.217-.551-.544-1.051-.961-1.47-.216-.169-.472-.279-.744-.318-.271-.039-.548-.006-.803.095s-.479.267-.649.482c-.171.214-.283.47-.324.741-.47-1.33-1.28-2.91-2.54-2.75-.383.079-.744.239-1.06.47l-3.89 2.43c.082-.519-.009-1.05-.258-1.513-.249-.462-.643-.83-1.122-1.047-.482-.145-1.001-.103-1.453.118-.452.22-.805.603-.987 1.072.068-.573-.031-1.153-.285-1.671-.254-.517-.651-.951-1.145-1.249-.26-.087-.536-.108-.806-.061-.27.046-.524.159-.739.327-.216.168-.387.387-.498.637-.11.25-.158.524-.137.797-.92-1.181-2.124-2.11-3.5-2.7l-1.41 3c-.411-1.036-1.046-1.969-1.86-2.73l-1.6 3.07c-1.49-1.73-4.62-.61-4.94 1.78-.04-.561-.29-1.086-.699-1.471-.409-.386-.949-.603-1.511-.609-.559.099-1.064.398-1.419.841-.355.444-.537 1.001-.511 1.569-.733-1.505-1.699-2.885-2.86-4.09-.906 1.808-1.085 3.894-.5 5.83-.462-.785-1.206-1.364-2.08-1.62l-1 2.57c-.67-1.89-3.77-1.25-3.81.78-.22-.629-.643-1.168-1.202-1.53-.56-.362-1.224-.527-1.888-.47-.66.137-1.262.477-1.72.972-.459.494-.752 1.119-.84 1.788-.088-.353-.253-.682-.482-.964-.229-.283-.517-.512-.844-.671-.326-.159-.684-.245-1.048-.251-.363-.006-.724.068-1.056.216-1.314.741-2.387 1.845-3.09 3.18-.088-.271-.234-.519-.43-.725-.195-.207-.434-.368-.699-.472-.265-.103-.55-.146-.834-.126-.283.02-.559.103-.807.243-.994.684-1.728 1.685-2.08 2.84-1.74-1.61-4.83-.51-5.42 1.93-.162-.7-.559-1.324-1.125-1.766-.566-.443-1.267-.678-1.985-.666-.719.011-1.412.269-1.963.73s-.928 1.097-1.067 1.802l-2.06-1.14c-.857.734-1.436 1.74-1.64 2.85-.186-.181-.409-.321-.653-.411-.245-.09-.505-.127-.764-.109-.26.018-.513.091-.742.213-.23.122-.431.292-.591.497-.685.901-1.141 1.954-1.33 3.07-.041-.23-.136-.447-.279-.633-.142-.185-.328-.333-.54-.431s-.445-.144-.678-.133c-.234.011-.461.079-.663.197-.786.59-1.373 1.406-1.68 2.34.27 0 .49.57.75.57h111.57c.177-.426.196-.901.053-1.34-.143-.438-.439-.811-.833-1.05-.731-.197-1.509-.123-2.19.21.191-.553.254-1.142.183-1.723-.071-.58-.274-1.137-.593-1.627-.7-.78-3.51-1.78-3.96-.73z" fill="#58afff"/><path d="m321.52 219.19c7.3 3.18 12.59 11.95 9.59 19.33 9-.23 16.69 7.56 18.75 16.28s-.47 17.92-4.38 26c-4.6 9.48-12.72 18.85-23.25 18.84-3.178-.107-6.311-.785-9.25-2-15-5.66-27.66-18.4-31.2-34-4.92-21.82 13.93-55.7 39.74-44.45z" fill="#8bc4ef"/><path d="m249.9 243.42c1.43 7.18 6.28 13.61 6.22 20.93-.13 14.32-18.64 24.14-17.07 38.38 1.2 10.93 13.4 16.77 19.26 26.08 6.68 10.61 4.7 25.19 12 35.35 7 9.73 20.29 12.3 32.27 13.07 7.25.47 15.43.21 20.5-5 6.79-7 4.29-18.28 5.39-27.93 1.41-12.39 9.26-22.91 15.35-33.8s10.53-24.43 4.9-35.55c-3.91-7.72-11.87-12.55-16.86-19.62-5.13-7.28-6.77-16.38-10.17-24.61-3.7-8.94-9.93-17.23-18.71-21.3-17.47-8.11-57.52 11.74-53.08 34z" fill="#8bc4ef"/><path d="m298.08 471c-.385 0-.755-.152-1.029-.424-.273-.272-.428-.64-.431-1.026l-.49-226.78c0-.385.153-.755.424-1.029.272-.273.641-.428 1.026-.431.386 0 .755.153 1.029.424.273.272.428.641.431 1.026l.49 226.78c0 .386-.152.755-.424 1.029-.272.273-.64.428-1.026.431z" fill="#58afff"/><path d="m297.22 297.67-29.22-24.17c-.264-.256-.422-.602-.442-.97-.02-.367.099-.729.334-1.012s.569-.467.934-.515c.364-.048.734.044 1.034.257l27.14 22.45 28.2-29.14c.122-.169.279-.31.461-.413.181-.103.382-.166.59-.185s.417.007.614.076.376.179.527.323c.151.145.269.319.346.513.078.194.113.402.103.61s-.064.412-.159.598c-.095.185-.229.348-.392.478z" fill="#58afff"/><path d="m297.27 341.43-31.2-26.17c-.165-.116-.303-.266-.407-.439s-.171-.365-.197-.565c-.026-.201-.01-.404.047-.597.056-.194.153-.374.282-.528.13-.155.29-.281.471-.371.181-.089.378-.14.58-.15.201-.009.402.023.591.096.188.072.359.182.503.324l29 24.33 32.06-36.8c.121-.159.273-.292.447-.391.174-.098.367-.159.566-.18s.4 0 .59.06c.191.06.367.159.518.29s.274.292.36.472.135.377.142.576c.008.2-.026.399-.099.586-.073.186-.183.355-.324.497z" fill="#58afff"/><path d="m11.6299 442.61c-1.39-1.47-2.88996-3.49-1.78996-5.34.34696-.542.85886-.958 1.46026-1.186.6014-.229 1.2604-.258 1.8797-.084 2.4.6 3.59 2.74 4.66 4.75-3.3226-3.692-6.4342-7.568-9.31995-11.61-1.39089-1.875-2.49935-3.943-3.29001-6.14-.27349-.819-.28491-1.702-.03265-2.528.25226-.825.75564-1.551 1.44006-2.077.68441-.526 1.5158-.826 2.3784-.857s1.71345.207 2.43415.682c3.47 2.33 6.27 6 8.76 9.47-1.39-7.25-2.76-14.8-.77-21.91.53-1.88 1.38-3.82 3.27-4.64.4008-.181.8354-.274 1.275-.274.4397 0 .8743.093 1.275.274 1.46.7 1.55 2.07 1.6 3.34.16 4.073.18 8.15.06 12.23.1581-1.416.6296-2.779 1.3803-3.99.7507-1.21 1.7618-2.239 2.9597-3.01.6406-.448 1.3905-.714 2.17-.77.7656.054 1.4967.339 2.0967.818.5999.478 1.0405 1.128 1.2633 1.862.417 1.476.5057 3.026.26 4.54-.8534 9.113-2.6702 18.11-5.42 26.84 1.1002-5.214 4.0792-9.841 8.37-13 .619-.549 1.3894-.897 2.21-1 .4765.021.9429.144 1.3674.362.4245.217.7972.524 1.0926.898 3.34 3.74 1 9.52-.78 14.19-4.0952 10.702-4.6317 22.439-1.53 33.47.85 3 2 15.65-5.35 12.37-3.14-1.41-2.37-8.61-2.69-11.33-1.71-14.5-13.12-26.18-22.69-36.35z" fill="#58afff"/><path d="m27.51 492.86c-3.3507-6.71-8.0565-12.651-13.82-17.45-1.538-1.112-2.8884-2.462-3.99998-4-.54365-.779-.85402-1.697-.89476-2.647-.04073-.949.18986-1.89.66476-2.713 7.82998.37 13.58998 7.2 18.30998 13.46-5.0561-11.199-10.9984-21.977-17.77-32.23-1.92998-2.93-3.72998-7.35-.90998-9.43 1.74998-1.3 4.28998-.64 6.11998.55 3.86 2.51 6 6.86 8 11l8 16.54c-4.3-15-8.61-30.05-10.9-45.49-.56-3.81-.61-8.51 2.65-10.55 3.68-2.29 8.54.9 10.56 4.75 1.88 3.58 2.47 7.67 2.95 11.69 1.4934 12.461 2.2448 25 2.25 37.55 1.6626-4.695 3.5821-9.296 5.75-13.78.79-1.62 1.9-3.44 3.69-3.6.7094.009 1.4037.206 2.0117.572.608.365 1.1079.886 1.4483 1.508 2.71 4.26.27 9.81-2.18 14.23l-8.17 14.76 6.35-4.36c1.05-.72 2.33-1.48 3.53-1 2.26.81 1.42 4.19.17 6.24l-11.73 19.28c-3.71-.12-6.84.06-10.55.28-1.24-1.45-.67-3.45-1.53-5.16z" fill="#8bc4ef"/><path d="m387 470.63h-387v69.37h387z" fill="#58afff"/><path d="m364.56 395c-.41-4.86-3.14-9.48-2.54-14.31 1.16-9.46 14.14-14.58 14.17-24.11 0-7.32-7.61-12.1-10.79-18.7-3.63-7.52-1.22-17-5.32-24.29-3.93-7-12.5-9.66-20.37-11.07-4.76-.85-10.19-1.29-13.94 1.77-5 4.09-4.21 11.77-5.66 18.08-1.86 8.09-7.85 14.46-12.69 21.21s-8.8 15.37-5.91 23.16c2 5.4 6.91 9.19 9.69 14.25s3.25 11.34 4.89 17c1.78 6.19 5.28 12.14 10.78 15.49 10.98 6.69 38.97-3.48 37.69-18.48z" fill="#c9e3fc"/><path d="m340.31 477c-.265 0-.52-.105-.707-.293-.188-.187-.293-.442-.293-.707l-.32-151c0-.265.105-.52.293-.707.187-.188.442-.293.707-.293s.52.105.707.293c.188.187.293.442.293.707l.32 151c0 .265-.105.52-.293.707-.187.188-.442.293-.707.293z" fill="#58afff"/><path d="m339.74 361.62-19.45-16.09c-.137-.066-.258-.162-.353-.281-.094-.119-.16-.259-.193-.407-.032-.149-.031-.303.005-.451.037-.148.106-.286.203-.403.098-.117.221-.21.359-.273.139-.062.291-.092.443-.087s.301.045.436.116c.134.072.251.173.34.296l18.06 14.96 18.78-19.4c.076-.132.181-.245.307-.331.126-.085.27-.141.421-.162s.305-.007.45.04.277.127.386.233c.11.106.193.236.245.379.051.144.069.297.053.449-.017.151-.068.297-.15.426-.082.128-.192.236-.322.316z" fill="#58afff"/><path d="m339.77 390.76-20.77-17.43c-.135-.067-.253-.165-.346-.284-.092-.12-.156-.259-.187-.407-.03-.148-.027-.301.01-.448.037-.146.106-.283.203-.399.098-.115.22-.208.358-.269.138-.062.288-.092.439-.087.151.004.299.043.433.113s.25.17.34.291l19.31 16.16 21.36-24.5c.183-.125.402-.186.622-.173.221.013.432.099.599.244.166.145.281.342.324.559s.013.442-.085.64z" fill="#58afff"/><path d="m139.44 430.55-3-.07.07-2.73-79.75-2.61 1.66-45.35 3 .11-1.55 42.33 76.71 2.51 1.1-45.19h78.12l2.12 50.87-78.4-2.57zm.14-5.72 75.19 2.46-1.86-44.75h-72.3z" fill="#58afff"/><path d="m39.8 375.12 198.72 3.37 2.11 36.15-204.62-4.21z" fill="#8bc4ef"/><g fill="#58afff"><path d="m38.5413 382.743-.0136.719 200.4043 3.778.014-.719z"/><path d="m37.7036 392.833-.0135.719 200.4039 3.778.014-.719z"/><path d="m37.7018 402.913-.0136.72 200.4048 3.778.013-.72z"/><path d="m224.46 473.71-8.12-44.85-161.4-3.13-7.32 42.41-2.85-.49 7.74-44.86 166.25 3.22 8.55 47.18z"/><path d="m250.32 490.82-9.46-59.12-202.72-2.38-11.81 52.42-2.82-.64 12.32-54.7 207.5 2.44 9.85 61.52z"/></g><path d="m30.2301 417.24v13l217.1799 1.45s5.79-11.1 3.86-11.1-221.0399-3.35-221.0399-3.35z" fill="#8bc4ef"/><path d="m11.54 476.4c.38-1.76 0-3.59-.09-5.39s.17-3.8 1.51-5c.3028-.309.6883-.525 1.1105-.62.4221-.096.8629-.068 1.2695.08.3514.239.6512.547.8814.904s.3862.757.4586 1.176l1.78 5.69c1.19-.56 1-2.34 1.85-3.38 1.08-1.4 3.5-.83 4.5.63s1 3.36.94 5.12c1.3509-1.993 3.3569-3.451 5.67-4.12.8588 1.126 1.4686 2.421 1.7893 3.8.3206 1.38.3447 2.811.0707 4.2.57-1.81 3.34-2 4.7-.68s1.59 3.42 1.47 5.31c.0169.389-.1114.771-.36 1.07-.1783.125-.3799.214-.5928.26s-.4329.05-.6472.01c-8.58-.48-19.6.75-27.85-1.57-2.80995-.79-5.74995-2.33-4.80995-5.86 1.05-3.96 6.67995-2.29 6.34995-1.63z" fill="#8bc4ef"/><path d="m237.06 485.6c.23-1.79-.31-3.58-.57-5.36s-.17-3.8 1.06-5.13c.274-.335.638-.583 1.05-.716.411-.133.852-.145 1.27-.034.371.207.697.486.958.821s.452.719.562 1.129l2.28 5.51c1.14-.67.83-2.42 1.54-3.53.95-1.49 3.42-1.14 4.54.22s1.28 3.26 1.39 5c1.168-2.106 3.036-3.737 5.28-4.61.962 1.049 1.688 2.291 2.131 3.643s.593 2.783.439 4.197c.4-1.85 3.15-2.29 4.62-1.1s1.89 3.26 1.93 5.16c.053.386-.04.778-.26 1.1-.166.141-.359.246-.567.312-.207.065-.426.088-.643.068-8.59.29-19.46 2.5-27.88.91-2.86-.54-5.93-1.81-5.31-5.41.69-4.02 6.45-2.86 6.18-2.18z" fill="#8bc4ef"/><path d="m41.2401 464.9c.7582-.357 1.6105-.462 2.4327-.3.8221.162 1.571.582 2.1373 1.2 0-1.61 1.91-2.7 3.48-2.33.7647.255 1.4671.668 2.0615 1.213.5944.544 1.0675 1.208 1.3885 1.947.1874.502.5401.925 1 1.2.2357.073.4835.098.729.074s.4838-.097.701-.214c2.45-1.06 4.91-3.69 7.25-2.42 1.33.72 1.95 2.52 3.41 2.89.833.105 1.679-.002 2.46-.31 1.4424-.442 2.991-.389 4.4.15.6955.282 1.2938.76 1.7218 1.376.4281.616.6672 1.344.6882 2.094-2.19 1.18-4.81 1.16-7.3 1.1-7.6467-.193-15.29-.527-22.93-1-3.45-.14-9.39-3.81-3.63-6.67z" fill="#8bc4ef"/><path d="m207 468.25c.758-.357 1.611-.462 2.433-.3s1.571.583 2.137 1.2c0-1.61 1.91-2.7 3.48-2.33.765.255 1.467.668 2.062 1.213.594.544 1.067 1.208 1.388 1.947.187.502.54.925 1 1.2.236.073.484.098.729.074.246-.024.484-.097.701-.214 2.45-1.06 4.91-3.69 7.25-2.42 1.33.72 1.95 2.52 3.41 2.89.833.105 1.679-.002 2.46-.31 1.442-.441 2.991-.389 4.4.15.696.282 1.294.76 1.722 1.376s.667 1.344.688 2.094c-2.19 1.18-4.81 1.16-7.3 1.1-7.647-.193-15.29-.526-22.93-1-3.48-.15-9.43-3.82-3.63-6.67z" fill="#8bc4ef"/><path d="m230.87 284.22-36.79 21.59s-12.08 1.77-14.56 3.53-3.76 3.76-5.6 4.48c-1.033.361-1.909 1.067-2.48 2l19.68 10.64 11.88-10.65s38.4-16.47 41.48-22l3.08-5.52z" fill="#c66f7e"/><path d="m103.13 477.7s-22.3 8.34-34.91 1.94-9.89-25-9.89-25-7.18 5.24-7.56 10.47 1 12.22 3.49 14.74 3.68 2.22 3.68 2.22-4.85 2.24-3.1 3.79 15.71 2.91 15.71 2.91-5.43 4.07 3.68 3.3c5.9691-.657 11.7606-2.435 17.07-5.24 0 0-.78 3.49 3.1 3.1s8.73-7.56 8.73-7.56z" fill="#533a71"/><path d="m154.23 489.68c0-.44 10-7.13 13.58-15.56s4-11.49 6.21-14.69c1.306-1.907 3.279-3.256 5.53-3.78l12.22 42h11.78s2.33-5.91 0-8.24-7.71-4.22-7.71-4.22-1.89-17.31-.58-26.33 7.89-25.16 9.32-39.27 0-20.94 0-20.94l-41.48 14.21-34.18 62.42v11.78z" fill="#e28100"/><path d="m156.23 336.62s1.06 27.1-1.71 38-5.52 14.7-5.52 14.7l-37.82 44.07s-11.49 12.22-11.64 29.67 3.93 24.14 5.67 27.78 7 5.53 9.89 6.4 49.31 0 49.31 0 4.95-6.69 0-8.58-22.84-3.35-26-4.36 5.67-2.91 11.05-11.93 1.75-15.85 3.49-22.84 9.92-7.13 13.69-10 6.53-12.65 6.53-12.65-1.16 30.4 0 34 5.83 36.75 5.83 36.75h15.56s2.47-5.19 0-6.79-5.24-3.78-5.67-5.38-3.05-29.09 2.47-41.31 10-16 12.65-33.16 1.6-44.65-1.89-54.69-5.09-13.38-2.33-18 12.22-14.84 12.07-20.94c-.136-3.737-1.492-7.326-3.86-10.22 0 0-4.95-2.18-8.15-.73s-11.34 8-16.14 7.27-14.59-1.07-18.42 2.23-9.06 20.71-9.06 20.71z" fill="#ffb942"/><path d="m162.52 315.87c-7.85 4.07-9.89 7.56-8.29 14.84s6.25 11.29 5.38 24.29 1.16 16 11.93 14.25 22.25-6.25 20.65-14.25-10.76-26.76-16.44-33.45c-1.593-1.932-3.625-3.456-5.926-4.444-2.302-.988-4.806-1.412-7.304-1.236z" fill="#533a71"/><path d="m149 389.32s-16.14 19.2-24.58 28.07c-4.811 4.991-9.237 10.34-13.24 16 1.162-.913 2.597-1.408 4.075-1.408s2.913.495 4.075 1.408c4.36 3.2 11.52 4.51 16.38.58s-.52-11.78 8.78-13.67 22.11-3.64 23.27-12.07-18.76-18.91-18.76-18.91z" fill="#533a71"/><path d="m200.79 306.12 8.12 2.17s.11-3.57-2.8-4.74-5.32 2.57-5.32 2.57z" fill="#533a71"/><path d="m269.75 473.64-6.32 2.87s-1.28.24-1.28 1.36-2.72 5.41-7.12 7.16-12.48 3.71-14.08 5.07.4 6.32.4 6.32h36.15c.412-2.221.412-4.499 0-6.72-.72-3.2-2.28-12.74-2.94-13.61s-4.81-2.45-4.81-2.45z" fill="#3d2c56"/><path d="m262.55 465.71.88 10.8s3.76 3.54 6.16 3.53c1.97-.158 3.904-.609 5.74-1.34l.18-13.39z" fill="#fb919f"/><path d="m299.5 476.91-3.37 1.52c-.607.955-1.037 2.012-1.27 3.12-.29 1.641-1.039 3.167-2.16 4.4-1.36 1.76-5.2 1.76-6.72 4.4s-1.52 6.16-.48 7.28h24.64s2.72-1.92 2.8-4.64-3.6-15.44-3.6-15.44z" fill="#3d2c56"/><path d="m293.5 468.83 2.63 9.6s8.81 2.48 10.73 1.28c.974-.53 1.821-1.268 2.48-2.16l-2.4-13.44z" fill="#fb919f"/><path d="m262.31 314.78s-12.31 37.72-11.78 48.22 8.65 104.36 8.65 104.36 3.84 1.44 11 1.44 8.16-2.64 8.16-2.64v-53.48s11-61.67 11.52-62.39 34.08-49 34.08-49-16.32-14.16-17.28-14.64-32.24 4.94-32.24 4.94z" fill="#3d2c56"/><path d="m330.94 298.46c-.676 10.982-3.879 21.66-9.36 31.2-9.12 15.84-29.52 53.51-29.52 53.51s7.2 17.76 9.6 29.28 7.68 52.31 7.68 52.31c-3.256 3.634-7.515 6.222-12.24 7.44-7.44 1.68-8.88 1.44-8.88 1.44s-27.16-91.9-26.9-102.7 14.49-51.75 14.49-51.75 7.85.39 12.89-5.37 10.32-10.08 17-9.84c3.482.039 6.947.496 10.32 1.36z" fill="#533a71"/><path d="m235.85 207.75c-.602 5.996-.447 12.043.46 18 1.52 9.36.88 26.88 0 34.79s-7.6 22.56-7.6 22.56 1.43 6.72 6.35 8.16 13.32-1.68 13.32-1.68 8.64-13.68 11-22.08-1.92-10.56-1.92-10.56z" fill="#d65050"/><path d="m304.7 300.84c-5.639-1.305-11.412-1.942-17.2-1.9-8 .32-15.68 6.4-15.68 6.4l-15-89.59 6.08-8 20.1 18.25 21.68 33z" fill="#d65050"/><path d="m225.36 142.25c0-.55 3.94-9.42 14.68-9.73s13.78 6.63 15.31 15.48.24 13.37 3.2 17.69 6.75 1.53 10 4.58-.61 9.71 1 12.48 5.57.66 6.19 3.23-5.92 7.1-14 4.43-4.49-9.58-6.15-11.38-5 2.35-10.38-.41-19.85-36.37-19.85-36.37z" fill="#3d2c56"/><path d="m233.17 200.95-6.18-8.21 8.17-11.83 7.37 2.45.68 8.51z" fill="#c66f7e"/><path d="m199.64 183s4.92 3 6.17 4.85 1.07 8.2 2.36 8.78 3.57-.28 3.57-.28 9.46 6.42 12.43 7 6.68-4.53 8.64-7.59 2.26-9.7 2.26-9.7 1.7 5.8-.67 10.68-1.73 3.55-1.73 3.55l3 4.78c.11 1.37 1.72 13.73 1.72 13.73 1.62 3-.86-8.61 2.22-13.11 3.632-5.407 7.684-10.52 12.12-15.29 0 0-3.44-1.66-6.48-8.59s-2.62-10.42-2.66-10.83-7.3-9.83-7.88-9.92-17.28-2-17.26-2.15-11.65 5.9-11.65 5.9l-6.18 17.47z" fill="#fb919f"/><path d="m202 176.6c2.244.073 4.479-.316 6.565-1.143 2.087-.828 3.981-2.076 5.565-3.667 2.19-2.18 3.75-4.89 5.74-7.26s4.62-4.46 7.7-4.68 5.75 1.32 8.7 1.33c4.14 0 7.83-3.17 9.35-7-6.51-11.18-23.43-21.18-40.04-10.77-11.42 7.15-15.4 16.55-16.06 24.27.314.901.73 1.763 1.24 2.57 1.249 1.861 2.916 3.405 4.867 4.507 1.952 1.103 4.134 1.734 6.373 1.843z" fill="#533a71"/><path d="m248 159.9c-.515-2.016-1.32-3.946-2.39-5.73-1.52 3.85-5.21 7-9.35 7-2.94 0-5.76-1.53-8.7-1.33s-5.71 2.31-7.7 4.68-3.55 5.08-5.74 7.26c-1.582 1.592-3.474 2.841-5.559 3.67s-4.318 1.221-6.561 1.15c-2.242-.106-4.429-.736-6.384-1.838-1.955-1.103-3.625-2.648-4.876-4.512-.51-.807-.926-1.669-1.24-2.57-.46 5.44.71 10.05 2.15 12.44 3.7 6.12 12.56 1.76 18.65-1.49s13.27.26 16.31.32 4.51-2.26 3.57-3.7.92-5.73 4.27-5.31 4.89 2.51 5.49 6.6-.15 3.32.6 4.09 4.65 1.15 4.65 1.15 5.93-9.02 2.81-21.88z" fill="#3d2c56"/><path d="m218.72 197.43 6.27-6.16s.64 6.3-1.74 7.59-4.53-1.43-4.53-1.43z" fill="#fff"/><path d="m250.82 363.86c-.42-1.58-.82-2.87-.82-2.87.204.975.478 1.935.82 2.87z" fill="#fb919f"/><path d="m275.81 283-18.2-2.86-.35 14.57c4.921 2.749 10.285 4.614 15.85 5.51z" fill="#c66f7e"/><path d="m257.25 294.75-1.08 44.86s-8.94 16-9.3 19.16 3.25 10.82 4.57 10.94c.82.08.07-3.28-.62-5.85-.342-.932-.616-1.888-.82-2.86 0 0 .4 1.29.82 2.87.554 1.651 1.427 3.176 2.57 4.49 2.53 2.67 8.29 3.44 9.28 1.46s-1.49-8.4-1.49-8.4 3.8-7.17 5.68-11.42c.533-1.348.786-2.791.745-4.24-.042-1.449-.377-2.874-.985-4.19l6.49-41.3c-5.569-.899-10.937-2.767-15.86-5.52z" fill="#fb919f"/><path d="m253.62 189.74c2.922-.749 5.97-.868 8.942-.351s5.8 1.659 8.298 3.351c8.32 5.76 30.08 26.56 43.19 56.63s21.12 44.15 19.2 52.79-10.88 6.08-25.28 0-14.4-2.24-20.8-5.12 12.8-22.4 6.4-38.39-15.36-12.48-20.8-25-6.72-14.72-6.72-14.72 9 34.24 9.92 48.63-.32 21.44-.32 21.44c-3.685 2.128-7.912 3.129-12.16 2.88-7.36-.32-9.88-4.16-9.88-4.16s.44-19.52-1.24-27.2-14.79-39-14.79-39-2.88-12.39 0-20 16.04-11.78 16.04-11.78z" fill="#ff6b6b"/><path d="m155.68 367.27s5.12 4.37 20.72 5.33c9.478.563 18.986-.338 28.19-2.67l.26 7.81s-14.53 4.21-28.45 2.53-21.88-5.66-21.88-5.66z" fill="#533a71"/></g></svg>