<svg fill="none" height="540" viewBox="0 0 387 540" width="387" xmlns="http://www.w3.org/2000/svg" xmlns:xlink="http://www.w3.org/1999/xlink"><clipPath id="a"><path d="m0 0h387v540h-387z"/></clipPath><g clip-path="url(#a)"><path d="m40.69 117.18c35.83-5.21 69.9 22.21 84.77 55.22s15.05 70.47 15.54 106.67 2.09 73.93 19.13 105.83c18.71 35.07 59.43 34.52 99.06 37.45s76.9 9.24 100.57-22.7c8.88-12 15.71-25.85 27-35.53v175.48h-386.76v-397.6c9.87-13 24.49-22.46 40.69-24.82z" fill="#dbf3f5"/><path d="m365.91 226.64c-10.106 10.841-22.332 19.489-35.919 25.41s-28.245 8.987-43.066 9.008c-14.821.022-29.488-3.001-43.092-8.883-13.604-5.881-25.855-14.494-35.993-25.305-32.89-35.08-40.08-89.09-74.64-122.52-19.243-18.4401-44.9393-28.616-71.59-28.35-22.4205.4532-44.0695 8.2681-61.61 22.24v-98.24h386.71v202.65c-7.45 7.45-13.58 16.25-20.8 23.99z" fill="#5ecccd"/><path d="m61.61 76c26.6507-.266 52.347 9.9098 71.59 28.35 34.56 33.43 41.75 87.45 74.64 122.52 10.138 10.811 22.389 19.424 35.993 25.305s28.271 8.905 43.092 8.883c14.821-.021 29.479-3.087 43.066-9.008s25.813-14.569 35.919-25.41c7.22-7.74 13.35-16.54 20.8-24v161.49c-11.24 9.68-18.07 23.55-27 35.53-23.66 31.94-63 19.67-102.61 16.74s-78.31 3.57-97-31.5c-17-31.94-18.56-69.63-19.09-105.83s-.72-73.66-15.59-106.67-48.9-60.4-84.73-55.22c-16.2 2.36-30.82 11.82-40.69 24.82v-43.76c17.5405-13.9719 39.1895-21.7868 61.61-22.24z" fill="#a0e8e6"/><path d="m387.45 485.66-93.07-12.6v-5.66l-124.31-18.94-13.07 4.23-217.41-33.41c4.67-4.65 14.63-5 21-3.35s12.46 4.75 19 5.28c10.78.87 20.790005-5.07 29.41-11.42 8.62-6.35 17.24-13.55 27.74-15.86 13.68-3 27.57 2.83 40.49 8.22s27.32 10.53 40.62 6.15c11.74-3.86 20.1-14.6 24.4-26.13s5.2-24 6.53-36.22 3.24-24.73 9.26-35.47l162.5-192.41h66.91z" fill="#5ecccd"/><path d="m168.94 448.46 131.58 20.15v-343.8l-131.58 26.7z" fill="#269b95"/><path d="m155.91 147.87 13.03 3.64-11.59 1.42-13.21-3.55z" fill="#fff"/><path d="m292.65 130.34 10.27 4.72-133.98 16.45-13.03-3.64z" fill="#269b95"/><path d="m318.13 103.54v23.54l-9.74 1.25-15.74 2.01-136.74 17.53-11.77 1.51-7 .9v-19.78z" fill="#fff"/><path d="m155.91 147.87 13.03 3.64v296.95l-13.03 4.23z" fill="#5ecccd"/><path d="m155.91 147.87v304.82l-11.77-1.75v-301.56z" fill="#fff"/><path d="m308.39 128.33v347.07l-15.74-2.34v-342.72z" fill="#fff"/><path d="m292.65 130.34-26.38 25.9.6 291.76 25.78 19.4z" fill="#5ecccd"/><path d="m288.17 458.42-16.82-12.66-.59-287.64 17.41-17.12zm-15-13.56 13.24 10v-309.56l-13.83 13.57z" fill="#a0e8e6"/><path d="m318.13 107.13v3.81l-180.99 24.99v-1.84z" fill="#a0e8e6"/><path d="m318.13 117.89v3.81l-180.99 23.2v-1.85z" fill="#a0e8e6"/><path d="m358.54 367.81c-6.18 3.7 4.07-8.55 7-21.82s-7.8-15.59-12.22-8.36-1.9-15.45-8.64-25.67-17.91-5.58-16.25 5.59 5.09 19.59-1.23 15.45-7.37 3.09-5.24 13 15.56 16.43 9.81 18.85-7.23-4-9 5.8 19.84 36.32 20.85 36.12c6.86-1.37 19-18.84 22.43-30.55s-1.33-12.11-7.51-8.41zm-23-12.76s-12.14-6.6-10.87-12.78 9.69-4 13.27 2.25 3.23 13.27-2.38 10.48zm8.56-23.05c-.32-.71-5.5-10.64-2.55-13s4.92 18.28 2.55 13zm3.9 21.36c.29-1 5.16-15.27 9.9-11.8s-4.11 20.33-6.74 19.07-4.98-1.37-3.16-7.27zm2.42 37.5c-2-1.69-1.05-7.06.63-13.48.06-.23 7.37-9.16 9.16-4.11s-7.81 19.28-9.81 17.59z" fill="#388c77"/><path d="m346.46 391.18c2.23-31.17-7.22-66.46-7.32-66.81-.033-.104-.104-.191-.199-.243s-.207-.065-.312-.036c-.104.028-.194.096-.25.189s-.073.204-.049.31c.1.35 9.51 35.5 7.29 66.53-.826 10.673-2.708 21.238-5.62 31.54.113.627.227 1.253.34 1.88 3.188-10.879 5.239-22.058 6.12-33.36z" fill="#388c77"/><path d="m343.23 397.08c-8 3.05 5.06-9.59 5.27-14.82s-6.32-3.61-11 0 7.62-18.62 3.38-27.21-9 4-13.21 8.29-9.72-33.34-19.41-30.34-3.79 23.31 0 29.21-1.26 4.85-8.26-.21-9.27 2.95-6.53 13.27 15 14.33 17.91 18.82-3.58 2.46-9.76-2.81-7.1-2.11 0 12.61 37.75 15.7 37.75 15.7c14.97-6.27 11.87-25.59 3.86-22.51zm-28.65-47.65s10.34 9.69 6.58 12.08-13.04-14.17-6.58-12.08zm-15 21.21c.44 0 26.23 3.27 16.61 11.24s-21.13-10.82-16.64-11.24zm27.81 33.71c-5.06 2.95-17.12-6.6-9.06-7.87-.03 0 14.09 4.92 9.03 7.87zm3.4-33.71s2.07-15.59 4.32-9-4.18 17.7-4.35 9z" fill="#54b162"/><path d="m350.87 389.87c4.89-6.93 3.33 7.71 5.65 4.2s4.62-9.78 16.91-16.46 11-3.12 10.58.48 14.06-1.26 10.78 7.16-15 9.3-10.13 11.69 7 8.15-3.81 11.2-19.51 2-14.19 5-8.09 13.86-19.66 4.14c0 0-1-20.49 3.87-27.41zm25.19-8.43s-9.93 4.9-7.35 7.61 14.55-8.73 7.35-7.61zm-11.92 21.94c2.12 3.71 19 3.14 13.91-4.29-.05.01-16.05.58-13.92 4.29z" fill="#94dd4e"/><path d="m342.47 448.13.33-.13c-.17-1.53-.35-3.18-.57-4.92.04 1.81.13 3.51.24 5.05z" fill="#264c4c"/><path d="m378.6 391.35c-.018-.053-.046-.102-.083-.143-.037-.042-.082-.076-.132-.1-.051-.024-.105-.038-.161-.041s-.112.005-.164.024c-.13 0-13.39 4.79-26.84 19-6.41 6.76-8.5 17.48-8.92 26.92.29 2.08.54 4.07.77 6-.23-10.37 1.13-24.25 8.77-32.31 13.3-14 26.38-18.71 26.51-18.76.058-.018.112-.049.157-.09s.081-.091.105-.147c.023-.056.035-.117.033-.178s-.018-.121-.045-.175z" fill="#388c77"/><path d="m340.34 424.54c-.113-.627-.227-1.253-.34-1.88-1.88-10.17-4.42-20.46-7.76-28-9.41-21.12-17.47-28.1-17.81-28.38-.086-.062-.192-.088-.297-.075-.104.013-.201.065-.269.146-.068.08-.103.184-.098.289.005.106.049.206.124.28.08.07 8.27 7.16 17.58 28.08 3.5 7.85 6.11 18.8 8 29.45.113.627.223 1.25.33 1.87 1 5.93 1.81 11.7 2.42 16.72.21 1.74.4 3.38.57 4.92.12 1.13.24 2.21.34 3.2h.87c-.24-2.38-.54-5.18-.92-8.25-.23-1.89-.48-3.89-.77-6-.56-3.91-1.21-8.1-1.97-12.37z" fill="#388c77"/><path d="m375.34 417.01h-63.91c-1.657 0-3 1.343-3 3v4.77c0 1.657 1.343 3 3 3h63.91c1.657 0 3-1.343 3-3v-4.77c0-1.657-1.343-3-3-3z" fill="#dbf3f5"/><path d="m320.17 478.39c.222 2.435 1.346 4.699 3.152 6.348 1.806 1.648 4.163 2.562 6.608 2.562h28.25c2.445 0 4.802-.914 6.608-2.562 1.806-1.649 2.93-3.913 3.152-6.348l1.8-19.92h-51.37z" fill="#fff"/><path d="m372.51 427.77h-56.91l1.32 14.68h54.26z" fill="#fff"/><path d="m317.54 449.29.52 5.71h51.99l.51-5.71z" fill="#fff"/><path d="m371.18 442.45h-54.26l.62 6.84h53.02z" fill="#dbf3f5"/><path d="m318.37 458.48h51.36l.32-3.48h-51.99z" fill="#dbf3f5"/><path d="m269.32 278.79h-1.23c-.657 0-1.19.533-1.19 1.19v14.73c0 .657.533 1.19 1.19 1.19h1.23c.657 0 1.19-.533 1.19-1.19v-14.73c0-.657-.533-1.19-1.19-1.19z" fill="#fff"/><path d="m164.79 454.66 108.32 18.49c.467.082.893.317 1.213.667.319.351.512.798.55 1.27.038.473-.082.945-.342 1.341-.259.397-.643.697-1.091.852l-49.1 16.72c-4.282 1.462-8.878 1.752-13.31.84l-112-23.08c-.4763-.105-.9025-.369-1.208-.749-.3056-.38-.4721-.853-.4721-1.341s.1665-.961.4721-1.341c.3055-.38.7317-.644 1.208-.749l55.9-12.66c3.238-.731 6.588-.82 9.86-.26z" fill="#fff"/><path d="m174.22 339.4s2.09 4 4.85 4.18c.839.002 1.667-.184 2.424-.546.756-.362 1.421-.89 1.946-1.544 0 .1-4.56-13.31-4.61-13.12s-4.61 11.03-4.61 11.03z" fill="#c66f7e"/><path d="m177.07 319.15s-5 12.55-5 13.69-.23 8.08 1.12 9.41 7 4.85 7 4.09.29-2.95-1.14-4.09-3-1.62-2.9-3.71 2.42-4.18 2.42-4.18 0 6.46 1.14 7.51c.638.607 1.424 1.034 2.28 1.24l.89-24z" fill="#fb919f"/><path d="m186.48 221.48c-2.739 7.692-4.519 15.692-5.3 23.82-1.35 13.68-3.92 39.06-5.15 47.52s-2.66 18.25-2.85 21.29 1 6.65 1.24 6.75 9.79 0 9.79 0l12.07-98.2z" fill="#e28100"/><path d="m236.66 459.08h-17.18c-.585 0-1.06.474-1.06 1.06v1.11c0 .585.475 1.06 1.06 1.06h17.18c.585 0 1.06-.475 1.06-1.06v-1.11c0-.586-.475-1.06-1.06-1.06z" fill="#ff6b6b"/><path d="m219.28 460.37v-3c.002-.993.271-1.967.78-2.82l1-1.63 4.72-5h6.36l2.87 5 1.37 2.21c.646 1.024.993 2.209 1 3.42v1.83l-17.55.33z" fill="#ff6b6b"/><path d="m223.08 442.26-1.53 10.08s4.1-3.81 7.42-2.48c2.08.831 4.087 1.835 6 3l-2.39-11.6z" fill="#fb919f"/><path d="m185.91 442.26c-.92 2.67-2.556 5.037-4.73 6.84-1.713 1.392-3.567 2.601-5.53 3.61l2.28 5.7h17.22v-16.15z" fill="#fb919f"/><path d="m192.22 378.65c.44 4.39 1.24 9.09-.78 13-1.64 3.19-4.92 5.29-8.36 6.3-.63.18-1.27.33-1.91.45.1 18.41.36 45.56.36 45.56s12.55.57 15.78 0l3.23-.57s2.28-38.4 2.28-53.23v-18.44l6.27-36.88-13.88 31.37c-3.29 2.93-3.43 8.05-2.99 12.44z" fill="#3d2c56"/><path d="m238.19 323.05c-.23-8.37 0-11.87 0-11.87s-24.53-15.88-25.1-15.88-31.56 15.88-31.56 15.88-.42 61.12-.4 76.9v10.34c.64-.13 1.28-.27 1.91-.45 3.44-1 6.72-3.1 8.36-6.3 2-3.93 1.22-8.62.78-13s-.3-9.51 3-12.44l13.88-31.37 10.31 108.54 17.49-.76s1.57-111.22 1.33-119.59z" fill="#533a71"/><path d="m200.25 303.86c4.08-3.68 4.7-9.81 4.48-15.3s-.94-11.27 1.37-16.25c3.75-8.1 14.2-11.34 18.12-19.36 1.79-3.67 2-7.91 1.76-12s-.82-8.16-.45-12.23 1.83-8.24 5-10.83c1.24-1.011 2.719-1.687 4.295-1.962s3.196-.14 4.705.392c-.187-.615-.512-1.179-.95-1.65-2.66-2.44-21.36-8.21-21.36-8.21l-12.82 1s-15.83 6.18-17.92 14-1 21.42-1 34.48-4.75 47.55-4.37 51.38l.38 3.83 1.27-.11c2.6-1.8 5.76-2.54 8.82-3.33s6.3-1.71 8.67-3.85z" fill="#ffb942"/><path d="m239.52 216.34c-1.509-.532-3.129-.667-4.705-.392s-3.055.95-4.295 1.962c-3.16 2.59-4.62 6.77-5 10.83s.23 8.15.45 12.23 0 8.32-1.76 12c-3.92 8-14.37 11.26-18.12 19.36-2.31 5-1.59 10.76-1.37 16.25s-.39 11.62-4.48 15.3c-2.36 2.13-5.53 3.08-8.61 3.88s-6.23 1.53-8.82 3.33c6.83-.57 39.64-3.21 48-1.81 9.32 1.57 7 3.66 9.32 1.57s-1.33-52.95 0-66c1.12-11.32 1.13-23.76-.61-28.51z" fill="#e28100"/><path d="m213.71 204.78c2.023-.357 3.988-.99 5.84-1.88l-.38-10.58-13.69 9.35v3c2.713.541 5.503.578 8.23.11z" fill="#c66f7e"/><path d="m219.55 202.9c-4.349 2.101-9.269 2.712-14 1.74v3.86c-.407.669-.898 1.284-1.46 1.83 0 0 1.05 3.93 6.53 4.15 2.227.094 4.43-.499 6.308-1.699 1.879-1.201 3.342-2.95 4.192-5.011l-1.37-.45z" fill="#fb919f"/><path d="m226.26 181.78s1.2 1.79-.59 4.46-4.09 2.78-4.73 2-1-6.61-1-6.78 3-3.09 3-3.09h.77l2.21 1.83z" fill="#fb919f"/><path d="m197.56 168.83c2.06.72 3.49 2.93 5.65 3.26 3.19.5 5.76-3.32 9-3.16 1.68.08 3.11 1.25 4.29 2.47 1.068 1.323 2.366 2.445 3.83 3.31 1.014.409 2.106.587 3.198.521 1.091-.066 2.154-.374 3.112-.901.36-.18.69-.39 1-.6.049-1.451-.031-2.903-.24-4.34-.51-3.58-1.37-7.06-5.66-7-.623.07-1.253.026-1.86-.13-1.29-.48-1.7-2.09-2.56-3.18-1.28-1.61-3.28-1.65-5.1-1.23-1.335.448-2.732.677-4.14.68-.92-.09-1.8-.44-2.71-.6-.45-.118-.921-.133-1.378-.045s-.888.278-1.262.555c-.88.78-1.05 2.28-2.12 2.77s-2.33-.24-3.16.49-.35 2.08-.63 3.14c-.422.995-1.169 1.816-2.12 2.33-.472.259-.875.627-1.174 1.075-.3.447-.487.96-.546 1.495v.18c.142-.158.296-.305.46-.44.583-.434 1.262-.721 1.98-.834.717-.113 1.452-.05 2.14.184z" fill="#533a71"/><path d="m226.62 174.33c-.958.527-2.021.835-3.112.901-1.092.066-2.184-.112-3.198-.521-1.464-.865-2.762-1.987-3.83-3.31-1.18-1.22-2.62-2.38-4.29-2.47-3.23-.16-5.8 3.66-9 3.16-2.16-.34-3.58-2.54-5.65-3.26-.681-.23-1.407-.293-2.117-.183s-1.383.388-1.963.813c-.164.135-.318.282-.46.44.14 1 1.08 1.87 1.23 2.93-.036.919-.215 1.826-.53 2.69-.094.544-.069 1.101.072 1.635.142.533.397 1.029.748 1.455.353.414.794.743 1.29.965.497.221 1.036.329 1.58.315.039 1.964-.2 3.923-.71 5.82l-.32 1.26s-.68.81-.3 3.48 1.65 8.78 4.16 10.89 8.59 1.76 12.47.6 6.39-4.71 7.49-8.92.69-9.52 1.31-10.82 1.58-2.35 2.51-2.18c.488.086.947.292 1.337.599.389.307.696.706.893 1.161.509-1.937.912-3.9 1.21-5.88.101-.719.161-1.444.18-2.17-.31.21-.62.43-1 .6z" fill="#3d2c56"/><path d="m196.22 178.09s0 12.41 1.29 14.23c.61.84-.1-1.09 1.63-1.44s12.23-.88 13.32.56 1.69 1.79 2.54 1.79c.848-.207 1.633-.62 2.283-1.203.651-.582 1.148-1.316 1.447-2.137.47-1.86.71-12.23 0-13.21-.915-1.136-2.087-2.037-3.42-2.63-1.29-.56-1.69-.49-4.64.46s-3.52.13-5.18-.81c-.793-.487-1.682-.796-2.606-.904-.923-.109-1.86-.015-2.744.274-1.49.67-3.24.28-3.48.46-.202.709-.3 1.443-.29 2.18z" fill="#fb919f"/><path d="m201.07 193.83 8.82-.21c-.397.995-1.066 1.859-1.931 2.492s-1.89 1.01-2.959 1.088c-.967.072-1.924-.243-2.66-.874-.737-.632-1.193-1.529-1.27-2.496z" fill="#fff"/><path d="m195.84 458.42h-33.37c-.707 0-1.28.573-1.28 1.28v1.34c0 .707.573 1.28 1.28 1.28h33.37c.707 0 1.28-.573 1.28-1.28v-1.34c0-.707-.573-1.28-1.28-1.28z" fill="#ff6b6b"/><path d="m179.16 459.75s-2.57-8.75-4.37-9.41-13 2.19-12.83 9.41z" fill="#ff6b6b"/><path d="m252.74 267.61c-1.697-.381-3.215-1.326-4.307-2.68-1.091-1.354-1.692-3.037-1.705-4.776-.013-1.74.564-3.432 1.635-4.802 1.072-1.369 2.576-2.336 4.267-2.742-.771-.455-1.629-.741-2.519-.839-.889-.099-1.79-.007-2.641.269-1.703.566-3.209 1.607-4.34 3-1.497 1.799-2.46 3.981-2.78 6.3.059.117.103.241.13.37 0 .76 7.7 25.1 11.52 26.33s6.75-.27 9.11-4.37c1.88-3.28.82-5.7-1.28-14.53-.866-.491-1.809-.83-2.79-1-1.43-.32-2.9-.23-4.3-.53z" fill="#e28100"/><path d="m238.57 214.69c-10.17-1.17-13.79 11.82-11.41 19 2.22 6.76 11.95 24.69 13.18 27.57.32-2.319 1.283-4.501 2.78-6.3 1.131-1.393 2.637-2.434 4.34-3 .851-.276 1.752-.368 2.641-.269.89.098 1.748.384 2.519.839-1.691.406-3.195 1.373-4.267 2.742-1.071 1.37-1.648 3.062-1.635 4.802.013 1.739.614 3.422 1.705 4.776 1.092 1.354 2.61 2.299 4.307 2.68 1.41.3 2.87.2 4.28.45.981.17 1.924.509 2.79 1-.53-2.24-1.13-4.87-1.76-8-3.12-15.66-19.47-46.29-19.47-46.29z" fill="#ffb942"/><path d="m260.84 279.36-6.93.9c-.014 1.731-.256 3.452-.72 5.12-.73 2.34-1.42 3.61-1.12 5.42s3.27 2.15 3.61 3.56 1.71 2 2.1 1.12 1.22-1.85.34-3.27 2.72-12.85 2.72-12.85z" fill="#c66f7e"/><path d="m268.7 285.4h-.65c-2.347.073-4.649-.661-6.52-2.08-.723-.585-1.596-.953-2.519-1.064-.922-.111-1.858.041-2.698.439-.841.397-1.552 1.023-2.052 1.806-.501.784-.77 1.692-.777 2.622-.007.929.248 1.842.736 2.633s1.19 1.428 2.024 1.838 1.767.577 2.691.48c.925-.096 1.803-.451 2.535-1.024 1.723-1.371 3.858-2.121 6.06-2.13h1.16z" fill="#fff"/><path d="m253.72 279.14s1.66 10.74 2.78 11.18 1.56 0 1.81-.63-1.26-9.23-1.26-9.23.48 0 .63 1 .93 7.32 1.71 7.86c.151.115.328.19.516.22.187.03.379.013.558-.049.179-.063.34-.169.469-.308.128-.14.22-.309.267-.493.16-.621.241-1.259.24-1.9 0 0 .24 2.1 1.07 2.1s4.1-1.37 4.93-2.64.73-7.61-.78-8.05-9.66.59-9.66.59-1.82-2.43-3.28.35z" fill="#fb919f"/><path d="m70.6 433.74s-2 11.31 1 13.71c1.6937 1.388 3.6344 2.443 5.72 3.11h-18.32l1.24-16.82z" fill="#c66f7e"/><path d="m53.87 431.84s.71 13.07 1.56 15.76l.85 2.69h-14.71l2.43-16.93z" fill="#fb919f"/><path d="m77.34 450.56s12.72 4 13 4.85-1 1.8-2.54 1.94-26.86.14-27.71 0-1.09-1.94-1.09-1.94v-4.85z" fill="#3d2c56"/><path d="m56.27 450.28s1.7 4 1.7 5.13.85 2-2.83 2-13.57.67-14.56 0c-.4533-.433-.7844-.979-.96-1.581-.1755-.602-.1893-1.24-.04-1.849.5944-1.284 1.2622-2.533 2-3.74z" fill="#3d2c56"/><path d="m83.86 298s.43 37.88-1.22 56.68-7.85 81.94-7.85 81.94h-15.33l-1.27-101.44 6.45-39.64z" fill="#3d2c56"/><path d="m76.07 295.37-42.66.63c-1.6319 8.21-2.1933 16.596-1.67 24.95.94 13.23 9.47 115.7 9.47 115.7h15.79s1.44-15 2.24-23.41c1.72-18.18 3-36.41 4.85-54.58.87-8.62 1.84-17.23 3.16-25.79.91-6 1.22-12 2.86-17.86 1-3.7 3.16-6.91 5.12-10.18.83-1.38 2.13-5.41 3.75-8.22z" fill="#533a71"/><path d="m69.48 213.1s1.71 0 4.63 3.33 21.12 41.57 21.12 41.57c.9796.398 1.8376 1.047 2.4886 1.88s1.0721 1.823 1.2214 2.87c.55 3.65-3.16 10.45-8.27 9.85s-11.25-8.87-11.25-8.87z" fill="#d65050"/><path d="m32.82 257.43s4.38 10.13 4 16.24-4 20.44-4 22.45v2s26.67 2.44 49.6-.11l-23.81-44.23-16.23-15.51z" fill="#d65050"/><path d="m25 234.07s-8.49 29.84-2.19 42.71 18.89 3.65 19.53-.73-1.37-7.67-3.92-8.49 3.56-23.18 3.56-23.18c-1 6.83 2.14 14.07 7.44 18.51 1.49 1.25 3.18 2.31 4.29 3.91 1.59 2.3 1.68 5.32 1.34 8.1s-1.06 5.54-.86 8.33c.1789 2.237.9258 4.391 2.17 6.258 1.2443 1.867 2.9446 3.386 4.94 4.412 0 0 3.63 3.3 10.7 4.1 4.1739.327 8.3694.257 12.53-.21 0 0-5.6-16.48-5.53-26.88s9.19-25.43 6.81-32-10.59-14.24-12-17.61c-.4981-1.327-1.1034-2.611-1.81-3.84l-3.49-7.46-5.7.93s-27.61 1.77-28.62 1.77-8.4 8.91-8.4 8.91z" fill="#ff6b6b"/><path d="m66.62 229.4c-2.7974 1.794-6.1664 2.472-9.44 1.9-5.28-1.04-14.25-17.3-14.25-17.3l18.54-3.4 2.85.38s17.02 24.02 2.3 18.42z" fill="#fff"/><path d="m60.09 168.38 4.07-1.52c1.208-.575 2.5467-.82 3.88-.71 2.32.41 3.72 2.87 4.08 5.19s0 4.72.44 7c.46 2.5 1.79 4.74 2.85 7.06s1.87 4.92 1.22 7.38-2.81 4.51-3.42 7.07c-.52 2.17.12 4.43.35 6.65s-.14 4.81-2 6l-1.33.91c-1.5562-1.13-3.3415-1.905-5.23-2.27-2.93-.52-9.4-1.12-9.4-1.12l-4.6 8.98c1.4797 1.945 2.5048 4.197 3 6.59.5978 2.327.5389 4.774-.17 7.07l-3.88.43c.1573-2.554-.2243-5.113-1.12-7.51-1.47-3.62-3.19-4.92-3.19-4.92 1.3818 1.913 2.1994 4.175 2.36 6.53l.09 3.45s-1.12-9.75-6.38-13-9.4-2.16-9.4-2.16-5.87 3.88-6.9 14.58c0 0-5.26-4.23-3.45-10.87.56-2.05 2.16-3.81 3.33-5.59 1.69-2.56 3.44-5.33 3.38-8.39-.07-3.54 1-7.14.54-10.65s-1.08-7.07-.5-10.56c1-6.34 6.08-11.57 12-14s13.06-2.8 19.38-1.62z" fill="#3d2c56"/><path d="m60.7 212.66c.0605-1.065.2144-2.122.46-3.16v-4.66l-10.16-3.68 1.15 6.73z" fill="#c66f7e"/><path d="m66.45 175.68s2.3 1.21 2.65 5.58-.06 5.75.69 10.18 1.73 6-.4 10.29-1.84 5.46-5.75 5.58-11-3.45-11-3.45 3.91 4 6.21 4.83l2.3.81.5 1.84s2.32.81 3.81 4.26 1.15 13.8 1.15 13.8l-15.61-10.4c-1.7812-2.659-2.7059-5.8-2.65-9 .12-5.35 0-8.57 0-8.57l-.35-3.09s-4.72-1.55-4.26-5.41 3.11-4.2 4.6-2.93 1.44 3.85 2.47 4.14 1.32.86 2.07-.17-.46-4.14 2.07-4.6 5.06.52 8.11-4.2.22-9.72 3.39-9.49z" fill="#fb919f"/><path d="m46.78 199.56c.7401 0 1.34-.6 1.34-1.34s-.5999-1.34-1.34-1.34-1.34.6-1.34 1.34.5999 1.34 1.34 1.34z" fill="#27d2c7"/><path d="m42.27 268c.2547-.159.5223-.296.8-.41-1.47-.32-5.13-.61-5.13-.61s-6.86 1.02-7.77 7.02 1.34 8.57 2.86 9.21c.95.4 4.34.25 7.11-.13-1.373-1.946-2.148-4.25-2.23-6.63-.0317-1.66.3502-3.301 1.1114-4.776.7612-1.476 1.8776-2.738 3.2486-3.674z" fill="#fff"/><path d="m46.41 272.85c-1.46-4.24-2-4.79-2.87-5.16-.1528-.056-.31-.1-.47-.13-.2777.114-.5453.251-.8.41-1.3811.942-2.5038 2.216-3.2655 3.705-.7616 1.488-1.138 3.144-1.0945 4.815.082 2.38.857 4.684 2.23 6.63 1.2594-.108 2.4959-.402 3.67-.87 1.46-.86 4.06-5.15 2.6-9.4z" fill="#e6f0fc"/><path d="m37.2 267.56 30.75 1.1-.64 7.11-30.8 4.02z" fill="#fb919f"/><path d="m79 270.91s-1.28-1.83-.85-2.19 1.63-.06 2.07 0 3 2.72 3 2.72z" fill="#fb919f"/><path d="m42.27 268c.2547-.159.5223-.296.8-.41-1.47-.32-5.13-.61-5.13-.61s-6.86 1.02-7.77 7.02 1.34 8.57 2.86 9.21c.95.4 4.34.25 7.11-.13-1.373-1.946-2.148-4.25-2.23-6.63-.0317-1.66.3502-3.301 1.1114-4.776.7612-1.476 1.8776-2.738 3.2486-3.674z" fill="#fff"/><path d="m95.89 266.25c-1.3764 2.486-2.1504 5.26-2.26 8.1 2.16.15 4.88-.11 5.89-1.83 1.131-1.924 1.958-4.013 2.45-6.19.33-1.46 1.18-5.08.59-6.85-2.7831 1.627-5.0847 3.963-6.67 6.77z" fill="#e6f0fc"/><path d="m92.65 261.91c.26-.2 27.74-10.26 29.16-11.79s2-5 4.06-6.78 3.81-1.74 5.27-2.58 2.34-.33 2.06.73-3.11 2.48-3.38 3.25.06 1 .45 1 7.73-1.06 8.83-1.44 2.7-1.33 3.47-1.15.66.88 0 1.63-3.77 2.08-3.77 2.08.89.32.93.75c-.909 2.707-2.105 5.309-3.57 7.76-1 1.14-10.69 2.3-10.78 2.3s-27.72 15.63-28.56 16.1-5.42-.28-5.42-.28-1.67-5.7-1.8-5.77 3.05-5.81 3.05-5.81z" fill="#fb919f"/><path d="m137.41 246.69s-3.13.27-3.4.66-2.47 5.06-2.4 5.85 2.86 1.76 2.86 1.76-3.59-.15-3.94-1.08 2.33-6.65 3.22-7c1.203-.249 2.437-.313 3.66-.19z" fill="#c66f7e"/><path d="m102.29 258.34c-.048-.175-.119-.343-.21-.5-1-1.5-5.54-.41-7.31-.72l-.33.25c-2.589 2.022-4.4522 4.829-5.31 8-.35 1.22-1.63 6.87-.36 7.87 0 0 .59.46 3.39.92.43.07.94.12 1.48.16.1096-2.84.8836-5.614 2.26-8.1 1.56-2.78 3.62-6.22 6.39-7.88z" fill="#fff"/><path d="m75 267.94c-.88 0-.47.32-.68 1.17-.0525.28-.0282.57.0704.837.0986.268.2678.504.4896.683.4484.352.9779.586 1.54.68 1 .22 2.24.74 2.25-1 .01-1.37-2.58-2.31-3.67-2.37z" fill="#533a71"/><path d="m84.11 280.66c-1.343-3.396-3.0177-6.652-5-9.72l1-.62c2.0148 3.132 3.7163 6.455 5.08 9.92z" fill="#533a71"/><path d="m71.95 284.89-17.85.48v3.47l17.85-.48z" fill="#5ecccd"/><path d="m74.39 294c-1-5.3-2.51-5.85-2.51-5.85l-17.77.7c1.4198 1.267 2.549 2.826 3.31 4.57.5033 2.187.7384 4.427.7 6.67l16.75 1s.52-1.81-.48-7.09z" fill="#fff"/><path d="m54.1 288.84-.7 3.95c-.4144 2.353-.1722 4.775.7 7l4 .25c.0384-2.243-.1967-4.483-.7-6.67-.7631-1.729-1.8884-3.274-3.3-4.53z" fill="#e6f0fc"/><path d="m92.31 274.64h-13.72c-1.2703 0-2.3 1.03-2.3 2.3v31.93c0 1.27 1.0297 2.3 2.3 2.3h13.72c1.2702 0 2.3-1.03 2.3-2.3v-31.93c0-1.27-1.0298-2.3-2.3-2.3z" fill="#e57930"/><path d="m90.0727 279.106-11.7899-.053c-.5688-.003-1.0321.456-1.0347 1.025l-.0067 1.49c-.0026.569.4565 1.032 1.0253 1.034l11.7899.054c.5688.003 1.0321-.456 1.0346-1.025l.0068-1.49c.0026-.569-.4565-1.032-1.0253-1.035z" fill="#fff" opacity=".59"/><path d="m91.34 284.28h-11.79c-.5689 0-1.03.461-1.03 1.03v1.49c0 .569.4611 1.03 1.03 1.03h11.79c.5688 0 1.03-.461 1.03-1.03v-1.49c0-.569-.4612-1.03-1.03-1.03z" fill="#fff" opacity=".38"/><path d="m91.34 289.59h-11.79c-.5689 0-1.03.461-1.03 1.03v1.49c0 .569.4611 1.03 1.03 1.03h11.79c.5688 0 1.03-.461 1.03-1.03v-1.49c0-.569-.4612-1.03-1.03-1.03z" fill="#fff" opacity=".19"/><path d="m81.51 297.09c-4.65 11.4-6.66 21.36-1.35 23.53 5.6 2.29 10.85-6.35 15.5-17.75s7-21.24 1.35-23.53c-5.3-2.16-10.84 6.35-15.5 17.75z" fill="#c37134"/><path d="m86.19 293.22c.5 1.81 2.07 4 3.84 4.58.8923.295 1.8423.37 2.7699.221.9277-.15 1.8057-.521 2.5601-1.081-3.2818-.381-6.3955-1.657-9-3.69" fill="#f59052"/><path d="m83.33 300.56c.52 1.8 2.13 3.95 3.91 4.52.8965.279 1.8467.338 2.7708.172.9241-.165 1.7949-.55 2.5392-1.122-3.2956-.325-6.4375-1.554-9.08-3.55" fill="#f59052"/><path d="m80.66 308c.229.85.64 1.64 1.2047 2.315.5646.675 1.2694 1.22 2.0653 1.595.7599.251 1.5689.315 2.3589.188s1.538-.442 2.1811-.918c-2.7995-.323-5.4563-1.409-7.68-3.14" fill="#f59052"/><path d="m89.46 286.65c.229.85.6401 1.64 1.2047 2.315s1.2694 1.219 2.0653 1.595c.7599.251 1.5689.315 2.3589.188s1.538-.442 2.1811-.918c-2.7995-.323-5.4563-1.409-7.68-3.14" fill="#f59052"/><path d="m61.45 290.34c-.4097-2.775-1.6382-5.366-3.5283-7.439-1.8901-2.074-4.3558-3.536-7.0817-4.201 2.3736 4.995 5.9549 9.318 10.42 12.58" fill="#6ea652"/><path d="m63.24 290.94c.9538-3.089 1.0549-6.379.2927-9.521s-2.3594-6.02-4.6227-8.329c-.1396 5.859.761 11.696 2.66 17.24" fill="#6ea652"/><path d="m63.21 289.64c1.2925-1.201 2.2091-2.75 2.6386-4.461s.3536-3.51-.2186-5.179c-2.8433 2.885-4.5632 6.69-4.85 10.73" fill="#83ba63"/><path d="m62.39 291.18c.1628-2.313-.2328-4.632-1.1535-6.76-.9206-2.128-2.3393-4.004-4.1365-5.47-.3452 4.163.9181 8.3 3.53 11.56" fill="#83ba63"/><path d="m61.64 290.2c.81-1.47 3.15-1.31 4.32-.11s1.46 3 1.68 4.64c1 7.5 1.39 15.05 1.82 22.6-.76.28-1.43-.57-1.78-1.3-3.5095-7.109-6.3938-14.51-8.62-22.12-.2789-.716-.3516-1.495-.21-2.25.0424-.185.1209-.359.2308-.513.11-.155.2493-.286.4101-.386.1607-.1.3396-.168.5265-.199s.3781-.025.5626.018" fill="#ff9b4b"/><g fill="#e0853d"><path d="m61.51 292.27-2.27.62c-.1817.05-.3359.171-.4287.335-.0929.164-.1167.358-.0663.54s.1709.336.335.429.3583.116.54.066l2.27-.62c.1817-.05.3359-.171.4287-.335s.1167-.358.0663-.54-.1709-.336-.335-.429-.3583-.116-.54-.066z"/><path d="m66.91 294.28-2.09.61c-.1817.05-.3359.171-.4287.335s-.1167.358-.0663.54.1709.336.335.429.3583.116.54.066l2.09-.61c.1817-.05.3359-.171.4287-.335s.1167-.358.0663-.54-.1709-.336-.335-.429-.3583-.116-.54-.066z"/><path d="m62.61 298.33c-.5401.133-1.0712.3-1.59.5-.84.33-.48 1.7.38 1.37.5188-.2 1.0499-.367 1.59-.5.89-.22.51-1.59-.38-1.37z"/><path d="m67.79 300.59-1.58.52c-.86.29-.49 1.66.38 1.37l1.58-.52c.86-.28.49-1.66-.38-1.37z"/><path d="m64.58 305.2-1.1.19c-.9.16-.52 1.53.38 1.37l1.1-.19c.9-.16.52-1.53-.38-1.37z"/><path d="m68.35 307.19c-.3216.127-.6574.214-1 .26-.1867.005-.3644.082-.4965.214-.132.132-.2085.309-.2135.496 0 .188.0748.369.208.502.1331.133.3137.208.502.208.4608-.049.914-.153 1.35-.31.85-.32.48-1.69-.38-1.37z"/><path d="m63.14 288.51c-.9362.636-2.0383.984-3.17 1-.0978.002-.1943.023-.284.063-.0896.039-.1706.095-.2384.166-.1369.142-.2116.333-.2076.531s.0863.386.2288.522c.1425.137.3336.212.5312.208 1.3894-.028 2.7409-.458 3.89-1.24.75-.51 0-1.74-.72-1.23z"/></g><path d="m98.03 344.2h-49.54l1.61-46.1h47.93z" fill="#f7bf74"/><path d="m99.63 344.2h-11.78l1.61-46.1h8.57z" fill="#a3785a"/><path d="m64.94 269.57 3-.91s5.57-2.56 7-3 1 .61 3.82 1.49 2.43 1.4 1.67 1.79c-.9688.454-2.0673.55-3.1.27-.88-.33-1.4-.24-1.83.21s.15.79.15.79 3.63.12 5.31.37 2.87.91 2.9 1.95-1.44 1.47-1.44 1.47-5.74 5.75-8.14 5.62-8.79-3.6-8.79-3.6z" fill="#fb919f"/><path d="m78.67 270.36h1.32l-1.82-1z" fill="#c66f7e"/><path d="m82.42 273.98-4.59.67 3.76.13z" fill="#c66f7e"/><path d="m60.63 300.37-1.09-.37c2.8151-8.725 6.3125-17.214 10.46-25.39.5691-1.27 1.3278-2.447 2.25-3.49 1.0912-1.14 2.5296-1.885 4.09-2.12l-.06 1.14c-1.2512.233-2.3981.852-3.28 1.77-.8221.969-1.4961 2.054-2 3.22-4.1129 8.129-7.5803 16.568-10.37 25.24z" fill="#533a71"/><path d="m75.11 300.58-1.11-.05 1.22-25.83c.1-2 .42-4.2 2.14-5.22l.84.79c-1.25.75-1.76 2.7-1.84 4.49z" fill="#533a71"/><path d="m60.4 301.88c.718 0 1.3-.582 1.3-1.3s-.582-1.3-1.3-1.3-1.3.582-1.3 1.3.582 1.3 1.3 1.3z" fill="#a3785a"/><path d="m74.69 301.86c.718 0 1.3-.582 1.3-1.3s-.582-1.3-1.3-1.3-1.3.582-1.3 1.3.582 1.3 1.3 1.3z" fill="#a3785a"/></g></svg>