<svg fill="none" height="540" viewBox="0 0 387 540" width="387" xmlns="http://www.w3.org/2000/svg" xmlns:xlink="http://www.w3.org/1999/xlink"><clipPath id="a"><path d="m0 0h387v540h-387z"/></clipPath><g clip-path="url(#a)"><path d="m258.26 395.83c-21.52-22.66-34-55.63-62.45-68.59-25.08-11.43-55.71-2.76-77.09 14.62s-35.33 42.08-48.1 66.5-25.19 49.64-44.55 69.25c-7.765 7.838-16.53071 14.616-26.07 20.16v42.94h387v-126.33c-13.402 7.778-28.353 12.506-43.79 13.85-15.671 1.178-31.409-1.114-46.093-6.715-14.683-5.6-27.951-14.37-38.857-25.685z" fill="#fff1d9"/><path d="m78.42 201.69c11.57 6.58 23.89 12.42 37.11 14s27.56-1.8 36.81-11.37c18.66-19.32 10.56-55.22 30.72-72.9 18.38-16.12 48.61-5.57 64.56 12.95s23.44 42.83 37.38 62.94c9.277 13.256 21.182 24.462 34.973 32.923 13.792 8.46 29.176 13.994 45.197 16.257 7.251.963 14.579 1.225 21.88.78v-257.27h-387.05v135.29c21.8548 26.747 48.4357 49.254 78.42 66.4z" fill="#ffb942"/><path d="m365.12 256.5c-16.013-2.271-31.388-7.809-45.17-16.271-13.783-8.462-25.679-19.667-34.95-32.919-13.9-20.11-21.37-44.43-37.33-62.95s-46.19-29.06-64.56-12.95c-20.21 17.69-12.11 53.59-30.78 72.87-9.24 9.57-23.59 12.91-36.81 11.37s-25.54-7.38-37.11-14c-29.9774-17.135-56.5545-39.628-78.41-66.36v362.48c9.5387-5.54 18.3044-12.316 26.07-20.15 19.36-19.62 31.77-44.84 44.54-69.26s26.72-49.12 48.1-66.5 52-26 77.09-14.62c28.44 13 40.92 45.93 62.45 68.59 10.906 11.315 24.174 20.085 38.857 25.685 14.684 5.6 30.422 7.893 46.093 6.715 15.44-1.342 30.395-6.071 43.8-13.85v-157.1c-7.301.444-14.629.183-21.88-.78z" fill="#f9d095"/><path d="m342.23 234.27h-5.31v245.67h5.31z" fill="#ffb942"/><path d="m352.63 479.94h-24.84c-1.723 0-3.12 1.397-3.12 3.12v3.28c0 1.723 1.397 3.12 3.12 3.12h24.84c1.723 0 3.12-1.397 3.12-3.12v-3.28c0-1.723-1.397-3.12-3.12-3.12z" fill="#ffb942"/><path d="m378 239.06c-2.078 1.36-4.302 2.484-6.63 3.35-.667.253-1.367.507-2.1.76l-.36.12c-4.236 1.352-8.588 2.309-13 2.86l-.62.08-1.61.19c-4.361.46-8.744.687-13.13.68h-.28-2.27c-3.65-.06-7-.25-10-.55-.79-.08-1.57-.16-2.32-.25h-.18c-4.709-.55-9.354-1.554-13.87-3-1-.32-1.89-.65-2.73-1-2.238-.849-4.377-1.939-6.38-3.25-.403-.272-.739-.632-.981-1.053-.243-.421-.386-.892-.419-1.377-.036-.473.036-.948.21-1.39 1-2.51 3-7.43 6.92-16.12 5.24-11.59 9.4-32.9 10.75-40.32.135-.737.525-1.404 1.1-1.884.575-.481 1.3-.744 2.05-.746h36.3c.75.002 1.475.265 2.05.746.575.48.965 1.147 1.1 1.884 1.35 7.42 5.52 28.73 10.75 40.32 3.92 8.69 5.94 13.61 6.92 16.12.262.687.279 1.443.048 2.141-.232.698-.697 1.295-1.318 1.689z" fill="#fff1d9"/><path d="m325.62 246.84c0 4.46-3.32 8.07-7.41 8.07s-7.41-3.61-7.41-8.07c.136-1.201.387-2.387.75-3.54-1 2.42-4.16 8.86-8.62 6.34-5.68-3.21-1.9-13-1.9-13 .033.485.176.956.419 1.377.242.421.578.781.981 1.053 2.829 1.821 5.894 3.244 9.11 4.23 4.574 1.455 9.28 2.46 14.05 3 .03.16.03.35.03.54z" fill="#c9e3fc"/><path d="m340.44 247.1c-.13 4.33-3.39 7.8-7.41 7.8s-7.41-3.61-7.41-8.07c0-.19 0-.37 0-.56 4.842.566 9.715.84 14.59.82z" fill="#f9d095"/><path d="m355.27 246.84c0 4.46-3.32 8.07-7.41 8.07s-7.28-3.47-7.41-7.8c4.943.014 9.883-.277 14.79-.87.02.19.03.39.03.6z" fill="#f9d095"/><path d="m380.73 246.84c-1.74 3.88-6.92 6.12-11.36-3.47.477 1.094.722 2.276.72 3.47 0 4.46-3.32 8.07-7.41 8.07s-7.41-3.61-7.41-8.07c0-.21 0-.41 0-.61 4.756-.555 9.446-1.58 14-3.06 3.08-.975 6.016-2.357 8.73-4.11.595-.4 1.037-.988 1.257-1.67.219-.682.203-1.419-.047-2.09.3.7 3.19 7.83 1.52 11.54z" fill="#f9d095"/><path d="m319.39 218.31c-4.62 14.62-7.84 25-7.84 25-1-.32-1.89-.65-2.73-1 1.004-1.105 1.917-2.288 2.73-3.54 5.61-8.63 12.26-51 12.65-53.14s-.2 18.06-4.81 32.68z" fill="#ffb942"/><path d="m332.16 192.82c-.29 3-3.72 35.08-4.2 53.72-.79-.08-1.57-.16-2.32-.25h-.18c2.34-18.16 7.03-56.84 6.7-53.47z" fill="#ffb942"/><path d="m340.23 186.23v.37c-.01-.17-.01-.3 0-.37z" fill="#b1c0d5"/><g fill="#ffb942"><path d="m340.51 247.1h-.28-2.27c.91-19.82 2.06-54.05 2.25-60-.15 6.01-.75 40.59.3 60z"/><path d="m350 196.9c.67 1.75 1.81 30.28 5.88 49.25l-.62.08-1.61.19c-1.78-20.19-4.27-51.24-3.65-49.52z"/><path d="m371.38 242.41c-.667.253-1.367.507-2.1.76l-.36.12c-6.3-24.49-14.91-58.81-12.47-54.35 2.05 3.73 7.69 35.16 14.93 53.47z"/></g><path d="m279.37 473.14s-1 5.91-5.1 9.14c-2.28 1.869-4.892 3.291-7.7 4.19h24.77v-10.9z" fill="#c66f7e"/><path d="m297.56 473.14c-.171 3.154-.657 6.283-1.45 9.34l-1.11 3.62h19.81l-3-10.39z" fill="#fb919f"/><path d="m387 489.96h-387v50.77h387z" fill="#ffb942"/><path d="m258.38 361.59 14.62 129.07c.074.646.382 1.243.867 1.676s1.113.673 1.763.674h1.06c.365 0 .725-.076 1.059-.222s.635-.36.883-.627c.247-.268.437-.583.558-.928.12-.344.168-.709.14-1.073l-9.94-128.57z" fill="#3d2c56"/><path d="m231.8 361.59-14.65 129.07c-.074.646-.382 1.243-.867 1.676s-1.113.673-1.763.674h-1.06c-.365 0-.725-.076-1.059-.222-.335-.146-.635-.36-.883-.627-.247-.268-.437-.583-.558-.928-.12-.344-.168-.709-.14-1.073l9.94-128.57z" fill="#3d2c56"/><path d="m253.49 302.95s1.88 26.81 5.71 47.72 14.51 124.26 14.51 124.26l21.35.78s-6.68-158.26-7.46-159-15.09-14-16.39-13.77-17.72.01-17.72.01z" fill="#3d2c56"/><path d="m320.91 296.58 3.7 3.21s2.43 28 1.64 45.56-6.72 132-6.72 132l-29.11 1.07s-9.77-145.65-11.11-152.2-10.59-24.14-10.59-24.14l15.06-15.81z" fill="#533a71"/><path d="m182.82 308.14s-1.17 3.29.05 4.55 6.14 2.12 7.58.51 3.58-6.42 3.58-6.42z" fill="#c66f7e"/><path d="m233.82 247.53-38.23 46.63s-9.39 4.12-12.19 7.94-3 8.65-5 11.08-4.82 4.38-4 5.07 2.79.68 5.25-1.29 4-6.44 5.77-7.61c1.884-.995 3.99-1.494 6.12-1.45.95.11-1.64 3-2.24 3.81s-1.69 3.31-.76 4.45 1.71 1.27 2.91 0c1.715-2.031 3.588-3.923 5.6-5.66 1.786-1.469 3.029-3.493 3.53-5.75.34-1.4 1.46-4.86 1.46-4.86s32.64-27.63 36.26-31.51 7.1-17.22 7.1-17.22z" fill="#fb919f"/><path d="m242.35 203.12c-2.59 2.37-5.68 12-8.43 19.51s-14.76 31.83-17.51 36.05-2.63 6-2.63 6 5.11 8.43 10 11.35c2.645 1.71 5.754 2.558 8.9 2.43 0 0 7.32-8.76 10.31-15.08s4.84-17.68 4.84-17.68z" fill="#0078fa"/><path d="m281.42 196.1s11.62-.59 17.17 3.43 31 35.45 29.88 51.83-7.78 20.64-7.78 20.64 4.8 24.61 4.63 29.51-3.64 6.4-3.64 6.4-28.46 2.78-35.57 2.05-7.28-2.34-7.28-2.34l-5.63-6.9s3.44 7.51-2.48 8.34-13.9 2.33-18-1.16-1.32-36.57-2.65-43.52-7.45-15.06-7.61-20.35 0-11.68 0-21.72 2-15.83 5-18.65 30.88-8.21 30.88-8.21z" fill="#1c8ff7"/><path d="m325.33 301.56c.17-4.9-4.63-29.51-4.63-29.51s-12.24 9.51-13 9.84 4.3-.33 6.95 2.4 5.87 9 1.16 13.32-13.9.25-18.28 6.78c-1.181 1.683-2.017 3.583-2.46 5.59 11-.49 26.61-2 26.61-2s3.48-1.52 3.65-6.42z" fill="#0078fa"/><path d="m269.8 190.6 6.24 4 5.73.87s6.87 8.15 4.94 15.28-12.32 17.64-16.91 12.8l-4.59-4.83s-1.7 7.12-7.51 6.06-8.89-2.8-9.75-6.42 1.55-13.89 1.55-13.89l3.32-5.44z" fill="#fff"/><path d="m281.22 195.39-9.44-1.39-8.64 5.21s-6.17 4-8 6.75-2.52 8.7-2.52 8.7c-.724-1.422-1.101-2.995-1.1-4.59.053-2.102.23-4.199.53-6.28 0 0-1.86 4.35-1.62 7.13s1.21 7.13 1.58 10.51c.102 1.003-.006 2.017-.318 2.976-.311.959-.82 1.843-1.492 2.594h-4.1v-4c.087-1.344-.207-2.686-.85-3.87l.08 2.3c.011 1.818-.096 3.635-.32 5.44l-2.78.12c-2.016.02-4.029-.184-6-.61 1-2.59.44-5.54-.55-8.14s-2.38-5.07-3-7.78c-2-8.67 4-17.9 1.35-26.38-1.44-4.52-5.13-7.92-7.5-12-1.542-2.671-2.518-5.63-2.866-8.695-.348-3.064-.062-6.167.842-9.115.903-2.949 2.404-5.68 4.409-8.023s4.472-4.249 7.245-5.597c4.231-1.772 8.809-2.566 13.39-2.32l6.89.6s10-2.66 15.95 4.35 3.55 14.25 5.52 19.09 8 10.87 9.1 15.34-1.81 18.48-1.81 18.48z" fill="#533a71"/><path d="m255.44 187.07 1.66 5.93 1.23 4.37s9 1.1 9.55.33 5.71-10.89 5.54-11.44-5.84-11-5.84-11-10.1 2.85-11 3.9-1.14 7.91-1.14 7.91z" fill="#c66f7e"/><path d="m250.67 150.17s-15.19 7.5-16.27 12.24 3.67 22.31 10.07 27.15 9.3 4.42 9.3 4.42 6.12-1.12 9.38-5.26c1.738-2.079 3.188-4.383 4.31-6.85 0 0 1.81 7.14-3.66 11.3l-5.47 4.16.22 4.77s-4.32 3.52-3.65 5.9 9.35 9.6 9.91 9.44 14.21-16.69 13-19l-1.24-2.27-6.57-20.86-1.21-2.88s4.37-3 2.93-7.47-2.43-4.35-4.38-3.39-1.93 3.16-3.76 3.07-7.45-6.42-9.94-10.28c-1.56-2.44-2.97-4.19-2.97-4.19z" fill="#fb919f"/><path d="m257.7 181.54s-.72 4.94-4 6.27-5.64-2.07-5.64-2.07l-.16-.34z" fill="#fff"/><path d="m269.889 174.518c1.169-.33 1.85-1.545 1.52-2.715-.33-1.169-1.545-1.85-2.715-1.52-1.169.33-1.85 1.545-1.52 2.715.33 1.169 1.545 1.85 2.715 1.52z" fill="#ffd040"/><path d="m247.33 168 .51 2.25c.182-.09.373-.16.57-.21.38-.07 1.12-.11 1.89 1.31 1 1.78 1.19 2.48 2.44 3.24.868.426 1.819.655 2.785.67.966.016 1.924-.182 2.805-.58 0 0 3.59-1.32 4-3.65.133-1.332.109-2.674-.07-4 0 0-.44-1.72.93-2.26-.11-1.1-.21-1.78-.21-1.78s-8 .22-14.38 4.51c-.396.229-.824.397-1.27.5zm4.15-.81c1.826-1.005 3.786-1.746 5.82-2.2 0 0 3.17-.93 3.74 1.37.69 2.8.82 4.81-.78 6s-4.64 2.12-6.37 1.51c-.901-.362-1.684-.968-2.26-1.75 0 0-2.48-3.57-.15-4.91z" fill="#533a71"/><path d="m233.44 170.68s.23.64.64 1.66c1.26-.15 1.71 1.58 1.71 1.58.464 1.256 1.054 2.462 1.76 3.6 1.35 1.86 4.65 1.39 4.65 1.39.858-.064 1.688-.337 2.418-.793s1.338-1.083 1.772-1.827c.623-1.264.863-2.682.69-4.08 0-1.19.3-1.69.75-1.94l-.51-2.25c-.368.097-.75.131-1.13.1-6.7-.88-12.75 2.56-12.75 2.56zm3 2.13c-.61-2.3 2.18-2.92 2.18-2.92 1.726-.527 3.526-.767 5.33-.71 2.35.12 2.1 4.43 2.1 4.43-.071.923-.381 1.813-.9 2.58-1 1.33-3.7 1.91-5.44 1.58s-2.56-2.18-3.3-4.96z" fill="#533a71"/><path d="m307.45 274.58s-3.13 9.2-6.39 8.52-4.71-10.8-4.71-10.8l-.09-11.3c1.258-1.148 2.273-2.535 2.988-4.08.714-1.546 1.113-3.218 1.172-4.92.18-5.71-6.07-15.49-6.07-15.49s12.24 7.88 13.1 10.42-11.47 9.74-8.75 14 8.75 13.65 8.75 13.65z" fill="#0078fa"/><path d="m265.65 254.13 8.12 30.88 3.02-2.52-7.88-32.34z" fill="#859dc5"/><path d="m241.2 259.75c-2.511-1.914-5.467-3.159-8.59-3.62-5.62-1-10.8-2.17-10.8-2.17l4.73-4.71c3.105-.083 6.208.192 9.25.82 2.744.757 5.394 1.82 7.9 3.17 0 0 6.13-5.74 10.21-6.49s9.88.15 12.41 1.78l2.54 1.63-3.26 4s-5.64-3.52-10.12-2.08-11.47 7.67-11.47 7.67z" fill="#e6f0fc"/><path d="m265.59 254.13 8.13 30.88-18.25-25.26-.75-9.6h11.32z" fill="#e6f0fc"/><path d="m266.5 255.36c-2.849-1.936-6.095-3.21-9.5-3.73-6-1-13.3 6.37-13.3 6.37l6.62 34.53c10.49-12.3 24-5.37 24-5.37z" fill="#d65050"/><path d="m229.12 253.45-9.24-1.39 7.65 34.49c2.417-.04 4.834.061 7.24.3 2.498.214 4.951.794 7.28 1.72 2.44 1 4.71 2.37 7.12 3.45.11.05 1.14.38 1.16.51l-6.63-34.53s-5.34-3.17-14.58-4.55z" fill="#ff6b6b"/><path d="m272.51 265.18s-4.75-2.26-5.84-2.26-10.78 6.43-9.33 8.15 3.74-.45 3.74-.45-2.56 2.08-1.7 3.44 2.22 3.81 3.85 4.89 7.51.47 9.92-.47l5.8-2.79s15.22.36 21.56 0 6.94-1.13 6.94-1.13 1.09-8.09-1.81-11-9.37-2.55-9.37-2.55l-18.9 6.56z" fill="#fb919f"/><path d="m191.87 143.96h-48.67v79.69h48.67z" fill="#f9d095" stroke="#fff" stroke-miterlimit="10" stroke-width="3"/><path d="m182.8 153.98h-30.08v58.69h30.08z" fill="#ffb942"/><path d="m125.55 143.96h-70.38v43.9h70.38z" fill="#f9d095" stroke="#fff" stroke-miterlimit="10" stroke-width="3"/><path d="m116.64 152.55h-52.81v26.72h52.81z" fill="#ffb942"/><path d="m123.51 207.3h-47.14v40.55h47.14z" fill="#f9d095" stroke="#fff" stroke-miterlimit="10" stroke-width="3"/><path d="m111.89 419.61h-28.98v7.29h28.98z" fill="#533a71"/><path d="m111.89 419.61h-14.49v7.29h14.49z" fill="#3d2c56"/><path d="m103.21 425.31h-11.14v27.26h11.14z" fill="#533a71"/><path d="m103.21 425.31h-5.57v27.26h5.57z" fill="#3d2c56"/><path d="m104.8 452.57h-14.79v18.7h14.79z" fill="#533a71"/><path d="m104.8 452.57h-7.4v18.7h7.4z" fill="#3d2c56"/><path d="m57 471.28h81.26c.703 0 1.377.279 1.874.776s.776 1.171.776 1.874v6.86h-86.55v-6.86c0-.701.2778-1.374.7726-1.871.4948-.496 1.1663-.777 1.8674-.779z" fill="#3d2c56"/><path d="m56.79 491.24c3.2364 0 5.86-2.789 5.86-6.23s-2.6236-6.23-5.86-6.23-5.86 2.789-5.86 6.23 2.6236 6.23 5.86 6.23z" fill="#3d2c56"/><path d="m56.79 488.13c1.6182 0 2.93-1.397 2.93-3.12s-1.3118-3.12-2.93-3.12-2.93 1.397-2.93 3.12 1.3118 3.12 2.93 3.12z" fill="#fff"/><path d="m137.84 491.24c3.236 0 5.86-2.789 5.86-6.23s-2.624-6.23-5.86-6.23-5.86 2.789-5.86 6.23 2.624 6.23 5.86 6.23z" fill="#3d2c56"/><path d="m137.84 488.13c1.618 0 2.93-1.397 2.93-3.12s-1.312-3.12-2.93-3.12-2.93 1.397-2.93 3.12 1.312 3.12 2.93 3.12z" fill="#fff"/><path d="m97.32 491.24c3.236 0 5.86-2.789 5.86-6.23s-2.624-6.23-5.86-6.23c-3.2364 0-5.86 2.789-5.86 6.23s2.6236 6.23 5.86 6.23z" fill="#3d2c56"/><path d="m97.32 488.13c1.6182 0 2.93-1.397 2.93-3.12s-1.3118-3.12-2.93-3.12-2.93 1.397-2.93 3.12 1.3118 3.12 2.93 3.12z" fill="#fff"/><path d="m88.58 361.59h-6.86v51.61h6.86z" fill="#533a71"/><path d="m121.92 330.24h-67.59c-3.1812 0-5.76 2.579-5.76 5.76v24.06c0 3.181 2.5788 5.76 5.76 5.76h67.59c3.181 0 5.76-2.579 5.76-5.76v-24.06c0-3.181-2.579-5.76-5.76-5.76z" fill="#5ecccd"/><path d="m121.92 330.24h-62.51c-3.1812 0-5.76 2.579-5.76 5.76v24.06c0 3.181 2.5788 5.76 5.76 5.76h62.51c3.181 0 5.76-2.579 5.76-5.76v-24.06c0-3.181-2.579-5.76-5.76-5.76z" fill="#46b2af"/><path d="m143.54 409.48h-82.74c-1.7066 0-3.09 1.383-3.09 3.09v3.95c0 1.707 1.3834 3.09 3.09 3.09h82.74c1.707 0 3.09-1.383 3.09-3.09v-3.95c0-1.707-1.383-3.09-3.09-3.09z" fill="#5ecccd"/><path d="m163.55 467.21s4.72-2.3 6.25-2.47 2.48 6.5 4.58 9.74 14.29 6.67 15.43 9 0 6.53 0 6.53l-18.86-.25-7.39-14.29-2.4-6.7z" fill="#3d2c56"/><path d="m147.87 468.38c-1.078 1.498-1.665 3.294-1.68 5.14.17 2.67 0 11.43 0 11.43s6.28 6.78 9.9 8.06 22.14 0 22.14 0 2.9-6.72 0-9.39-9.12-5.14-11.73-8.38c-1.543-1.896-2.674-4.093-3.32-6.45z" fill="#533a71"/><path d="m149.53 369.1 2.05 7.43 8.46 6.53h-25.68l2.64-13.96z" fill="#c66f7e"/><path d="m191.22 393.69s6.92 5.36 4.86 12.58-16.06 34.36-20 43.64-5.58 11.74-6.31 14.84l-.72 3.09s1.05 1.24-3.91 0-5.84-6.6-4.78-10.51 8.9-46.1 9.41-46.72 21.45-16.92 21.45-16.92z" fill="#c66f7e"/><path d="m154.38 413.59s18.11 9 25.34 7.69 12-13.5 12.66-17-2.51-20.28-2.51-20.28l-20.87-6.83-37.35-1.58z" fill="#3d2c56"/><path d="m165.54 393.33c-2.36 1.278-4.457 2.992-6.18 5.05-6.77 7.557-11.326 16.833-13.17 26.81 2.365.247 4.755.075 7.06-.51 13.8-3.85 20.59-15.61 20.59-15.61s5.13-8.57-.05-16.1c-.16-.08-.31-.17-.47-.24-1.267-.445-2.614-.622-3.953-.519-1.34.104-2.643.485-3.827 1.119z" fill="#3d2c56"/><path d="m189.87 380.16c-7.21-5.71-56.91-12.94-56.91-12.94l-57.36 9.49c-2.52.43 1.69 15 2.58 16.58 3.53 6.34 8.54 12.26 14.9 16.07 7.44 4.44 15.69 3.65 23.58 6.55 9.56 3.51 19.24 8.43 29.53 9.28 1.844-9.977 6.4-19.253 13.17-26.81 1.723-2.058 3.82-3.772 6.18-5.05 1.184-.631 2.485-1.01 3.823-1.111 1.338-.102 2.682.076 3.947.521.16.07.31.16.47.24-.483-.714-1.028-1.383-1.63-2-7.82-7.92-25.46-10.81-25.46-10.81s27.6-1.63 36 8.77 9.73 15.38 9.73 15.38 4.65-18.45-2.55-24.16z" fill="#533a71"/><path d="m165.49 397.54c-9 .3-14.1 11.79-15.16 16-2.498 8.617-3.744 17.548-3.7 26.52.12 13.26.75 29.36 1.8 30.62s3.37 3.58 6.31 3.79 7.37-5.68 8.42-5.68-.21-3.58-.21-8 9.89-54.2 9.89-56.93-1.04-6.53-7.35-6.32z" fill="#fb919f"/><path d="m138.14 328c-2.307-5.204-3.781-10.738-4.37-16.4-3.37-.61-6.73-1.1-10.09-1.43l4.79 33.39s10.15 6.62 15.24 8.24 10.27 5.74 10.7 1.09c.28-3-2.35-9.13-4.87-14.43-1.531-.346-3.013-.884-4.41-1.6-3.35-1.86-5.44-5.33-6.99-8.86z" fill="#fff"/><path d="m134.11 287.5c-4.37-7.19-14.92-8.66-14.92-8.66l4.5 31.37c3.36.33 6.72.82 10.09 1.43.589 5.662 2.063 11.196 4.37 16.4 1.55 3.49 3.63 7 7 8.84 1.397.716 2.879 1.254 4.41 1.6-1.32-2.79-2.62-5.36-3.44-7.16-2.42-5.2-7.65-36.63-12.01-43.82z" fill="#e6f0fc"/><path d="m104.13 356c-.54-6.18 2-12.74-.74-18.42-4-8.36-17.15-10.64-20.61-19.19-1.86-4.61-.3-9.79-1.27-14.61-.5488-2.394-1.6479-4.628-3.2101-6.523-1.5622-1.896-3.5446-3.401-5.7899-4.397-.9672-.425-1.9714-.76-3-1-.2356.463-.4232.949-.56 1.45-2.26 8.52 4 31.77 5 44.67s-1 40.75 1.76 42.36 24.86-5.53 39.11-7.14l2.44-.26c-1.601-.629-3.125-1.441-4.54-2.42-2.395-1.657-4.402-3.813-5.885-6.319-1.483-2.507-2.406-5.304-2.705-8.201z" fill="#d65050"/><path d="m135.35 296.58c-1.26-7.83-5.76-13.08-9.28-15.3s-14.09-4-14.09-4l-20 1.3h-1.27s-17.31 5.59-21.21 13.37c1.0286.24 2.0328.575 3 1 2.2453.996 4.2277 2.501 5.7899 4.397 1.5623 1.895 2.6613 4.129 3.2101 6.523 1 4.83-.59 10 1.27 14.61 3.45 8.54 16.65 10.83 20.61 19.19 2.7 5.69.2 12.24.74 18.42.307 2.891 1.236 5.682 2.722 8.181s3.494 4.648 5.888 6.299c1.415.979 2.939 1.791 4.54 2.42 13.09-1.33 23.28-1.21 25.65-2.73 1.25-.8-5.86-17-7.89-34.09-2.03-17.34.97-35.64.32-39.59z" fill="#ff6b6b"/><path d="m92.65 276.86s-4.14 2.26-4.14 3.44 1.85 3.36 7.72 5.28 9.56 2.6 13.25 1 4.21-4.53 3.87-6.21-2.84-3.11-2.84-3.11z" fill="#fff"/><path d="m77.82 240c.6288.37 1.3257.609 2.049.703.7233.095 1.4583.043 2.161-.153 2.2272-.476 4.2968-1.511 6.0145-3.007 1.7177-1.495 3.0272-3.403 3.8055-5.543l-.46 4.45c2.8848-2.424 5.073-5.572 6.34-9.12 1.7831 3.356 4.695 5.974 8.22 7.392 3.526 1.418 7.44 1.545 11.05.358l-3.66-3.69c2.994 1.524 6.466 1.812 9.67.8 1.344-.453 2.601-1.129 3.72-2-.13-.53-.27-1.06-.45-1.6-1.76-5.2-4.78-6.38-11.41-9.81s-13.95-2.78-19.74-1.48-8.64 7-8.64 7c-1.51.34-5.37 4.36-8.3 9.48-.7685 1.481-1.2727 3.085-1.49 4.74.232.586.6192 1.097 1.12 1.48z" fill="#533a71"/><path d="m129.7 241.13c-2.41-2.33-1.86-6.35-3-10.9-1.119.871-2.376 1.547-3.72 2-3.204 1.012-6.676.724-9.67-.8l3.66 3.69c-3.604 1.184-7.51 1.059-11.031-.353s-6.4317-4.021-8.219-7.367c-1.267 3.548-3.4552 6.696-6.34 9.12l.46-4.45c-.7969 2.12-2.1167 4.005-3.8371 5.479-1.7203 1.474-3.7852 2.489-6.0029 2.951-.7027.196-1.4377.248-2.161.153-.7233-.094-1.4202-.333-2.049-.703-.4868-.355-.8728-.831-1.12-1.38-.9 5.59-.07 12.62.82 13.63 1.17 1.34 2.26-1.59 2.26-1.59.9229 1.986 2.2159 3.778 3.81 5.28 1.8938 1.457 3.927 2.723 6.07 3.78 0 0 8.83-.59 10.76-2.1s21.39-3.86 21.39-4.45 3.52-2.94 5.2-4.19 1.26-4.45 1.26-4.45c.747.257 1.475.564 2.18.92 1.58.76 1.96-1.67-.72-4.27z" fill="#3d2c56"/><path d="m110.57 277.7-.92-6.29-12.33-2.26s.34 8.05.67 8.05 12.58.5 12.58.5z" fill="#c66f7e"/><path d="m120.89 243.22c-2.21.06-7.3-3.77-7.3-3.77s3 3.77 4 4.78-3.52.75-9.31-1.76c-1.711-.759-3.244-1.867-4.501-3.253s-2.211-3.02-2.799-4.797c0 0-1.23 11.58-3.24 13.84s-1.76-3-1.76-3-1.51 9.81-2.77 10.07-2-3-3.52-4.78-5.28-2.52-6 3 7 6.29 7 6.29l2.52 4.78s-1.26 15.38 0 16.38 12.83 5.28 16.36 3.52 1-6.79 1-6.79l-3.52-1c-3.52-1-7-5-7-5s11.32 4.53 17.11 2.52 7.55-7.3 7.55-13.59c0-4-.92-12.18-1.58-17.6-.743.1-1.491.153-2.24.16z" fill="#fb919f"/><path d="m119.65 263.31-12.65 1.69s2.43 4.53 6.79 4.11 5.86-5.8 5.86-5.8z" fill="#fff"/><path d="m89.37 338c-2.45.21-4.81 1-7.26 1.21s-5.17-.06-6.89-1.63c-.762-.776-1.3049-1.74-1.5737-2.794-.2687-1.054-.2536-2.16.0437-3.206.6267-2.077 1.4996-4.071 2.6-5.94 3.2827-6.545 4.5727-13.909 3.71-21.18-.36-3-1.16-6.1-3.31-8.43-1.1329-1.145-2.4886-2.045-3.9833-2.646-1.4947-.6-3.0966-.887-4.7067-.844-10.46 8-9.88 44.35-3.86 51.58 8.11 9.73 31.55 6.73 41.74 4.48-2.78-5.6-10.2-11.17-16.51-10.6z" fill="#fff"/><path d="m112 337.36c-2.39-2.07-11.61-2.83-19.44-3.11-6.32-.22-11.17-5-10.71-10.65 1-12.8 1-32.7-9.48-32.63-1.5906.023-3.1282.576-4.37 1.57 1.613-.051 3.2193.229 4.7193.824 1.5.596 2.8617 1.493 4.0007 2.636 2.15 2.34 3 5.43 3.31 8.43.8514 7.271-.4489 14.631-3.74 21.17-1.1004 1.869-1.9733 3.863-2.6 5.94-.2973 1.046-.3124 2.152-.0437 3.206.2688 1.054.8117 2.018 1.5737 2.794 1.72 1.57 4.44 1.89 6.89 1.63s4.81-1 7.26-1.21c6.31-.54 13.73 5 16.49 10.63 1.543-.301 3.061-.719 4.54-1.25 3.39-1.51 5.92-6.21 1.6-9.98z" fill="#e6f0fc"/><path d="m287.22 353.61v3.89c0 .607-.241 1.19-.671 1.619-.429.43-1.012.671-1.619.671h-235.37c-.6074 0-1.1898-.241-1.6193-.671-.4294-.429-.6707-1.012-.6707-1.619v-3.89c0-.608.2413-1.19.6707-1.619.4295-.43 1.0119-.671 1.6193-.671h235.37c.607 0 1.19.241 1.619.671.43.429.671 1.011.671 1.619z" fill="#ff6b6b"/><path d="m287.22 353.61v.83h-240v-.83c-.0006-.502.1634-.989.4669-1.389.3035-.399.7297-.688 1.2131-.821h236.6c.491.126.926.411 1.237.811s.481.892.483 1.399z" fill="#fff"/><path d="m278.25 359.8-1.85 4.11h-219.81l-1.85-4.11z" fill="#533a71"/><path d="m75.94 361.59-14.64 129.07c-.0759.644-.3856 1.238-.8703 1.67-.4847.431-1.1109.669-1.7597.67h-1.07c-.3604-.006-.7157-.085-1.0444-.233-.3286-.148-.6237-.362-.867-.627-.2434-.266-.43-.579-.5484-.919-.1184-.341-.1661-.702-.1402-1.061l9.9-128.57z" fill="#533a71"/><path d="m102.53 361.59 14.64 129.07c.076.644.386 1.238.87 1.67.485.431 1.111.669 1.76.67h1.06c.365 0 .725-.076 1.059-.222s.635-.36.883-.627c.247-.268.437-.584.558-.928.12-.344.168-.71.14-1.073l-9.94-128.57z" fill="#533a71"/><path d="m168.743 352.436c.069-1.291-2.303-2.466-5.298-2.626-2.995-.159-5.478.757-5.547 2.048-.069 1.29 2.303 2.466 5.298 2.625 2.995.16 5.478-.757 5.547-2.047z" fill="#d59000"/><path d="m163.26 353.11-33.03-2.59.06-.98 33.02 2.58z" fill="#fb0"/><path d="m163.31 352.12-33.02-2.58 4.76-4.74 28.38 4.99z" fill="#e89d00"/><path d="m163.26 353.11 33.11.93.05-.98-33.11-.94z" fill="#e89d00"/><path d="m163.31 352.12 33.11.94-3.72-4.55-29.27 1.28z" fill="#d59000"/><path d="m132.85 337.76-.66 1.09 2 .05-2.44.61-.5.82 2.92.13-3.32.52-.6 1c27.83 2.2 33 9.86 33 9.86l.62-2.43c-5.75-10.35-31.02-11.65-31.02-11.65z" fill="#e6f0fc"/><path d="m136.52 341.23 1.57.19c.52.06 1 .12 1.57.2l1.57.23 1.56.26c2.08.36 4.16.78 6.2 1.3 2.034.522 4.037 1.156 6 1.9 1.982.738 3.882 1.68 5.67 2.81-.902-.55-1.837-1.044-2.8-1.48-.47-.23-1-.43-1.45-.64s-1-.39-1.47-.58c-1.966-.725-3.969-1.346-6-1.86-2-.54-4.11-1-6.19-1.34l-1.56-.28-1.56-.25c-.52-.09-1-.16-1.57-.24z" fill="#fff"/><path d="m142 340.44c1 .16 2 .36 3 .57s2 .45 3 .71 2 .55 2.92.86l1.44.49c.48.17 1 .35 1.42.55l-1.45-.47-1.45-.45c-1-.29-1.95-.57-2.93-.83s-2-.51-2.95-.74z" fill="#fff"/><path d="m195.26 349.59 1.93.49-.22-.88-1.63-1.08 1.44.33-.26-1s-24.51-6.26-33.07 1.91l-.13 2.51s7.17-5.79 34.4.37l-.25-1z" fill="#e6f0fc"/><path d="m186.94 348.85c-.84-.09-1.67-.2-2.51-.27l-1.26-.13-1.26-.1c-1.68-.12-3.36-.22-5-.24s-3.37 0-5 .16c-.84.08-1.67.16-2.51.3s-1.66.29-2.48.49c1.636-.454 3.309-.758 5-.91 1.679-.155 3.364-.222 5.05-.2 1.69 0 3.37.12 5 .27s3.31.37 4.97.63z" fill="#fff"/><path d="m192.7 348.51c-.83-.16-1.65-.35-2.48-.5l-1.24-.24-1.24-.21c-1.66-.28-3.32-.52-5-.69s-3.35-.28-5-.29c-.84 0-1.68 0-2.52.07s-1.68.14-2.51.26c1.65-.303 3.323-.457 5-.46 1.687-.002 3.372.085 5.05.26 1.68.18 3.35.43 5 .73s3.31.67 4.94 1.07z" fill="#fff"/><path d="m139.31 345.6s.68-.81 0-1.23l-.68-.42-12.47 2.43 5.23 2.84 2.45-.55.09-.94z" fill="#c66f7e"/><path d="m131.8 348.85-4.12.37s1.92-.09 4.12-.37z" fill="#fb919f"/><path d="m112.79 344.81c-1.108-1.295-1.762-2.918-1.86-4.62-.038-1.276.373-2.525 1.16-3.53-.947-.126-1.879-.351-2.78-.67 0 0-2 3.9-1.54 6 .438 1.652 1.055 3.252 1.84 4.77l1.58.14 2.13-.28s1.16.48 2.81 1.1c-1.251-.8-2.376-1.781-3.34-2.91z" fill="#c66f7e"/><path d="m140.34 342.27c-.66-.43-5.38.54-8.27-.38-2.187-.805-4.272-1.866-6.21-3.16 2.044.207 4.103.224 6.15.05 1.94-.34 2.88-2.46 1.7-2.82s-3.49.46-6 .19c-2.478-.411-4.99-.572-7.5-.48-2.373.134-4.733.444-7.06.93-.331.056-.669.056-1 0-.787 1.005-1.198 2.254-1.16 3.53.099 1.702.752 3.325 1.86 4.62.963 1.133 2.089 2.117 3.34 2.92 3.45 1.31 9.08 3.29 11 3 2.81-.37 6-1 6.37-1.54l.36-.57-2 .18c-2.2.29-4.12.37-4.12.37l4.12-.37c1.809-.166 3.582-.604 5.26-1.3 2.67-1.39 2.25-1.94 2.25-1.94l-10.28.75s9.83-.87 11-2 .85-1.55.19-1.98z" fill="#fb919f"/><path d="m208.56 336.85v12.87h-2.41v1.7h44c1.896 0 3.715-.753 5.056-2.094s2.094-3.16 2.094-5.056v-2c0-1.896-.753-3.715-2.094-5.056s-3.16-2.094-5.056-2.094h-44v1.7z" fill="#ff6b6b"/><path d="m208.56 336.85v12.87h40c1.945.034 3.829-.682 5.26-2 .337-.319.633-.678.88-1.07.498-.772.766-1.671.77-2.59v-1.56c-.004-.919-.272-1.818-.77-2.59-.247-.392-.543-.752-.88-1.07-1.431-1.318-3.315-2.034-5.26-2z" fill="#fff"/><g fill="#859dc5" opacity=".5"><path d="m208.56 338.85v1.07h46.15c-.247-.392-.543-.752-.88-1.07z" opacity=".5"/><path d="m255.48 342.75h-46.92v1.07h46.92z" opacity=".5"/><path d="m208.56 346.65v1.07h45.28c.337-.318.633-.678.88-1.07z" opacity=".5"/></g><path d="m259.23 325.32h-49.33c-.989 0-1.79.801-1.79 1.79v6.25c0 .988.801 1.79 1.79 1.79h49.33c.989 0 1.79-.802 1.79-1.79v-6.25c0-.989-.801-1.79-1.79-1.79z" fill="#ff6b6b"/><path d="m256.55 325.32h-5.18v9.83h5.18z" fill="#e6f0fc"/><path d="m249.16 325.32h-1.55v9.83h1.55z" fill="#e6f0fc"/><path d="m255.48 324.15v-4.27c0-.67-.8-1.22-1.79-1.22h-49.33c-1 0-1.79.55-1.79 1.22v4.27c0 .67.8 1.22 1.79 1.22h49.33c.99 0 1.79-.55 1.79-1.22z" fill="#2c367c"/><path d="m212.22 318.65h-5.18v6.72h5.18z" fill="#e6ebf6"/><path d="m215.98 318.65h-1.55v6.72h1.55z" fill="#e6ebf6"/><path d="m266.58 486.48s-17.15 5.44-17.58 6.52 1.33 2.42 3.43 2.61 36.2.19 37.34 0 1.52-2.61 1.52-2.61v-6.53z" fill="#3d2c56"/><path d="m295 486.1s-2.29 5.45-2.29 6.91-1.14 2.71 3.81 2.75 18.29.9 19.62 0 1.71-3.45 1.33-4.63c-.794-1.716-1.686-3.385-2.67-5z" fill="#3d2c56"/></g></svg>